<!-- Generated by IcoMoon.io -->
<svg version="1.1" xmlns="http://www.w3.org/2000/svg" width="20" height="20" viewBox="0 0 20 20">
<title>500px</title>
<path d="M4.941 13.141c0.004 0.012 0.109 0.297 0.168 0.441 0.328 0.777 0.801 1.48 1.402 2.082s1.301 1.074 2.082 1.402c0.809 0.34 1.664 0.516 2.547 0.516s1.742-0.172 2.547-0.516c0.781-0.328 1.48-0.801 2.082-1.402s1.074-1.301 1.402-2.082c0.34-0.809 0.516-1.664 0.516-2.547s-0.172-1.742-0.516-2.547c-0.328-0.781-0.801-1.48-1.402-2.082s-1.301-1.074-2.082-1.402c-0.809-0.34-1.664-0.516-2.547-0.516-0.895 0-1.789 0.18-2.582 0.516-0.637 0.27-1.715 0.961-2.344 1.613l-0.004 0.004v-5.391h9.051c0.328-0.004 0.328-0.465 0.328-0.613 0-0.152 0-0.609-0.332-0.613h-9.785c-0.266 0-0.43 0.223-0.43 0.426v7.582c0 0.246 0.305 0.422 0.59 0.48 0.555 0.117 0.68-0.059 0.816-0.246l0.020-0.023c0.207-0.309 0.852-0.957 0.859-0.965 1.008-1.008 2.355-1.563 3.797-1.563 1.434 0 2.777 0.555 3.785 1.563 1.012 1.012 1.57 2.352 1.57 3.773 0 1.426-0.555 2.77-1.563 3.773-0.992 0.992-2.383 1.563-3.809 1.563-0.965 0-1.898-0.258-2.699-0.746l0.004-4.609c0-0.613 0.266-1.285 0.715-1.789 0.512-0.578 1.215-0.895 1.984-0.895 0.742 0 1.438 0.281 1.957 0.793 0.512 0.508 0.797 1.188 0.797 1.91 0 1.539-1.211 2.746-2.758 2.746-0.297 0-0.84-0.133-0.863-0.137-0.313-0.094-0.445 0.34-0.488 0.484-0.168 0.551 0.086 0.66 0.137 0.676 0.496 0.156 0.824 0.184 1.254 0.184 2.184 0 3.961-1.777 3.961-3.961 0-2.168-1.777-3.93-3.957-3.93-1.070 0-2.074 0.41-2.828 1.148-0.719 0.707-1.129 1.648-1.129 2.586v0.023c-0.004 0.117-0.004 2.883-0.008 3.789l-0.004-0.004c-0.41-0.453-0.816-1.148-1.086-1.859-0.105-0.277-0.344-0.23-0.668-0.129-0.156 0.043-0.586 0.176-0.488 0.492v0zM9.594 12.059c0 0.133 0.121 0.25 0.195 0.316l0.023 0.023c0.125 0.121 0.242 0.184 0.352 0.184 0.090 0 0.145-0.043 0.164-0.063 0.055-0.051 0.672-0.68 0.734-0.738l0.691 0.688c0.063 0.070 0.133 0.109 0.215 0.109 0.109 0 0.23-0.066 0.355-0.195 0.297-0.305 0.148-0.469 0.078-0.547l-0.699-0.699 0.73-0.734c0.16-0.172 0.020-0.355-0.121-0.496-0.203-0.203-0.402-0.258-0.527-0.141l-0.727 0.727-0.734-0.734c-0.039-0.039-0.090-0.059-0.141-0.059-0.098 0-0.215 0.066-0.344 0.195-0.227 0.227-0.273 0.383-0.156 0.508l0.734 0.73-0.73 0.73c-0.066 0.063-0.098 0.129-0.094 0.195zM11.191 2.145c-1.172 0-2.422 0.238-3.336 0.633-0.098 0.039-0.156 0.117-0.168 0.227-0.012 0.105 0.016 0.242 0.086 0.422 0.059 0.145 0.207 0.531 0.5 0.418 0.938-0.359 1.977-0.555 2.918-0.555 1.070 0 2.109 0.211 3.086 0.621 0.777 0.328 1.508 0.805 2.305 1.492 0.059 0.051 0.121 0.074 0.184 0.074 0.156 0 0.305-0.152 0.434-0.297 0.211-0.238 0.359-0.438 0.148-0.637-0.762-0.719-1.594-1.258-2.625-1.695-1.117-0.465-2.309-0.703-3.531-0.703zM17.508 16.625v0c-0.141-0.141-0.262-0.223-0.367-0.254s-0.203-0.008-0.277 0.066l-0.070 0.070c-0.727 0.727-1.574 1.297-2.516 1.695-0.977 0.414-2.012 0.621-3.078 0.621-1.070 0-2.105-0.211-3.078-0.621-0.941-0.398-1.789-0.969-2.516-1.695-0.758-0.758-1.328-1.605-1.695-2.516-0.359-0.891-0.477-1.559-0.516-1.777-0.004-0.020-0.008-0.035-0.008-0.047-0.051-0.258-0.289-0.277-0.629-0.223-0.141 0.023-0.574 0.090-0.535 0.398v0.008c0.113 0.723 0.316 1.43 0.602 2.102 0.457 1.082 1.113 2.055 1.949 2.891s1.809 1.488 2.891 1.949c1.121 0.473 2.313 0.715 3.539 0.715s2.418-0.242 3.539-0.715c1.082-0.457 2.055-1.113 2.891-1.949 0 0 0.047-0.047 0.074-0.074 0.086-0.105 0.168-0.281-0.199-0.645z"></path>
</svg>
