<!-- Generated by IcoMoon.io -->
<svg version="1.1" xmlns="http://www.w3.org/2000/svg" width="20" height="20" viewBox="0 0 20 20">
<title>address-book</title>
<path d="M3.75 0v20h15v-20h-15zM11.25 5.006c1.377 0 2.494 1.116 2.494 2.494s-1.116 2.494-2.494 2.494-2.494-1.116-2.494-2.494 1.116-2.494 2.494-2.494v0zM15 15h-7.5v-1.25c0-1.381 1.119-2.5 2.5-2.5v0h2.5c1.381 0 2.5 1.119 2.5 2.5v1.25z"></path>
<path d="M1.25 1.25h1.875v3.75h-1.875v-3.75z"></path>
<path d="M1.25 6.25h1.875v3.75h-1.875v-3.75z"></path>
<path d="M1.25 11.25h1.875v3.75h-1.875v-3.75z"></path>
<path d="M1.25 16.25h1.875v3.75h-1.875v-3.75z"></path>
</svg>
