<!-- Generated by IcoMoon.io -->
<svg version="1.1" xmlns="http://www.w3.org/2000/svg" width="20" height="20" viewBox="0 0 20 20">
<title>alarm</title>
<path d="M10 2.5c-4.832 0-8.75 3.918-8.75 8.75s3.918 8.75 8.75 8.75 8.75-3.918 8.75-8.75-3.918-8.75-8.75-8.75zM10 18.281c-3.883 0-7.031-3.148-7.031-7.031s3.148-7.031 7.031-7.031c3.883 0 7.031 3.148 7.031 7.031s-3.148 7.031-7.031 7.031zM18.258 5.609c0.313-0.548 0.492-1.182 0.492-1.859 0-2.071-1.679-3.75-3.75-3.75-1.207 0-2.281 0.571-2.967 1.457 2.576 0.532 4.789 2.055 6.225 4.152v0zM7.967 1.457c-0.686-0.886-1.76-1.457-2.967-1.457-2.071 0-3.75 1.679-3.75 3.75 0 0.676 0.179 1.311 0.493 1.859 1.436-2.097 3.649-3.62 6.225-4.152z"></path>
<path d="M10 11.25v-5h-1.25v6.25h5v-1.25z"></path>
</svg>
