<!-- Generated by IcoMoon.io -->
<svg version="1.1" xmlns="http://www.w3.org/2000/svg" width="20" height="20" viewBox="0 0 20 20">
<title>amazon</title>
<path d="M18.078 17.289c-2.191 1.617-5.363 2.477-8.098 2.477-3.832 0-7.281-1.414-9.891-3.773-0.203-0.184-0.023-0.438 0.223-0.293 2.816 1.641 6.301 2.625 9.898 2.625 2.426 0 5.094-0.504 7.551-1.547 0.367-0.156 0.68 0.246 0.316 0.512z"></path>
<path d="M18.988 16.25c-0.281-0.359-1.852-0.172-2.559-0.086-0.215 0.023-0.246-0.16-0.055-0.297 1.254-0.879 3.309-0.625 3.547-0.332 0.242 0.297-0.063 2.355-1.238 3.34-0.18 0.152-0.352 0.070-0.273-0.129 0.27-0.66 0.859-2.137 0.578-2.496z"></path>
<path d="M13.816 14.797l0.004 0.004c0.484-0.426 1.355-1.188 1.848-1.598 0.195-0.156 0.16-0.418 0.008-0.637-0.441-0.609-0.91-1.105-0.91-2.23v-3.75c0-1.59 0.109-3.047-1.059-4.141-0.922-0.883-2.453-1.195-3.625-1.195-2.289 0-4.844 0.855-5.379 3.684-0.059 0.301 0.164 0.461 0.359 0.504l2.332 0.254c0.219-0.012 0.375-0.227 0.418-0.445 0.199-0.973 1.016-1.445 1.934-1.445 0.496 0 1.059 0.18 1.352 0.625 0.336 0.496 0.293 1.172 0.293 1.746v0.313c-1.395 0.156-3.219 0.258-4.523 0.832-1.508 0.652-2.566 1.98-2.566 3.934 0 2.5 1.574 3.75 3.602 3.75 1.711 0 2.645-0.402 3.965-1.754 0.438 0.633 0.578 0.941 1.379 1.605 0.184 0.098 0.41 0.090 0.57-0.055zM11.391 8.93c0 0.938 0.023 1.719-0.449 2.551-0.383 0.68-0.988 1.094-1.664 1.094-0.922 0-1.461-0.703-1.461-1.742 0-2.051 1.84-2.422 3.578-2.422v0.52z"></path>
</svg>
