<!-- Generated by IcoMoon.io -->
<svg version="1.1" xmlns="http://www.w3.org/2000/svg" width="20" height="20" viewBox="0 0 20 20">
<title>android</title>
<path d="M17.5 7.5c-0.688 0-1.25 0.563-1.25 1.25v5c0 0.688 0.563 1.25 1.25 1.25s1.25-0.563 1.25-1.25v-5c0-0.688-0.563-1.25-1.25-1.25zM2.5 7.5c-0.688 0-1.25 0.563-1.25 1.25v5c0 0.688 0.563 1.25 1.25 1.25s1.25-0.563 1.25-1.25v-5c0-0.688-0.563-1.25-1.25-1.25zM4.375 14.375c0 1.036 0.839 1.875 1.875 1.875v0 2.5c0 0.688 0.563 1.25 1.25 1.25s1.25-0.563 1.25-1.25v-2.5h2.5v2.5c0 0.688 0.563 1.25 1.25 1.25s1.25-0.563 1.25-1.25v-2.5c1.036 0 1.875-0.839 1.875-1.875v-6.875h-11.25v6.875z"></path>
<path d="M15.59 6.25c-0.19-1.716-1.152-3.199-2.532-4.095l0.625-1.251c0.154-0.309 0.029-0.684-0.279-0.839s-0.684-0.029-0.839 0.28l-0.628 1.256-0.163-0.065c-0.558-0.186-1.155-0.286-1.775-0.286s-1.217 0.101-1.775 0.286l-0.163 0.065-0.628-1.256c-0.154-0.309-0.53-0.434-0.839-0.28s-0.434 0.53-0.28 0.839l0.625 1.251c-1.379 0.896-2.342 2.378-2.532 4.095v0.625h11.215v-0.625h-0.035zM8.125 5c-0.345 0-0.625-0.28-0.625-0.625s0.279-0.624 0.624-0.625c0.001 0 0.001 0 0.002 0s0.001-0 0.001-0c0.344 0.001 0.624 0.28 0.624 0.625s-0.28 0.625-0.625 0.625zM11.875 5c-0.345 0-0.625-0.28-0.625-0.625s0.279-0.624 0.624-0.625c0 0 0.001 0 0.001 0s0.001-0 0.002-0c0.345 0.001 0.624 0.28 0.624 0.625s-0.28 0.625-0.625 0.625z"></path>
</svg>
