<!-- Generated by IcoMoon.io -->
<svg version="1.1" xmlns="http://www.w3.org/2000/svg" width="20" height="20" viewBox="0 0 20 20">
<title>angry</title>
<path d="M10 20c5.523 0 10-4.477 10-10s-4.477-10-10-10-10 4.477-10 10 4.477 10 10 10zM10 1.875c4.487 0 8.125 3.638 8.125 8.125s-3.638 8.125-8.125 8.125-8.125-3.638-8.125-8.125 3.638-8.125 8.125-8.125zM13.752 15.249c-0.765-1.272-2.159-2.124-3.752-2.124s-2.987 0.851-3.752 2.124l-1.608-0.965c1.093-1.818 3.084-3.034 5.36-3.034s4.267 1.216 5.36 3.034l-1.608 0.965zM14.981 5.473c0.084 0.335-0.12 0.674-0.455 0.758-0.344 0.087-0.752 0.237-1.112 0.417 0.208 0.223 0.335 0.522 0.335 0.852 0 0.69-0.56 1.25-1.25 1.25s-1.25-0.56-1.25-1.25c0-0.023 0.001-0.046 0.002-0.068 0.040-0.927 0.883-1.542 1.594-1.897 0.679-0.339 1.35-0.509 1.378-0.516 0.335-0.084 0.674 0.12 0.758 0.455zM5.019 5.473c0.084-0.335 0.423-0.539 0.758-0.455 0.028 0.007 0.699 0.177 1.378 0.516 0.711 0.355 1.554 0.97 1.594 1.897 0.001 0.023 0.002 0.045 0.002 0.068 0 0.69-0.56 1.25-1.25 1.25s-1.25-0.56-1.25-1.25c0-0.329 0.127-0.628 0.335-0.852-0.36-0.18-0.768-0.33-1.112-0.417-0.335-0.084-0.538-0.423-0.455-0.758z"></path>
</svg>
