<!-- Generated by IcoMoon.io -->
<svg version="1.1" xmlns="http://www.w3.org/2000/svg" width="20" height="20" viewBox="0 0 20 20">
<title>arrow-down-left2</title>
<path d="M15.366 2.866l-10.366 10.366v-4.482c0-0.69-0.56-1.25-1.25-1.25s-1.25 0.56-1.25 1.25v7.5c0 0.506 0.305 0.961 0.772 1.155 0.155 0.064 0.317 0.095 0.478 0.094v0.001l7.5-0c0.69 0 1.25-0.56 1.25-1.25s-0.56-1.25-1.25-1.25h-4.482l10.366-10.366c0.244-0.244 0.366-0.564 0.366-0.884s-0.122-0.64-0.366-0.884c-0.488-0.488-1.28-0.488-1.768 0v0z"></path>
</svg>
