<!-- Generated by IcoMoon.io -->
<svg version="1.1" xmlns="http://www.w3.org/2000/svg" width="20" height="20" viewBox="0 0 20 20">
<title>arrow-down-right2</title>
<path d="M2.866 4.634l10.366 10.366h-4.482c-0.69 0-1.25 0.56-1.25 1.25s0.56 1.25 1.25 1.25h7.5c0.506 0 0.961-0.305 1.155-0.772 0.064-0.155 0.095-0.317 0.094-0.478h0.001v-7.5c0-0.69-0.56-1.25-1.25-1.25s-1.25 0.56-1.25 1.25v4.482l-10.366-10.366c-0.244-0.244-0.564-0.366-0.884-0.366s-0.64 0.122-0.884 0.366c-0.488 0.488-0.488 1.28 0 1.768z"></path>
</svg>
