<!-- Generated by IcoMoon.io -->
<svg version="1.1" xmlns="http://www.w3.org/2000/svg" width="20" height="20" viewBox="0 0 20 20">
<title>arrow-up-left2</title>
<path d="M17.134 15.366l-10.366-10.366h4.482c0.69 0 1.25-0.56 1.25-1.25s-0.56-1.25-1.25-1.25h-7.5c-0.506 0-0.961 0.305-1.155 0.772-0.064 0.155-0.095 0.317-0.094 0.478h-0.001v7.5c0 0.69 0.56 1.25 1.25 1.25s1.25-0.56 1.25-1.25v-4.482l10.366 10.366c0.244 0.244 0.564 0.366 0.884 0.366s0.64-0.122 0.884-0.366c0.488-0.488 0.488-1.28 0-1.768z"></path>
</svg>
