<!-- Generated by IcoMoon.io -->
<svg version="1.1" xmlns="http://www.w3.org/2000/svg" width="20" height="20" viewBox="0 0 20 20">
<title>attachment</title>
<path d="M13.005 6.388l-1.269-1.268-6.344 6.343c-1.051 1.051-1.051 2.755 0 3.806s2.755 1.051 3.806 0l7.613-7.611c1.752-1.751 1.752-4.591 0-6.342s-4.592-1.752-6.343 0l-7.993 7.992c-0.006 0.006-0.012 0.011-0.017 0.017-2.443 2.443-2.443 6.403 0 8.846s6.404 2.442 8.847 0c0.005-0.005 0.010-0.011 0.016-0.017l0.001 0.001 5.456-5.455-1.269-1.268-5.456 5.454c-0.006 0.005-0.011 0.011-0.017 0.016-1.74 1.739-4.57 1.739-6.31 0s-1.739-4.569 0-6.308c0.006-0.006 0.012-0.011 0.017-0.017l-0.001-0.001 7.994-7.992c1.049-1.050 2.757-1.050 3.806 0s1.049 2.757 0 3.805l-7.613 7.611c-0.35 0.35-0.919 0.35-1.269 0s-0.349-0.919 0-1.268l6.344-6.343z"></path>
</svg>
