<!-- Generated by IcoMoon.io -->
<svg version="1.1" xmlns="http://www.w3.org/2000/svg" width="20" height="20" viewBox="0 0 20 20">
<title>baffled</title>
<path d="M10 20c5.523 0 10-4.477 10-10s-4.477-10-10-10-10 4.477-10 10 4.477 10 10 10zM10 1.875c4.487 0 8.125 3.638 8.125 8.125s-3.638 8.125-8.125 8.125-8.125-3.638-8.125-8.125 3.638-8.125 8.125-8.125z"></path>
<path d="M7.5 8.125c0 0.345-0.28 0.625-0.625 0.625s-0.625-0.28-0.625-0.625c0-0.345 0.28-0.625 0.625-0.625s0.625 0.28 0.625 0.625z"></path>
<path d="M6.875 6.25c1.036 0 1.875 0.839 1.875 1.875s-0.839 1.875-1.875 1.875-1.875-0.839-1.875-1.875 0.839-1.875 1.875-1.875zM6.875 5c-1.723 0-3.125 1.402-3.125 3.125s1.402 3.125 3.125 3.125 3.125-1.402 3.125-3.125-1.402-3.125-3.125-3.125v0z"></path>
<path d="M13.75 8.125c0 0.345-0.28 0.625-0.625 0.625s-0.625-0.28-0.625-0.625c0-0.345 0.28-0.625 0.625-0.625s0.625 0.28 0.625 0.625z"></path>
<path d="M13.125 6.25c1.036 0 1.875 0.839 1.875 1.875s-0.839 1.875-1.875 1.875-1.875-0.839-1.875-1.875 0.839-1.875 1.875-1.875zM13.125 5c-1.723 0-3.125 1.402-3.125 3.125s1.402 3.125 3.125 3.125 3.125-1.402 3.125-3.125-1.402-3.125-3.125-3.125v0z"></path>
<path d="M7.5 13.75h5v1.25h-5v-1.25z"></path>
</svg>
