<!-- Generated by IcoMoon.io -->
<svg version="1.1" xmlns="http://www.w3.org/2000/svg" width="20" height="20" viewBox="0 0 20 20">
<title>baffled2</title>
<path d="M7.5 8.125c0 0.345-0.28 0.625-0.625 0.625s-0.625-0.28-0.625-0.625 0.28-0.625 0.625-0.625 0.625 0.28 0.625 0.625z"></path>
<path d="M13.75 8.125c0 0.345-0.28 0.625-0.625 0.625s-0.625-0.28-0.625-0.625 0.28-0.625 0.625-0.625 0.625 0.28 0.625 0.625z"></path>
<path d="M10 0c-5.523 0-10 4.477-10 10s4.477 10 10 10 10-4.477 10-10-4.477-10-10-10zM5 8.125c0-1.036 0.839-1.875 1.875-1.875s1.875 0.839 1.875 1.875-0.839 1.875-1.875 1.875-1.875-0.839-1.875-1.875zM12.5 15h-5v-1.25h5v1.25zM13.125 10c-1.036 0-1.875-0.839-1.875-1.875s0.839-1.875 1.875-1.875 1.875 0.839 1.875 1.875-0.839 1.875-1.875 1.875z"></path>
</svg>
