<!-- Generated by IcoMoon.io -->
<svg version="1.1" xmlns="http://www.w3.org/2000/svg" width="20" height="20" viewBox="0 0 20 20">
<title>barcode</title>
<path d="M0 2.5h2.5v12.5h-2.5zM3.75 2.5h1.25v12.5h-1.25zM6.25 2.5h1.25v12.5h-1.25zM10 2.5h1.25v12.5h-1.25zM15 2.5h1.25v12.5h-1.25zM18.75 2.5h1.25v12.5h-1.25zM12.5 2.5h0.625v12.5h-0.625zM8.75 2.5h0.625v12.5h-0.625zM16.875 2.5h0.625v12.5h-0.625zM0 16.25h1.25v1.25h-1.25zM3.75 16.25h1.25v1.25h-1.25zM6.25 16.25h1.25v1.25h-1.25zM12.5 16.25h1.25v1.25h-1.25zM18.75 16.25h1.25v1.25h-1.25zM15 16.25h2.5v1.25h-2.5zM8.75 16.25h2.5v1.25h-2.5z"></path>
</svg>
