<!-- Generated by IcoMoon.io -->
<svg version="1.1" xmlns="http://www.w3.org/2000/svg" width="20" height="20" viewBox="0 0 20 20">
<title>basecamp</title>
<path d="M10 2.082c-3.648 0-6.461 3.055-8.055 6.047-0.898 1.684-1.527 3.527-1.816 5.414-0.031 0.215-0.063 0.43-0.086 0.648-0.012 0.117-0.023 0.234-0.031 0.352-0.012 0.148-0.004 0.195 0.074 0.32 0.234 0.379 0.512 0.73 0.824 1.047 0.641 0.656 1.418 1.16 2.242 1.551 1.879 0.887 4 1.207 6.062 1.277 2.129 0.070 4.316-0.105 6.352-0.77 1.738-0.566 3.414-1.555 4.379-3.152 0.105-0.172 0.031-0.426 0.012-0.625-0.023-0.238-0.055-0.473-0.094-0.707-0.070-0.461-0.164-0.914-0.277-1.367-0.227-0.922-0.535-1.828-0.91-2.699-1.359-3.156-3.875-6.523-7.453-7.219-0.402-0.078-0.813-0.117-1.223-0.117zM10.125 17.387c-2.23 0-4.66-0.199-6.668-1.273-0.781-0.418-1.578-1.023-1.953-1.855-0.109-0.242-0.070-0.336-0.020-0.621 0.035-0.184 0.051-0.363 0.133-0.535 0.113-0.238 0.23-0.473 0.352-0.707 0.41-0.793 0.852-1.578 1.363-2.316 0.254-0.363 0.523-0.723 0.836-1.035 0.219-0.219 0.484-0.453 0.793-0.527 0.945-0.227 1.668 0.867 2.242 1.418 0.277 0.266 0.648 0.566 1.062 0.516 0.285-0.035 0.539-0.258 0.742-0.441 0.691-0.621 1.246-1.391 1.82-2.113 0.285-0.355 0.566-0.715 0.875-1.055 0.207-0.23 0.434-0.492 0.711-0.641 0.496-0.27 1.129 0.285 1.473 0.57 0.586 0.488 1.105 1.059 1.602 1.637 0.473 0.551 0.93 1.109 1.332 1.715 0.621 0.938 1.16 1.938 1.652 2.949 0.105 0.219 0.141 0.367 0.18 0.609 0.023 0.133 0.074 0.285 0.055 0.422-0.027 0.191-0.16 0.398-0.258 0.555-0.234 0.371-0.551 0.691-0.898 0.961-1.457 1.129-3.43 1.504-5.223 1.672-0.734 0.070-1.469 0.098-2.203 0.098z"></path>
</svg>
