<!-- Generated by IcoMoon.io -->
<svg version="1.1" xmlns="http://www.w3.org/2000/svg" width="20" height="20" viewBox="0 0 20 20">
<title>behance2</title>
<path d="M7.895 8.762c0.254-0.184 0.375-0.488 0.375-0.91 0-0.234-0.039-0.426-0.121-0.574-0.086-0.148-0.195-0.266-0.34-0.348-0.141-0.086-0.301-0.145-0.484-0.176-0.18-0.035-0.371-0.051-0.566-0.051h-2.059v2.336h2.227c0.391 0.004 0.715-0.090 0.969-0.277z"></path>
<path d="M8.242 10.871c-0.289-0.219-0.672-0.328-1.148-0.328h-2.395v2.754h2.348c0.219 0 0.422-0.020 0.617-0.063s0.371-0.109 0.52-0.211c0.148-0.098 0.27-0.23 0.359-0.398s0.133-0.387 0.133-0.648c0-0.516-0.145-0.883-0.434-1.105z"></path>
<path d="M18.125 0h-16.25c-1.031 0-1.875 0.844-1.875 1.875v16.25c0 1.031 0.844 1.875 1.875 1.875h16.25c1.031 0 1.875-0.844 1.875-1.875v-16.25c0-1.031-0.844-1.875-1.875-1.875zM13.109 5.262h4.051v0.988h-4.051v-0.988zM10.578 13.406c-0.195 0.371-0.461 0.672-0.789 0.906-0.332 0.234-0.711 0.406-1.137 0.52-0.422 0.113-0.859 0.168-1.305 0.168h-4.848v-9.996h4.711c0.477 0 0.91 0.043 1.305 0.125 0.391 0.082 0.727 0.223 1.008 0.414 0.277 0.191 0.496 0.445 0.652 0.762 0.152 0.313 0.23 0.707 0.23 1.172 0 0.504-0.113 0.922-0.344 1.258s-0.566 0.609-1.020 0.824c0.617 0.176 1.070 0.488 1.371 0.93 0.305 0.445 0.453 0.98 0.453 1.605 0.004 0.512-0.094 0.949-0.289 1.313zM18.738 11.859h-5.223c0 0.57 0.195 1.113 0.492 1.406 0.297 0.289 0.727 0.438 1.285 0.438 0.402 0 0.746-0.102 1.039-0.305 0.289-0.203 0.465-0.418 0.531-0.641h1.75c-0.281 0.871-0.707 1.492-1.289 1.867-0.574 0.375-1.277 0.562-2.094 0.562-0.57 0-1.082-0.094-1.543-0.273-0.461-0.184-0.844-0.441-1.168-0.777-0.316-0.336-0.559-0.738-0.734-1.207-0.172-0.465-0.262-0.984-0.262-1.543 0-0.543 0.090-1.047 0.266-1.516 0.18-0.469 0.43-0.875 0.758-1.211 0.328-0.34 0.719-0.609 1.172-0.809 0.453-0.195 0.953-0.293 1.508-0.293 0.613 0 1.148 0.117 1.609 0.359 0.457 0.238 0.832 0.559 1.129 0.961s0.504 0.859 0.637 1.375c0.129 0.508 0.172 1.043 0.137 1.605z"></path>
<path d="M15.168 9.059c-0.316 0-0.582 0.055-0.789 0.164s-0.375 0.242-0.504 0.398c-0.129 0.16-0.215 0.328-0.266 0.512-0.051 0.176-0.082 0.336-0.090 0.477h3.234c-0.047-0.508-0.223-0.883-0.457-1.145-0.242-0.266-0.641-0.406-1.129-0.406z"></path>
</svg>
