<!-- Generated by IcoMoon.io -->
<svg version="1.1" xmlns="http://www.w3.org/2000/svg" width="20" height="20" viewBox="0 0 20 20">
<title>behance</title>
<path d="M5.801 4.008c0.59 0 1.121 0.051 1.605 0.156 0.484 0.102 0.895 0.273 1.242 0.508 0.344 0.234 0.609 0.547 0.805 0.938 0.188 0.387 0.281 0.871 0.281 1.445 0 0.621-0.141 1.137-0.422 1.551-0.285 0.414-0.699 0.75-1.254 1.016 0.758 0.219 1.316 0.602 1.691 1.145 0.375 0.547 0.555 1.203 0.555 1.977 0 0.625-0.121 1.16-0.359 1.613-0.242 0.457-0.57 0.828-0.973 1.113-0.406 0.289-0.875 0.5-1.398 0.637-0.52 0.137-1.055 0.207-1.609 0.207h-5.965v-12.305h5.801zM5.449 8.977c0.48 0 0.879-0.113 1.191-0.344 0.313-0.227 0.461-0.602 0.461-1.117 0-0.285-0.051-0.523-0.152-0.707-0.105-0.184-0.242-0.328-0.418-0.43-0.172-0.105-0.367-0.176-0.598-0.215-0.223-0.043-0.457-0.062-0.695-0.062h-2.531v2.875h2.742zM5.598 14.215c0.266 0 0.52-0.023 0.758-0.078 0.242-0.055 0.457-0.137 0.637-0.262 0.18-0.121 0.332-0.281 0.441-0.492 0.109-0.207 0.16-0.473 0.16-0.797 0-0.633-0.18-1.086-0.535-1.359-0.355-0.27-0.828-0.402-1.414-0.402h-2.937v3.387h2.891z"></path>
<path d="M14.164 14.172c0.367 0.359 0.895 0.539 1.582 0.539 0.492 0 0.922-0.125 1.277-0.375s0.57-0.516 0.652-0.789h2.156c-0.348 1.074-0.871 1.836-1.59 2.297-0.707 0.461-1.574 0.695-2.578 0.695-0.703 0-1.332-0.113-1.898-0.336-0.566-0.227-1.039-0.543-1.438-0.957-0.387-0.414-0.691-0.906-0.906-1.484-0.211-0.574-0.32-1.211-0.32-1.898 0-0.668 0.109-1.289 0.328-1.863 0.223-0.578 0.527-1.074 0.934-1.492s0.883-0.75 1.445-0.992c0.559-0.242 1.176-0.363 1.859-0.363 0.754 0 1.414 0.145 1.98 0.441 0.562 0.293 1.027 0.688 1.391 1.18s0.621 1.059 0.781 1.691c0.16 0.633 0.215 1.293 0.172 1.984h-6.434c0 0.699 0.234 1.367 0.605 1.723zM16.973 9.492c-0.289-0.32-0.785-0.496-1.383-0.496-0.391 0-0.715 0.066-0.973 0.199-0.254 0.133-0.461 0.297-0.621 0.492-0.156 0.195-0.266 0.406-0.328 0.629-0.063 0.215-0.102 0.414-0.113 0.586h3.984c-0.059-0.625-0.273-1.086-0.566-1.41z"></path>
<path d="M13.055 5h4.988v1.215h-4.988v-1.215z"></path>
</svg>
