<!-- Generated by IcoMoon.io -->
<svg version="1.1" xmlns="http://www.w3.org/2000/svg" width="20" height="20" viewBox="0 0 20 20">
<title>bin</title>
<path d="M2.5 6.25v12.5c0 0.688 0.563 1.25 1.25 1.25h11.25c0.688 0 1.25-0.563 1.25-1.25v-12.5h-13.75zM6.25 17.5h-1.25v-8.75h1.25v8.75zM8.75 17.5h-1.25v-8.75h1.25v8.75zM11.25 17.5h-1.25v-8.75h1.25v8.75zM13.75 17.5h-1.25v-8.75h1.25v8.75z"></path>
<path d="M16.563 2.5h-4.063v-1.563c0-0.516-0.422-0.938-0.938-0.938h-4.375c-0.516 0-0.938 0.422-0.938 0.938v1.563h-4.063c-0.516 0-0.938 0.422-0.938 0.938v1.563h16.25v-1.563c0-0.516-0.422-0.938-0.938-0.938zM11.25 2.5h-3.75v-1.234h3.75v1.234z"></path>
</svg>
