<!-- Generated by IcoMoon.io -->
<svg version="1.1" xmlns="http://www.w3.org/2000/svg" width="20" height="20" viewBox="0 0 20 20">
<title>binoculars</title>
<path d="M1.25 0h7.5v1.25h-7.5zM11.25 0h7.5v1.25h-7.5zM18.594 6.25h-1.094v-5h-5v5h-5v-5h-5v5h-1.094c-0.773 0-1.406 0.633-1.406 1.406v10.938c0 0.773 0.633 1.406 1.406 1.406h5.938c0.773 0 1.406-0.633 1.406-1.406v-7.344h2.5v7.344c0 0.773 0.633 1.406 1.406 1.406h5.938c0.773 0 1.406-0.633 1.406-1.406v-10.938c0-0.773-0.633-1.406-1.406-1.406zM6.797 18.75h-4.844c-0.387 0-0.703-0.281-0.703-0.625s0.316-0.625 0.703-0.625h4.844c0.387 0 0.703 0.281 0.703 0.625s-0.316 0.625-0.703 0.625zM10.625 10h-1.25c-0.344 0-0.625-0.281-0.625-0.625s0.281-0.625 0.625-0.625h1.25c0.344 0 0.625 0.281 0.625 0.625s-0.281 0.625-0.625 0.625zM18.047 18.75h-4.844c-0.387 0-0.703-0.281-0.703-0.625s0.316-0.625 0.703-0.625h4.844c0.387 0 0.703 0.281 0.703 0.625s-0.316 0.625-0.703 0.625z"></path>
</svg>
