<!-- Generated by IcoMoon.io -->
<svg version="1.1" xmlns="http://www.w3.org/2000/svg" width="20" height="20" viewBox="0 0 20 20">
<title>blog</title>
<path d="M7.5 0v1.875c1.435 0 2.826 0.281 4.135 0.834 1.265 0.535 2.402 1.301 3.378 2.278s1.743 2.113 2.278 3.378c0.554 1.309 0.834 2.7 0.834 4.135h1.875c0-6.904-5.596-12.5-12.5-12.5z"></path>
<path d="M7.5 3.75v1.875c1.836 0 3.563 0.715 4.861 2.014s2.014 3.025 2.014 4.861h1.875c0-4.832-3.918-8.75-8.75-8.75z"></path>
<path d="M9.375 7.5l-1.25 1.25-4.375 1.25-3.75 8.125 0.496 0.496 4.547-4.547c-0.028-0.103-0.043-0.212-0.043-0.324 0-0.69 0.56-1.25 1.25-1.25s1.25 0.56 1.25 1.25-0.56 1.25-1.25 1.25c-0.112 0-0.22-0.015-0.324-0.043l-4.547 4.547 0.496 0.496 8.125-3.75 1.25-4.375 1.25-1.25-3.125-3.125z"></path>
</svg>
