<!-- Generated by IcoMoon.io -->
<svg version="1.1" xmlns="http://www.w3.org/2000/svg" width="20" height="20" viewBox="0 0 20 20">
<title>blogger2</title>
<path d="M18.125 0h-16.25c-1.031 0-1.875 0.844-1.875 1.875v16.25c0 1.031 0.844 1.875 1.875 1.875h16.25c1.031 0 1.875-0.844 1.875-1.875v-16.25c0-1.031-0.844-1.875-1.875-1.875zM17.5 12.656c0 2.676-2.176 4.844-4.871 4.844h-5.25c-2.695 0-4.879-2.168-4.879-4.844v-5.313c0-2.676 2.184-4.844 4.879-4.844h2.457c2.695 0 4.852 2.012 4.852 4.688 0.035 0.5 0.488 0.938 1 0.938h0.84c0.539 0 0.969 0.566 0.969 1.102v3.43z"></path>
<path d="M13.75 12.5c0 0.688-0.563 1.25-1.25 1.25h-5c-0.688 0-1.25-0.563-1.25-1.25v0c0-0.688 0.563-1.25 1.25-1.25h5c0.688 0 1.25 0.563 1.25 1.25v0z"></path>
<path d="M11.25 7.5c0 0.688-0.563 1.25-1.25 1.25h-2.5c-0.688 0-1.25-0.563-1.25-1.25v0c0-0.688 0.563-1.25 1.25-1.25h2.5c0.688 0 1.25 0.563 1.25 1.25v0z"></path>
</svg>
