<!-- Generated by IcoMoon.io -->
<svg version="1.1" xmlns="http://www.w3.org/2000/svg" width="23" height="20" viewBox="0 0 23 20">
<title>books</title>
<path d="M4.375 2.5h-3.75c-0.344 0-0.625 0.281-0.625 0.625v13.75c0 0.344 0.281 0.625 0.625 0.625h3.75c0.344 0 0.625-0.281 0.625-0.625v-13.75c0-0.344-0.281-0.625-0.625-0.625zM3.75 6.25h-2.5v-1.25h2.5v1.25z"></path>
<path d="M10.625 2.5h-3.75c-0.344 0-0.625 0.281-0.625 0.625v13.75c0 0.344 0.281 0.625 0.625 0.625h3.75c0.344 0 0.625-0.281 0.625-0.625v-13.75c0-0.344-0.281-0.625-0.625-0.625zM10 6.25h-2.5v-1.25h2.5v1.25z"></path>
<path d="M14.943 3.466l-3.349 1.687c-0.307 0.155-0.432 0.532-0.277 0.839l5.625 11.163c0.155 0.307 0.532 0.432 0.839 0.277l3.349-1.687c0.307-0.155 0.432-0.532 0.277-0.839l-5.625-11.163c-0.155-0.307-0.532-0.432-0.839-0.277z"></path>
</svg>
