<!-- Generated by IcoMoon.io -->
<svg version="1.1" xmlns="http://www.w3.org/2000/svg" width="20" height="20" viewBox="0 0 20 20">
<title>calendar</title>
<path d="M6.25 7.5h2.5v2.5h-2.5zM10 7.5h2.5v2.5h-2.5zM13.75 7.5h2.5v2.5h-2.5zM2.5 15h2.5v2.5h-2.5zM6.25 15h2.5v2.5h-2.5zM10 15h2.5v2.5h-2.5zM6.25 11.25h2.5v2.5h-2.5zM10 11.25h2.5v2.5h-2.5zM13.75 11.25h2.5v2.5h-2.5zM2.5 11.25h2.5v2.5h-2.5zM16.25 0v1.25h-2.5v-1.25h-8.75v1.25h-2.5v-1.25h-2.5v20h18.75v-20h-2.5zM17.5 18.75h-16.25v-13.75h16.25v13.75z"></path>
</svg>
