<!-- Generated by IcoMoon.io -->
<svg version="1.1" xmlns="http://www.w3.org/2000/svg" width="20" height="20" viewBox="0 0 20 20">
<title>clipboard</title>
<path d="M18.125 2.5h-5.625c0-1.381-1.119-2.5-2.5-2.5s-2.5 1.119-2.5 2.5h-5.625c-0.345 0-0.625 0.28-0.625 0.625v16.25c0 0.345 0.28 0.625 0.625 0.625h16.25c0.345 0 0.625-0.28 0.625-0.625v-16.25c0-0.345-0.28-0.625-0.625-0.625zM10 1.25c0.69 0 1.25 0.56 1.25 1.25s-0.56 1.25-1.25 1.25c-0.69 0-1.25-0.56-1.25-1.25s0.56-1.25 1.25-1.25zM17.5 18.75h-15v-15h2.5v1.875c0 0.345 0.28 0.625 0.625 0.625h8.75c0.345 0 0.625-0.28 0.625-0.625v-1.875h2.5v15z"></path>
<path d="M8.75 16.768l-4.009-4.634 1.143-1.143 2.866 2.241 5.366-4.741 1.143 1.143z"></path>
</svg>
