<!-- Generated by IcoMoon.io -->
<svg version="1.1" xmlns="http://www.w3.org/2000/svg" width="20" height="20" viewBox="0 0 20 20">
<title>codepen</title>
<path d="M18.472 7.188l-8.75-5.833c-0.21-0.14-0.483-0.14-0.693 0l-8.75 5.833c-0.174 0.116-0.278 0.311-0.278 0.52v5.833c0 0.209 0.104 0.404 0.278 0.52l8.75 5.833c0.105 0.070 0.226 0.105 0.347 0.105s0.242-0.035 0.347-0.105l8.75-5.833c0.174-0.116 0.278-0.311 0.278-0.52v-5.833c0-0.209-0.104-0.404-0.278-0.52zM9.375 12.791l-3.248-2.166 3.248-2.166 3.248 2.166-3.248 2.166zM10 7.374v-4.331l6.998 4.666-3.248 2.166-3.75-2.5zM8.75 7.374l-3.75 2.5-3.248-2.166 6.998-4.666v4.331zM3.873 10.625l-2.623 1.749v-3.498l2.623 1.749zM5 11.376l3.75 2.5v4.331l-6.998-4.665 3.248-2.166zM10 13.876l3.75-2.5 3.248 2.166-6.998 4.666v-4.331zM14.877 10.625l2.623-1.749v3.498l-2.623-1.749z"></path>
</svg>
