<!-- Generated by IcoMoon.io -->
<svg version="1.1" xmlns="http://www.w3.org/2000/svg" width="20" height="20" viewBox="0 0 20 20">
<title>coin-euro</title>
<path d="M9.375 1.25c-5.178 0-9.375 4.197-9.375 9.375s4.197 9.375 9.375 9.375c5.178 0 9.375-4.197 9.375-9.375s-4.197-9.375-9.375-9.375zM9.375 18.125c-4.142 0-7.5-3.358-7.5-7.5s3.358-7.5 7.5-7.5c4.142 0 7.5 3.358 7.5 7.5s-3.358 7.5-7.5 7.5z"></path>
<path d="M13.102 12.585c-0.298-0.174-0.681-0.072-0.854 0.226-0.337 0.579-0.959 0.939-1.623 0.939h-2.5c-0.815 0-1.509-0.523-1.768-1.25h3.018c0.345 0 0.625-0.28 0.625-0.625s-0.28-0.625-0.625-0.625h-3.125v-1.25h3.125c0.345 0 0.625-0.28 0.625-0.625s-0.28-0.625-0.625-0.625h-3.018c0.258-0.727 0.953-1.25 1.768-1.25h2.5c0.664 0 1.286 0.36 1.623 0.939 0.174 0.298 0.556 0.4 0.855 0.226s0.4-0.556 0.226-0.855c-0.56-0.963-1.596-1.561-2.703-1.561h-2.5c-1.509 0-2.772 1.075-3.062 2.5h-0.688c-0.345 0-0.625 0.28-0.625 0.625s0.28 0.625 0.625 0.625h0.625v1.25h-0.625c-0.345 0-0.625 0.28-0.625 0.625s0.28 0.625 0.625 0.625h0.688c0.29 1.425 1.553 2.5 3.062 2.5h2.5c1.107 0 2.143-0.598 2.703-1.561 0.174-0.298 0.072-0.681-0.226-0.854z"></path>
</svg>
