<!-- Generated by IcoMoon.io -->
<svg version="1.1" xmlns="http://www.w3.org/2000/svg" width="20" height="20" viewBox="0 0 20 20">
<title>coin-dollar</title>
<path d="M9.375 1.25c-5.178 0-9.375 4.197-9.375 9.375s4.197 9.375 9.375 9.375c5.178 0 9.375-4.197 9.375-9.375s-4.197-9.375-9.375-9.375zM9.375 18.125c-4.142 0-7.5-3.358-7.5-7.5s3.358-7.5 7.5-7.5c4.142 0 7.5 3.358 7.5 7.5s-3.358 7.5-7.5 7.5zM10 10v-2.5h2.5v-1.25h-2.5v-1.25h-1.25v1.25h-2.5v5h2.5v2.5h-2.5v1.25h2.5v1.25h1.25v-1.25h2.5l-0-5h-2.5zM8.75 10h-1.25v-2.5h1.25v2.5zM11.25 13.75h-1.25v-2.5h1.25v2.5z"></path>
</svg>
