<!-- Generated by IcoMoon.io -->
<svg version="1.1" xmlns="http://www.w3.org/2000/svg" width="20" height="20" viewBox="0 0 20 20">
<title>coin-yen</title>
<path d="M9.375 1.25c-5.178 0-9.375 4.197-9.375 9.375s4.197 9.375 9.375 9.375c5.178 0 9.375-4.197 9.375-9.375s-4.197-9.375-9.375-9.375zM9.375 18.125c-4.142 0-7.5-3.358-7.5-7.5s3.358-7.5 7.5-7.5c4.142 0 7.5 3.358 7.5 7.5s-3.358 7.5-7.5 7.5z"></path>
<path d="M11.875 11.25c0.345 0 0.625-0.28 0.625-0.625s-0.28-0.625-0.625-0.625h-1.332l1.852-2.778c0.191-0.287 0.114-0.675-0.173-0.867s-0.675-0.114-0.867 0.173l-1.98 2.97-1.98-2.97c-0.191-0.287-0.58-0.365-0.867-0.173s-0.365 0.58-0.173 0.867l1.852 2.778h-1.332c-0.345 0-0.625 0.28-0.625 0.625s0.28 0.625 0.625 0.625h1.875v1.25h-1.875c-0.345 0-0.625 0.28-0.625 0.625s0.28 0.625 0.625 0.625h1.875v1.875c0 0.345 0.28 0.625 0.625 0.625s0.625-0.28 0.625-0.625v-1.875h1.875c0.345 0 0.625-0.28 0.625-0.625s-0.28-0.625-0.625-0.625h-1.875v-1.25h1.875z"></path>
</svg>
