<!-- Generated by IcoMoon.io -->
<svg version="1.1" xmlns="http://www.w3.org/2000/svg" width="20" height="20" viewBox="0 0 20 20">
<title>coin-pound</title>
<path d="M9.375 1.25c-5.178 0-9.375 4.197-9.375 9.375s4.197 9.375 9.375 9.375c5.178 0 9.375-4.197 9.375-9.375s-4.197-9.375-9.375-9.375zM9.375 18.125c-4.142 0-7.5-3.358-7.5-7.5s3.358-7.5 7.5-7.5c4.142 0 7.5 3.358 7.5 7.5s-3.358 7.5-7.5 7.5z"></path>
<path d="M11.875 13.75h-4.375v-2.5h1.875c0.345 0 0.625-0.28 0.625-0.625s-0.28-0.625-0.625-0.625h-1.875v-0.625c0-1.034 0.841-1.875 1.875-1.875 0.667 0 1.29 0.359 1.625 0.938 0.173 0.299 0.555 0.401 0.854 0.228s0.401-0.555 0.228-0.854c-0.557-0.964-1.594-1.562-2.707-1.562-1.723 0-3.125 1.402-3.125 3.125v0.625h-0.625c-0.345 0-0.625 0.28-0.625 0.625s0.28 0.625 0.625 0.625h0.625v3.75h5.625c0.345 0 0.625-0.28 0.625-0.625s-0.28-0.625-0.625-0.625z"></path>
</svg>
