<!-- Generated by IcoMoon.io -->
<svg version="1.1" xmlns="http://www.w3.org/2000/svg" width="20" height="20" viewBox="0 0 20 20">
<title>command</title>
<path d="M14.375 17.5c-1.723 0-3.125-1.402-3.125-3.125v-1.875h-2.5v1.875c0 1.723-1.402 3.125-3.125 3.125s-3.125-1.402-3.125-3.125 1.402-3.125 3.125-3.125h1.875v-2.5h-1.875c-1.723 0-3.125-1.402-3.125-3.125s1.402-3.125 3.125-3.125 3.125 1.402 3.125 3.125v1.875h2.5v-1.875c0-1.723 1.402-3.125 3.125-3.125s3.125 1.402 3.125 3.125-1.402 3.125-3.125 3.125h-1.875v2.5h1.875c1.723 0 3.125 1.402 3.125 3.125s-1.402 3.125-3.125 3.125zM12.5 12.5v1.875c0 1.034 0.841 1.875 1.875 1.875s1.875-0.841 1.875-1.875-0.841-1.875-1.875-1.875h-1.875zM5.625 12.5c-1.034 0-1.875 0.841-1.875 1.875s0.841 1.875 1.875 1.875 1.875-0.841 1.875-1.875v-1.875h-1.875zM8.75 11.25h2.5v-2.5h-2.5v2.5zM12.5 7.5h1.875c1.034 0 1.875-0.841 1.875-1.875s-0.841-1.875-1.875-1.875-1.875 0.841-1.875 1.875v1.875zM5.625 3.75c-1.034 0-1.875 0.841-1.875 1.875s0.841 1.875 1.875 1.875h1.875v-1.875c0-1.034-0.841-1.875-1.875-1.875z"></path>
</svg>
