<!-- Generated by IcoMoon.io -->
<svg version="1.1" xmlns="http://www.w3.org/2000/svg" width="20" height="20" viewBox="0 0 20 20">
<title>compass2</title>
<path d="M10 0c-5.523 0-10 4.477-10 10s4.477 10 10 10 10-4.477 10-10-4.477-10-10-10zM1.875 10c0-4.487 3.638-8.125 8.125-8.125 2.14 0 4.087 0.828 5.538 2.18l-8.038 3.445-3.445 8.038c-1.352-1.451-2.18-3.398-2.18-5.538zM11.429 11.429l-5.002 2.144 2.144-5.002 2.858 2.858zM10 18.125c-2.14 0-4.087-0.828-5.538-2.18l8.038-3.445 3.445-8.038c1.352 1.451 2.18 3.398 2.18 5.538 0 4.487-3.638 8.125-8.125 8.125z"></path>
</svg>
