<!-- Generated by IcoMoon.io -->
<svg version="1.1" xmlns="http://www.w3.org/2000/svg" width="20" height="20" viewBox="0 0 20 20">
<title>compass</title>
<path d="M10.625 20c-0.045 0-0.090-0.005-0.136-0.015-0.286-0.063-0.49-0.317-0.49-0.61v-9.375h-9.375c-0.293 0-0.547-0.204-0.61-0.49s0.080-0.578 0.346-0.702l18.75-8.75c0.238-0.111 0.52-0.061 0.706 0.124s0.236 0.468 0.124 0.706l-8.75 18.75c-0.104 0.223-0.328 0.361-0.566 0.361zM3.442 8.75h7.183c0.345 0 0.625 0.28 0.625 0.625v7.183l6.832-14.64-14.64 6.832z"></path>
</svg>
