<!-- Generated by IcoMoon.io -->
<svg version="1.1" xmlns="http://www.w3.org/2000/svg" width="20" height="20" viewBox="0 0 20 20">
<title>crying</title>
<path d="M10 20c5.523 0 10-4.477 10-10s-4.477-10-10-10-10 4.477-10 10 4.477 10 10 10zM10 1.875c4.487 0 8.125 3.638 8.125 8.125s-3.638 8.125-8.125 8.125-8.125-3.638-8.125-8.125 3.638-8.125 8.125-8.125z"></path>
<path d="M15.625 7.5h-2.5c-0.345 0-0.625-0.28-0.625-0.625s0.28-0.625 0.625-0.625h2.5c0.345 0 0.625 0.28 0.625 0.625s-0.28 0.625-0.625 0.625z"></path>
<path d="M6.875 7.5h-2.5c-0.345 0-0.625-0.28-0.625-0.625s0.28-0.625 0.625-0.625h2.5c0.345 0 0.625 0.28 0.625 0.625s-0.28 0.625-0.625 0.625z"></path>
<path d="M11.875 16.719c-0.16 0-0.32-0.061-0.442-0.183-0.089-0.089-0.575-0.286-1.433-0.286s-1.344 0.196-1.433 0.286c-0.244 0.244-0.64 0.244-0.884 0s-0.244-0.64 0-0.884c0.588-0.588 1.816-0.652 2.317-0.652s1.729 0.064 2.317 0.652c0.244 0.244 0.244 0.64 0 0.884-0.122 0.122-0.282 0.183-0.442 0.183z"></path>
<path d="M14.375 11.25c-0.345 0-0.625-0.28-0.625-0.625v-1.25c0-0.345 0.28-0.625 0.625-0.625s0.625 0.28 0.625 0.625v1.25c0 0.345-0.28 0.625-0.625 0.625z"></path>
<path d="M14.375 15c-0.345 0-0.625-0.28-0.625-0.625v-1.25c0-0.345 0.28-0.625 0.625-0.625s0.625 0.28 0.625 0.625v1.25c0 0.345-0.28 0.625-0.625 0.625z"></path>
<path d="M5.625 11.25c-0.345 0-0.625-0.28-0.625-0.625v-1.25c0-0.345 0.28-0.625 0.625-0.625s0.625 0.28 0.625 0.625v1.25c0 0.345-0.28 0.625-0.625 0.625z"></path>
<path d="M5.625 15c-0.345 0-0.625-0.28-0.625-0.625v-1.25c0-0.345 0.28-0.625 0.625-0.625s0.625 0.28 0.625 0.625v1.25c0 0.345-0.28 0.625-0.625 0.625z"></path>
</svg>
