<!-- Generated by IcoMoon.io -->
<svg version="1.1" xmlns="http://www.w3.org/2000/svg" width="20" height="20" viewBox="0 0 20 20">
<title>database</title>
<path d="M10 0c-5.523 0-10 1.399-10 3.125v2.5c0 1.726 4.477 3.125 10 3.125s10-1.399 10-3.125v-2.5c0-1.726-4.477-3.125-10-3.125z"></path>
<path d="M10 10.625c-5.523 0-10-1.399-10-3.125v3.75c0 1.726 4.477 3.125 10 3.125s10-1.399 10-3.125v-3.75c0 1.726-4.477 3.125-10 3.125z"></path>
<path d="M10 16.25c-5.523 0-10-1.399-10-3.125v3.75c0 1.726 4.477 3.125 10 3.125s10-1.399 10-3.125v-3.75c0 1.726-4.477 3.125-10 3.125z"></path>
</svg>
