<!-- Generated by IcoMoon.io -->
<svg version="1.1" xmlns="http://www.w3.org/2000/svg" width="20" height="20" viewBox="0 0 20 20">
<title>drawer</title>
<path d="M19.863 12.735l-5-6.25c-0.119-0.148-0.298-0.235-0.488-0.235h-8.75c-0.19 0-0.369 0.086-0.488 0.235l-5 6.25c-0.089 0.111-0.137 0.249-0.137 0.39v5.625c0 0.69 0.56 1.25 1.25 1.25h17.5c0.69 0 1.25-0.56 1.25-1.25v-5.625c0-0.142-0.048-0.28-0.137-0.39zM18.75 13.75h-4.375l-2.5 2.5h-3.75l-2.5-2.5h-4.375v-0.406l4.675-5.844h8.149l4.675 5.844v0.406z"></path>
<path d="M14.375 10h-8.75c-0.345 0-0.625-0.28-0.625-0.625s0.28-0.625 0.625-0.625h8.75c0.345 0 0.625 0.28 0.625 0.625s-0.28 0.625-0.625 0.625z"></path>
<path d="M15.625 12.5h-11.25c-0.345 0-0.625-0.28-0.625-0.625s0.28-0.625 0.625-0.625h11.25c0.345 0 0.625 0.28 0.625 0.625s-0.28 0.625-0.625 0.625z"></path>
</svg>
