<!-- Generated by IcoMoon.io -->
<svg version="1.1" xmlns="http://www.w3.org/2000/svg" width="20" height="20" viewBox="0 0 20 20">
<title>dribbble</title>
<path d="M10 20c-5.516 0-10-4.484-10-10s4.484-10 10-10c5.516 0 10 4.484 10 10s-4.484 10-10 10v0zM18.434 11.367c-0.293-0.094-2.645-0.793-5.32-0.363 1.117 3.070 1.57 5.57 1.66 6.090 1.914-1.297 3.281-3.348 3.66-5.727v0zM13.336 17.875c-0.129-0.75-0.621-3.359-1.82-6.477-0.020 0.008-0.039 0.012-0.055 0.020-4.82 1.68-6.551 5.020-6.703 5.332 1.449 1.129 3.27 1.805 5.242 1.805 1.184 0 2.313-0.242 3.336-0.68v0zM3.652 15.723c0.195-0.332 2.539-4.211 6.941-5.637 0.109-0.035 0.223-0.070 0.336-0.102-0.215-0.484-0.449-0.973-0.691-1.449-4.262 1.277-8.402 1.223-8.777 1.219-0.004 0.086-0.004 0.172-0.004 0.262 0 2.191 0.832 4.195 2.195 5.707v0zM1.641 8.262c0.383 0.004 3.902 0.020 7.898-1.039-1.414-2.516-2.941-4.633-3.168-4.941-2.391 1.129-4.18 3.332-4.73 5.98v0zM8 1.707c0.234 0.316 1.789 2.43 3.188 5 3.039-1.137 4.324-2.867 4.477-3.086-1.508-1.34-3.492-2.152-5.664-2.152-0.688 0.004-1.359 0.086-2 0.238v0zM16.613 4.613c-0.18 0.242-1.613 2.078-4.77 3.367 0.199 0.406 0.391 0.82 0.566 1.238 0.063 0.148 0.125 0.293 0.184 0.441 2.844-0.355 5.668 0.215 5.949 0.273-0.020-2.016-0.742-3.867-1.93-5.32v0z"></path>
</svg>
