<!-- Generated by IcoMoon.io -->
<svg version="1.1" xmlns="http://www.w3.org/2000/svg" width="20" height="20" viewBox="0 0 20 20">
<title>droplet</title>
<path d="M16.887 9.241c-1.284-3.583-4.006-6.8-6.887-9.241-2.881 2.442-5.603 5.659-6.887 9.241-0.794 2.216-0.873 4.62 0.246 6.746 1.286 2.444 3.88 4.012 6.641 4.012s5.355-1.568 6.641-4.012c1.119-2.126 1.040-4.531 0.246-6.746zM14.429 14.823c-0.856 1.626-2.594 2.677-4.429 2.677-1.077 0-2.12-0.362-2.971-0.989 0.259 0.034 0.52 0.052 0.783 0.052 2.293 0 4.466-1.313 5.535-3.345 0.877-1.666 0.8-3.395 0.466-4.772 0.284 0.55 0.526 1.098 0.72 1.639 0.442 1.232 0.782 3.054-0.105 4.738z"></path>
</svg>
