<!-- Generated by IcoMoon.io -->
<svg version="1.1" xmlns="http://www.w3.org/2000/svg" width="20" height="20" viewBox="0 0 20 20">
<title>earth</title>
<path d="M10 0c-5.523 0-10 4.477-10 10s4.477 10 10 10 10-4.477 10-10-4.477-10-10-10zM10 18.75c-1.23 0-2.4-0.254-3.462-0.712l4.554-5.123c0.102-0.114 0.158-0.262 0.158-0.415v-1.875c0-0.345-0.28-0.625-0.625-0.625-2.207 0-4.535-2.294-4.558-2.317-0.117-0.117-0.276-0.183-0.442-0.183h-2.5c-0.345 0-0.625 0.28-0.625 0.625v3.75c0 0.237 0.134 0.453 0.346 0.559l2.154 1.077v3.67c-2.267-1.581-3.75-4.208-3.75-7.181 0-1.342 0.303-2.613 0.843-3.75h2.282c0.166 0 0.325-0.066 0.442-0.183l2.5-2.5c0.117-0.117 0.183-0.276 0.183-0.442v-1.512c0.792-0.236 1.631-0.363 2.5-0.363 1.375 0 2.676 0.318 3.834 0.883-0.081 0.068-0.16 0.14-0.235 0.216-0.708 0.708-1.098 1.65-1.098 2.652s0.39 1.943 1.098 2.652c0.712 0.712 1.664 1.099 2.649 1.099 0.062 0 0.124-0.002 0.186-0.005 0.27 1.012 0.757 3.646-0.164 7.272-0.009 0.034-0.014 0.068-0.016 0.102-1.588 1.623-3.803 2.63-6.253 2.63z"></path>
</svg>
