<!-- Generated by IcoMoon.io -->
<svg version="1.1" xmlns="http://www.w3.org/2000/svg" width="20" height="20" viewBox="0 0 20 20">
<title>edge</title>
<path d="M0.301 8.879c0.586-4.625 3.742-8.82 9.398-8.879 3.414 0.066 6.223 1.613 7.895 4.563 0.84 1.539 1.102 3.156 1.156 4.941v2.098h-12.551c0.059 5.176 7.617 5 10.871 2.719v4.215c-1.906 1.145-6.23 2.168-9.578 0.852-2.852-1.070-4.883-4.055-4.871-6.926-0.094-3.723 1.852-6.188 4.871-7.59-0.641 0.793-1.129 1.668-1.383 3.184h7.086c0 0 0.414-4.234-4.012-4.234-4.172 0.145-7.18 2.57-8.883 5.059v0z"></path>
</svg>
