<!-- Generated by IcoMoon.io -->
<svg version="1.1" xmlns="http://www.w3.org/2000/svg" width="20" height="20" viewBox="0 0 20 20">
<title>ello</title>
<path d="M10 0c-5.523 0-10 4.477-10 10s4.477 10 10 10 10-4.477 10-10-4.477-10-10-10zM16.106 11.516c-0.719 2.787-3.23 4.734-6.106 4.734s-5.388-1.947-6.107-4.735c-0.122-0.472 0.163-0.955 0.635-1.077 0.072-0.019 0.147-0.028 0.221-0.028 0.403 0 0.754 0.273 0.855 0.664 0.518 2.007 2.325 3.408 4.395 3.408s3.877-1.402 4.395-3.408c0.101-0.391 0.452-0.664 0.855-0.664 0.075 0 0.149 0.010 0.222 0.028 0.228 0.059 0.42 0.203 0.54 0.407s0.153 0.441 0.094 0.67z"></path>
</svg>
