<!-- Generated by IcoMoon.io -->
<svg version="1.1" xmlns="http://www.w3.org/2000/svg" width="20" height="20" viewBox="0 0 20 20">
<title>eye-plus</title>
<path d="M20 2.5h-2.5v-2.5h-2.5v2.5h-2.5v2.5h2.5v2.5h2.5v-2.5h2.5z"></path>
<path d="M16.872 8.711c0.36 0.4 0.687 0.831 0.977 1.289-0.748 1.182-1.744 2.186-2.919 2.935-1.476 0.942-3.181 1.44-4.931 1.44s-3.454-0.498-4.931-1.44c-1.175-0.749-2.171-1.753-2.919-2.935 0.748-1.182 1.744-2.186 2.919-2.935 0.077-0.049 0.154-0.096 0.232-0.143-0.195 0.534-0.301 1.11-0.301 1.711 0 2.761 2.239 5 5 5s5-2.239 5-5c0-0.014-0-0.027-0-0.040-2.134-0.55-3.717-2.473-3.749-4.772-0.411-0.046-0.828-0.071-1.251-0.071-4.362 0-8.142 2.54-10 6.25 1.858 3.71 5.638 6.25 10 6.25s8.142-2.54 10-6.25c-0.345-0.688-0.755-1.336-1.224-1.935-0.572 0.336-1.216 0.561-1.904 0.646zM8.125 6.25c1.036 0 1.875 0.839 1.875 1.875s-0.839 1.875-1.875 1.875-1.875-0.839-1.875-1.875 0.839-1.875 1.875-1.875z"></path>
</svg>
