<!-- Generated by IcoMoon.io -->
<svg version="1.1" xmlns="http://www.w3.org/2000/svg" width="20" height="20" viewBox="0 0 20 20">
<title>eye-minus</title>
<path d="M12.5 2.5h7.5v2.5h-7.5v-2.5z"></path>
<path d="M16.998 6.25h-5.748v-2.429c-0.41-0.046-0.827-0.071-1.25-0.071-4.362 0-8.142 2.54-10 6.25 1.858 3.71 5.638 6.25 10 6.25s8.142-2.54 10-6.25c-0.73-1.459-1.758-2.736-3.002-3.75zM8.125 6.25c1.036 0 1.875 0.839 1.875 1.875s-0.839 1.875-1.875 1.875-1.875-0.839-1.875-1.875 0.839-1.875 1.875-1.875zM14.931 12.935c-1.476 0.942-3.181 1.44-4.931 1.44s-3.454-0.498-4.931-1.44c-1.175-0.749-2.171-1.753-2.919-2.935 0.748-1.182 1.744-2.186 2.919-2.935 0.077-0.049 0.154-0.096 0.232-0.143-0.195 0.534-0.301 1.11-0.301 1.711 0 2.761 2.239 5 5 5s5-2.239 5-5c0-0.601-0.107-1.177-0.301-1.711 0.078 0.046 0.155 0.094 0.232 0.143 1.175 0.749 2.171 1.753 2.919 2.935-0.748 1.182-1.744 2.186-2.919 2.935z"></path>
</svg>
