<!-- Generated by IcoMoon.io -->
<svg version="1.1" xmlns="http://www.w3.org/2000/svg" width="20" height="20" viewBox="0 0 20 20">
<title>eye-blocked</title>
<path d="M18.475 0.275c-0.366-0.366-0.96-0.366-1.326 0l-3.949 3.949c-1.014-0.308-2.089-0.473-3.201-0.473-4.362 0-8.142 2.54-10 6.25 0.803 1.604 1.966 2.989 3.379 4.045l-3.105 3.105c-0.366 0.366-0.366 0.96 0 1.326 0.183 0.183 0.423 0.275 0.663 0.275s0.48-0.092 0.663-0.275l16.875-16.875c0.366-0.366 0.366-0.96 0-1.326zM8.125 6.25c0.825 0 1.525 0.533 1.776 1.273l-2.377 2.377c-0.74-0.251-1.273-0.951-1.273-1.776 0-1.036 0.839-1.875 1.875-1.875zM2.151 10c0.748-1.182 1.744-2.186 2.919-2.935 0.077-0.049 0.154-0.096 0.232-0.143-0.195 0.534-0.301 1.11-0.301 1.711 0 1.072 0.338 2.065 0.912 2.879l-1.19 1.19c-1.024-0.72-1.898-1.638-2.571-2.702z"></path>
<path d="M15 8.633c0-0.531-0.083-1.042-0.236-1.521l-6.285 6.285c0.48 0.153 0.991 0.236 1.522 0.236 2.761 0 5-2.239 5-5z"></path>
<path d="M16.211 5.664l-1.355 1.355c0.025 0.015 0.049 0.031 0.074 0.046 1.175 0.749 2.171 1.753 2.919 2.935-0.748 1.182-1.744 2.186-2.919 2.935-1.476 0.942-3.181 1.44-4.931 1.44-0.755 0-1.502-0.093-2.226-0.274l-1.502 1.502c1.166 0.419 2.421 0.647 3.728 0.647 4.362 0 8.142-2.54 10-6.25-0.879-1.756-2.19-3.25-3.789-4.336z"></path>
</svg>
