<!-- Generated by IcoMoon.io -->
<svg version="1.1" xmlns="http://www.w3.org/2000/svg" width="20" height="20" viewBox="0 0 20 20">
<title>eyedropper</title>
<path d="M19.268 0.732c-0.976-0.976-2.559-0.976-3.536 0l-3.362 3.362-2.371-2.371-2.652 2.652 2.079 2.079-9.221 9.221c-0.157 0.157-0.224 0.37-0.201 0.575h-0.005v3.125c0 0.345 0.28 0.625 0.625 0.625h3.125c0 0 0.052 0 0.078 0 0.18 0 0.36-0.069 0.497-0.206l9.221-9.221 2.079 2.079 2.652-2.652-2.371-2.371 3.362-3.362c0.976-0.976 0.976-2.559 0-3.536zM3.381 18.75h-2.131v-2.131l9.171-9.171 2.131 2.131-9.171 9.171z"></path>
</svg>
