<!-- Generated by IcoMoon.io -->
<svg version="1.1" xmlns="http://www.w3.org/2000/svg" width="20" height="20" viewBox="0 0 20 20">
<title>feed</title>
<path d="M7.5 10c0-1.381 1.119-2.5 2.5-2.5s2.5 1.119 2.5 2.5c0 1.381-1.119 2.5-2.5 2.5s-2.5-1.119-2.5-2.5zM12.976 4.502c1.95 1.058 3.274 3.123 3.274 5.498s-1.324 4.44-3.274 5.498c0.861-1.37 1.399-3.326 1.399-5.498s-0.539-4.128-1.399-5.498zM5.625 10c0 2.172 0.539 4.128 1.399 5.498-1.95-1.058-3.274-3.123-3.274-5.498s1.324-4.44 3.274-5.498c-0.861 1.37-1.399 3.326-1.399 5.498zM1.875 10c0 3.357 1.063 6.371 2.747 8.432-2.779-1.776-4.622-4.889-4.622-8.432s1.843-6.656 4.622-8.432c-1.685 2.061-2.747 5.075-2.747 8.432zM15.378 1.568c2.779 1.776 4.622 4.889 4.622 8.432s-1.843 6.656-4.622 8.432c1.684-2.061 2.747-5.075 2.747-8.432s-1.063-6.371-2.747-8.432z"></path>
</svg>
