<!-- Generated by IcoMoon.io -->
<svg version="1.1" xmlns="http://www.w3.org/2000/svg" width="20" height="20" viewBox="0 0 20 20">
<title>file-music</title>
<path d="M17.926 4.474c-0.434-0.592-1.039-1.283-1.703-1.947s-1.356-1.269-1.947-1.703c-1.007-0.739-1.496-0.824-1.776-0.824h-9.688c-0.862 0-1.563 0.701-1.563 1.563v16.875c0 0.862 0.701 1.563 1.563 1.563h14.375c0.862 0 1.563-0.701 1.563-1.563v-12.188c0-0.28-0.085-0.769-0.824-1.776v0zM15.339 3.411c0.6 0.6 1.070 1.141 1.418 1.589h-3.007v-3.007c0.449 0.347 0.99 0.818 1.589 1.417v0zM17.5 18.438c0 0.169-0.143 0.313-0.313 0.313h-14.375c-0.169 0-0.313-0.143-0.313-0.313v-16.875c0-0.169 0.143-0.313 0.313-0.313 0 0 9.687-0 9.688 0v4.375c0 0.345 0.28 0.625 0.625 0.625h4.375v12.188z"></path>
<path d="M14.771 7.642c-0.145-0.119-0.335-0.166-0.519-0.13l-6.25 1.25c-0.292 0.058-0.502 0.315-0.502 0.613v4.626c-0.368-0.16-0.794-0.251-1.25-0.251-1.381 0-2.5 0.839-2.5 1.875s1.119 1.875 2.5 1.875 2.5-0.839 2.5-1.875v-4.488l5-1v2.614c-0.368-0.16-0.794-0.251-1.25-0.251-1.381 0-2.5 0.839-2.5 1.875s1.119 1.875 2.5 1.875 2.5-0.839 2.5-1.875v-6.25c0-0.187-0.084-0.365-0.229-0.483z"></path>
</svg>
