<!-- Generated by IcoMoon.io -->
<svg version="1.1" xmlns="http://www.w3.org/2000/svg" width="20" height="20" viewBox="0 0 20 20">
<title>files-empty</title>
<path d="M17.926 6.974c-0.434-0.592-1.039-1.283-1.703-1.947s-1.356-1.269-1.947-1.703c-1.007-0.739-1.496-0.824-1.776-0.824h-7.188c-0.862 0-1.562 0.701-1.562 1.563v14.375c0 0.862 0.701 1.563 1.562 1.563h11.875c0.862 0 1.563-0.701 1.563-1.563v-9.688c0-0.28-0.085-0.769-0.824-1.776zM15.339 5.911c0.6 0.6 1.070 1.141 1.418 1.589h-3.007v-3.007c0.449 0.347 0.99 0.818 1.589 1.417v0zM17.5 18.438c0 0.169-0.143 0.313-0.313 0.313h-11.875c-0.169 0-0.313-0.143-0.313-0.313v-14.375c0-0.169 0.143-0.313 0.313-0.313 0 0 7.187-0 7.188 0v4.375c0 0.345 0.28 0.625 0.625 0.625h4.375v9.688z"></path>
<path d="M11.776 0.824c-1.007-0.739-1.496-0.824-1.776-0.824h-7.188c-0.862 0-1.563 0.701-1.563 1.563v14.375c0 0.755 0.538 1.386 1.25 1.531v-15.906c0-0.169 0.143-0.313 0.313-0.313h9.509c-0.188-0.155-0.372-0.298-0.546-0.426z"></path>
</svg>
