<!-- Generated by IcoMoon.io -->
<svg version="1.1" xmlns="http://www.w3.org/2000/svg" width="20" height="20" viewBox="0 0 20 20">
<title>file-pdf</title>
<path d="M16.446 11.513c-0.267-0.263-0.858-0.402-1.757-0.414-0.609-0.007-1.342 0.047-2.113 0.155-0.345-0.199-0.701-0.416-0.98-0.677-0.751-0.701-1.378-1.675-1.769-2.746 0.025-0.1 0.047-0.188 0.067-0.278 0 0 0.423-2.404 0.311-3.216-0.015-0.111-0.025-0.144-0.055-0.23l-0.037-0.094c-0.115-0.265-0.341-0.547-0.695-0.531l-0.213-0.007c-0.395 0-0.716 0.202-0.801 0.503-0.257 0.946 0.008 2.361 0.488 4.194l-0.123 0.299c-0.344 0.837-0.774 1.681-1.154 2.425l-0.049 0.097c-0.4 0.782-0.762 1.446-1.091 2.008l-0.339 0.179c-0.025 0.013-0.606 0.321-0.743 0.403-1.157 0.691-1.924 1.475-2.052 2.098-0.040 0.199-0.010 0.453 0.196 0.571l0.328 0.165c0.142 0.071 0.293 0.107 0.446 0.107 0.824 0 1.781-1.027 3.1-3.327 1.522-0.496 3.255-0.907 4.774-1.135 1.157 0.652 2.581 1.104 3.479 1.104 0.16 0 0.297-0.015 0.409-0.045 0.172-0.046 0.318-0.144 0.406-0.277 0.174-0.262 0.21-0.624 0.162-0.994-0.014-0.11-0.102-0.246-0.197-0.338zM4.134 15.899c0.15-0.411 0.745-1.224 1.625-1.944 0.055-0.045 0.192-0.173 0.316-0.291-0.92 1.467-1.536 2.052-1.941 2.236zM9.344 3.9c0.265 0 0.416 0.668 0.428 1.294s-0.134 1.066-0.316 1.391c-0.15-0.481-0.223-1.24-0.223-1.736 0 0-0.011-0.948 0.111-0.948v0zM7.79 12.451c0.185-0.33 0.377-0.679 0.573-1.048 0.478-0.905 0.78-1.612 1.005-2.194 0.447 0.814 1.005 1.506 1.66 2.061 0.082 0.069 0.168 0.139 0.259 0.208-1.332 0.264-2.484 0.584-3.497 0.974v0zM16.189 12.376c-0.081 0.051-0.314 0.080-0.463 0.080-0.483 0-1.080-0.221-1.917-0.579 0.322-0.024 0.616-0.036 0.881-0.036 0.484 0 0.627-0.002 1.101 0.119s0.479 0.366 0.398 0.417v0z"></path>
<path d="M17.926 4.474c-0.434-0.592-1.039-1.283-1.703-1.947s-1.356-1.269-1.947-1.703c-1.007-0.739-1.496-0.824-1.776-0.824h-9.688c-0.862 0-1.563 0.701-1.563 1.563v16.875c0 0.862 0.701 1.563 1.563 1.563h14.375c0.862 0 1.563-0.701 1.563-1.563v-12.188c0-0.28-0.085-0.769-0.824-1.776v0zM15.339 3.411c0.6 0.6 1.070 1.141 1.418 1.589h-3.007v-3.007c0.449 0.347 0.99 0.818 1.589 1.417v0zM17.5 18.438c0 0.169-0.143 0.313-0.313 0.313h-14.375c-0.169 0-0.313-0.143-0.313-0.313v-16.875c0-0.169 0.143-0.313 0.313-0.313 0 0 9.687-0 9.688 0v4.375c0 0.345 0.28 0.625 0.625 0.625h4.375v12.188z"></path>
</svg>
