<!-- Generated by IcoMoon.io -->
<svg version="1.1" xmlns="http://www.w3.org/2000/svg" width="20" height="20" viewBox="0 0 20 20">
<title>file-zip</title>
<path d="M17.926 4.474c-0.434-0.592-1.039-1.283-1.703-1.947s-1.356-1.269-1.947-1.703c-1.007-0.739-1.496-0.824-1.776-0.824h-9.688c-0.862 0-1.563 0.701-1.563 1.563v16.875c0 0.862 0.701 1.563 1.563 1.563h14.375c0.862 0 1.563-0.701 1.563-1.563v-12.188c0-0.28-0.085-0.769-0.824-1.776v0 0zM15.339 3.411c0.6 0.6 1.070 1.141 1.418 1.589h-3.007v-3.007c0.449 0.347 0.99 0.818 1.589 1.417v0 0zM17.5 18.438c0 0.169-0.143 0.313-0.313 0.313h-14.375c-0.169 0-0.313-0.143-0.313-0.313v-16.875c0-0.169 0.143-0.313 0.313-0.313 0 0 9.687-0 9.688 0v4.375c0 0.345 0.28 0.625 0.625 0.625h4.375v12.188z"></path>
<path d="M5 1.25h2.5v1.25h-2.5v-1.25z"></path>
<path d="M7.5 2.5h2.5v1.25h-2.5v-1.25z"></path>
<path d="M5 3.75h2.5v1.25h-2.5v-1.25z"></path>
<path d="M7.5 5h2.5v1.25h-2.5v-1.25z"></path>
<path d="M5 6.25h2.5v1.25h-2.5v-1.25z"></path>
<path d="M7.5 7.5h2.5v1.25h-2.5v-1.25z"></path>
<path d="M5 8.75h2.5v1.25h-2.5v-1.25z"></path>
<path d="M7.5 10h2.5v1.25h-2.5v-1.25z"></path>
<path d="M5 16.563c0 0.516 0.422 0.938 0.938 0.938h3.125c0.516 0 0.938-0.422 0.938-0.938v-3.125c0-0.516-0.422-0.938-0.938-0.938h-1.563v-1.25h-2.5v5.313zM8.75 15v1.25h-2.5v-1.25h2.5z"></path>
</svg>
