<!-- Generated by IcoMoon.io -->
<svg version="1.1" xmlns="http://www.w3.org/2000/svg" width="20" height="20" viewBox="0 0 20 20">
<title>file-openoffice</title>
<path d="M13.481 9.213c-1.185-0.56-2.695-0.672-3.805 0.118 1.35-0.129 2.831 0.094 3.811 1.116 0.938-1.076 2.424-1.277 3.769-1.167-1.123-0.745-2.602-0.645-3.774-0.067v0zM13.001 11.831c-1.335-0.031-2.626 0.453-3.732 1.174-2.093-0.89-4.741-0.725-6.523 0.761 0.514-0.018 1.016-0.145 1.525-0.211 1.859-0.185 3.84 0.276 5.244 1.559 0.581-0.85 1.399-1.528 2.337-1.952 1.232-0.596 2.62-0.658 3.961-0.674-0.814-0.56-1.848-0.663-2.811-0.658z"></path>
<path d="M17.926 4.474c-0.434-0.592-1.039-1.283-1.703-1.947s-1.356-1.269-1.947-1.703c-1.007-0.739-1.496-0.824-1.776-0.824h-9.688c-0.862 0-1.563 0.701-1.563 1.563v16.875c0 0.862 0.701 1.563 1.563 1.563h14.375c0.862 0 1.563-0.701 1.563-1.563v-12.188c0-0.28-0.085-0.769-0.824-1.776v0zM15.339 3.411c0.6 0.6 1.070 1.141 1.418 1.589h-3.007v-3.007c0.449 0.347 0.99 0.818 1.589 1.417v0zM17.5 18.438c0 0.169-0.143 0.313-0.313 0.313h-14.375c-0.169 0-0.313-0.143-0.313-0.313v-16.875c0-0.169 0.143-0.313 0.313-0.313 0 0 9.687-0 9.688 0v4.375c0 0.345 0.28 0.625 0.625 0.625h4.375v12.188z"></path>
</svg>
