<!-- Generated by IcoMoon.io -->
<svg version="1.1" xmlns="http://www.w3.org/2000/svg" width="20" height="20" viewBox="0 0 20 20">
<title>finder</title>
<path d="M11.118 15.2c-0-0.001-0-0.002-0-0.003 0 0.001 0 0.002 0 0.003z"></path>
<path d="M11.144 15.909c-0-0.005-0-0.009-0.001-0.014 0 0.005 0 0.009 0.001 0.014z"></path>
<path d="M11.129 15.553c-0-0.003-0-0.007-0-0.010 0 0.004 0 0.007 0 0.010z"></path>
<path d="M18.75 0h-17.5c-0.688 0-1.25 0.563-1.25 1.25v17.5c0 0.688 0.563 1.25 1.25 1.25h9.645c0.001 0 0.002 0 0.003 0s0.002-0 0.002-0h7.85c0.688 0 1.25-0.563 1.25-1.25v-17.5c0-0.688-0.563-1.25-1.25-1.25zM3.75 4.375c0-0.345 0.28-0.625 0.625-0.625s0.625 0.28 0.625 0.625v1.25c0 0.345-0.28 0.625-0.625 0.625s-0.625-0.28-0.625-0.625v-1.25zM18.75 18.75h-7.325c-0.131-0.822-0.213-1.669-0.261-2.492 0 0.002 0 0.004 0 0.007-0.385 0.042-0.773 0.064-1.164 0.064-2.61 0-5.125-0.95-7.080-2.676-0.291-0.257-0.319-0.701-0.062-0.992s0.701-0.319 0.992-0.062c1.698 1.499 3.882 2.324 6.149 2.324 0.373 0 0.743-0.023 1.11-0.067-0.043-2.308 0.134-4.139 0.137-4.168 0.018-0.176-0.040-0.351-0.159-0.482s-0.287-0.206-0.463-0.206h-1.859c0.027-0.676 0.099-1.832 0.292-3.129 0.368-2.476 1.016-4.41 1.878-5.621h7.814v17.5z"></path>
<path d="M15.625 6.25c-0.345 0-0.625-0.28-0.625-0.625v-1.25c0-0.345 0.28-0.625 0.625-0.625s0.625 0.28 0.625 0.625v1.25c0 0.345-0.28 0.625-0.625 0.625z"></path>
<path d="M10.557 16.313c-0.071 0.004-0.143 0.007-0.214 0.009 0.071-0.002 0.143-0.005 0.214-0.009z"></path>
<path d="M10 16.328c0.092 0 0.183-0.001 0.274-0.004-0.091 0.002-0.183 0.004-0.274 0.004z"></path>
<path d="M10.529 14.906c0.015-0.001 0.031-0.002 0.046-0.003-0.015 0.001-0.031 0.002-0.046 0.003z"></path>
<path d="M10.256 14.918c0.021-0.001 0.042-0.001 0.063-0.002-0.021 0.001-0.042 0.002-0.063 0.002z"></path>
<path d="M17.142 12.66c-0.257-0.291-0.701-0.319-0.992-0.062-1.419 1.252-3.177 2.034-5.039 2.257 0.008 0.455 0.025 0.928 0.054 1.409 2.187-0.238 4.254-1.145 5.916-2.612 0.291-0.257 0.319-0.701 0.062-0.992z"></path>
<path d="M11.162 16.265c-0.090 0.010-0.18 0.018-0.27 0.026 0.090-0.008 0.181-0.016 0.27-0.026z"></path>
<path d="M10.849 16.294c-0.076 0.006-0.153 0.011-0.229 0.016 0.077-0.004 0.153-0.010 0.229-0.016z"></path>
</svg>
