<!-- Generated by IcoMoon.io -->
<svg version="1.1" xmlns="http://www.w3.org/2000/svg" width="20" height="20" viewBox="0 0 20 20">
<title>flag</title>
<path d="M0 0h2.5v20h-2.5v-20z"></path>
<path d="M16.25 12.559c1.614 0 3.019-0.39 3.75-0.967v-10c-0.731 0.577-2.136 0.967-3.75 0.967s-3.019-0.39-3.75-0.967v10c0.731 0.576 2.136 0.967 3.75 0.967z"></path>
<path d="M11.875 0.635c-0.916-0.389-2.256-0.635-3.75-0.635-1.883 0-3.522 0.39-4.375 0.967v10c0.853-0.577 2.492-0.967 4.375-0.967 1.494 0 2.834 0.246 3.75 0.635v-10z"></path>
</svg>
