<!-- Generated by IcoMoon.io -->
<svg version="1.1" xmlns="http://www.w3.org/2000/svg" width="20" height="20" viewBox="0 0 20 20">
<title>flickr3</title>
<path d="M18.125 0h-16.25c-1.031 0-1.875 0.844-1.875 1.875v16.25c0 1.031 0.844 1.875 1.875 1.875h16.25c1.031 0 1.875-0.844 1.875-1.875v-16.25c0-1.031-0.844-1.875-1.875-1.875zM5.625 13.125c-1.727 0-3.125-1.398-3.125-3.125s1.398-3.125 3.125-3.125 3.125 1.398 3.125 3.125-1.398 3.125-3.125 3.125zM14.375 13.125c-1.727 0-3.125-1.398-3.125-3.125s1.398-3.125 3.125-3.125c1.727 0 3.125 1.398 3.125 3.125s-1.398 3.125-3.125 3.125z"></path>
</svg>
