<!-- Generated by IcoMoon.io -->
<svg version="1.1" xmlns="http://www.w3.org/2000/svg" width="20" height="20" viewBox="0 0 20 20">
<title>flickr4</title>
<path d="M10 0c-5.523 0-10 4.508-10 10.068s4.477 10.068 10 10.068 10-4.508 10-10.068-4.477-10.068-10-10.068zM5.625 13.125c-1.726 0-3.125-1.399-3.125-3.125s1.399-3.125 3.125-3.125 3.125 1.399 3.125 3.125c0 1.726-1.399 3.125-3.125 3.125zM14.375 13.125c-1.726 0-3.125-1.399-3.125-3.125s1.399-3.125 3.125-3.125 3.125 1.399 3.125 3.125c0 1.726-1.399 3.125-3.125 3.125z"></path>
</svg>
