<!-- Generated by IcoMoon.io -->
<svg version="1.1" xmlns="http://www.w3.org/2000/svg" width="20" height="20" viewBox="0 0 20 20">
<title>flickr2</title>
<path d="M15.625 8.125c-1.379 0-2.5 1.121-2.5 2.5s1.121 2.5 2.5 2.5c1.379 0 2.5-1.121 2.5-2.5s-1.121-2.5-2.5-2.5zM15.625 6.25v0c2.416 0 4.375 1.959 4.375 4.375s-1.959 4.375-4.375 4.375-4.375-1.959-4.375-4.375c0-2.416 1.959-4.375 4.375-4.375zM0 10.625c0-2.416 1.959-4.375 4.375-4.375s4.375 1.959 4.375 4.375c0 2.416-1.959 4.375-4.375 4.375s-4.375-1.959-4.375-4.375z"></path>
</svg>
