<!-- Generated by IcoMoon.io -->
<svg version="1.1" xmlns="http://www.w3.org/2000/svg" width="20" height="20" viewBox="0 0 20 20">
<title>font</title>
<path d="M15.617 0.317c-1.768 0-2.903-0.317-4.724-0.317-5.884 0-8.629 3.351-8.629 6.755 0 2.005 0.95 2.665 2.824 2.665-0.132-0.29-0.369-0.607-0.369-2.032 0-3.985 1.504-5.146 3.43-5.225 0 0-1.58 15.496-6.168 17.354v0.482h6.183l2.11-10h3.864l0.861-2.5h-4.197l1.015-4.808c1.161 0.237 2.296 0.475 3.272 0.475 1.214 0 2.322-0.369 2.929-3.167-0.739 0.237-1.531 0.317-2.401 0.317z"></path>
</svg>
