<!-- Generated by IcoMoon.io -->
<svg version="1.1" xmlns="http://www.w3.org/2000/svg" width="20" height="20" viewBox="0 0 20 20">
<title>foursquare</title>
<path d="M16.632 1.76c-0.236-0.32-0.609-0.51-1.007-0.51h-11.875c-0.69 0-1.25 0.56-1.25 1.25v15c0 0.506 0.305 0.961 0.772 1.155 0.155 0.064 0.317 0.095 0.478 0.095 0.325 0 0.645-0.127 0.884-0.366l4.634-4.634h3.232c0.547 0 1.030-0.355 1.193-0.877l3.125-10c0.119-0.38 0.050-0.793-0.186-1.113zM13.144 6.25h-4.394c-0.69 0-1.25 0.56-1.25 1.25s0.56 1.25 1.25 1.25h3.612l-0.781 2.5h-2.831c-0.332 0-0.649 0.132-0.884 0.366l-2.866 2.866v-10.732h8.925l-0.781 2.5z"></path>
</svg>
