<!-- Generated by IcoMoon.io -->
<svg version="1.1" xmlns="http://www.w3.org/2000/svg" width="20" height="20" viewBox="0 0 20 20">
<title>frustrated</title>
<path d="M7.155 5.535c-0.679-0.339-1.35-0.509-1.378-0.516-0.335-0.084-0.674 0.12-0.758 0.455s0.12 0.674 0.455 0.758c0.344 0.087 0.752 0.237 1.112 0.417-0.208 0.223-0.335 0.522-0.335 0.852 0 0.69 0.56 1.25 1.25 1.25s1.25-0.56 1.25-1.25c0-0.023-0.001-0.046-0.002-0.068-0.040-0.927-0.883-1.542-1.594-1.897z"></path>
<path d="M10 0c-5.523 0-10 4.477-10 10s4.477 10 10 10 10-4.477 10-10-4.477-10-10-10zM4.619 16.087c0.209 0.104 0.444 0.163 0.693 0.163h9.375c0.249 0 0.484-0.059 0.693-0.163-1.433 1.268-3.317 2.038-5.381 2.038s-3.948-0.77-5.381-2.038zM5 14.688v-1.875c0-0.169 0.143-0.313 0.313-0.313h2.188v2.5h-2.188c-0.169 0-0.313-0.143-0.313-0.313zM8.75 15v-2.5h2.5v2.5h-2.5zM12.5 15v-2.5h2.188c0.169 0 0.313 0.143 0.313 0.313v1.875c0 0.169-0.143 0.313-0.313 0.313h-2.188zM16.087 15.381c0.104-0.209 0.163-0.444 0.163-0.693v-1.875c0-0.862-0.701-1.563-1.563-1.563h-9.375c-0.862 0-1.563 0.701-1.563 1.563v1.875c0 0.249 0.059 0.484 0.163 0.693-1.268-1.433-2.038-3.317-2.038-5.381 0-4.487 3.638-8.125 8.125-8.125s8.125 3.638 8.125 8.125c0 2.064-0.77 3.948-2.038 5.381z"></path>
<path d="M14.223 5.019c-0.028 0.007-0.699 0.177-1.378 0.516-0.711 0.355-1.554 0.97-1.594 1.897-0.001 0.023-0.002 0.045-0.002 0.068 0 0.69 0.56 1.25 1.25 1.25s1.25-0.56 1.25-1.25c0-0.329-0.127-0.628-0.335-0.852 0.36-0.18 0.768-0.33 1.112-0.417 0.335-0.084 0.538-0.423 0.455-0.758s-0.423-0.539-0.758-0.455z"></path>
</svg>
