<!-- Generated by IcoMoon.io -->
<svg version="1.1" xmlns="http://www.w3.org/2000/svg" width="20" height="20" viewBox="0 0 20 20">
<title>frustrated2</title>
<path d="M5 12.813v1.875c0 0.169 0.143 0.313 0.313 0.313h2.188v-2.5h-2.188c-0.169 0-0.313 0.143-0.313 0.313z"></path>
<path d="M8.75 12.5h2.5v2.5h-2.5v-2.5z"></path>
<path d="M14.688 12.5h-2.188v2.5h2.188c0.169 0 0.313-0.143 0.313-0.313v-1.875c0-0.169-0.143-0.313-0.313-0.313z"></path>
<path d="M10 0c-5.523 0-10 4.477-10 10s4.477 10 10 10 10-4.477 10-10-4.477-10-10-10zM11.252 7.432c0.040-0.927 0.883-1.542 1.594-1.897 0.679-0.339 1.35-0.509 1.378-0.516 0.335-0.084 0.674 0.12 0.758 0.455s-0.12 0.674-0.455 0.758c-0.344 0.087-0.752 0.237-1.112 0.417 0.208 0.223 0.335 0.522 0.335 0.852 0 0.69-0.56 1.25-1.25 1.25s-1.25-0.56-1.25-1.25c0-0.023 0.001-0.046 0.002-0.068zM5.019 5.473c0.084-0.335 0.423-0.539 0.758-0.455 0.028 0.007 0.699 0.177 1.378 0.516 0.711 0.355 1.554 0.97 1.594 1.897 0.001 0.023 0.002 0.045 0.002 0.068 0 0.69-0.56 1.25-1.25 1.25s-1.25-0.56-1.25-1.25c0-0.329 0.127-0.628 0.335-0.852-0.36-0.18-0.768-0.33-1.112-0.417-0.335-0.084-0.538-0.423-0.455-0.758zM16.25 14.688c0 0.862-0.701 1.563-1.563 1.563h-9.375c-0.862 0-1.563-0.701-1.563-1.563v-1.875c0-0.862 0.701-1.563 1.563-1.563h9.375c0.862 0 1.563 0.701 1.563 1.563v1.875z"></path>
</svg>
