<!-- Generated by IcoMoon.io -->
<svg version="1.1" xmlns="http://www.w3.org/2000/svg" width="20" height="20" viewBox="0 0 20 20">
<title>git</title>
<path d="M19.623 9.109l-8.732-8.732c-0.503-0.503-1.318-0.503-1.822 0l-2.029 2.029 1.527 1.527c0.245-0.117 0.519-0.183 0.808-0.183 1.036 0 1.875 0.839 1.875 1.875 0 0.289-0.066 0.564-0.183 0.808l2.5 2.499c0.245-0.117 0.519-0.183 0.808-0.183 1.036 0 1.875 0.839 1.875 1.875s-0.839 1.875-1.875 1.875-1.875-0.839-1.875-1.875c0-0.289 0.066-0.564 0.183-0.808l-2.5-2.499c-0.059 0.028-0.121 0.054-0.183 0.076v5.214c0.728 0.257 1.25 0.952 1.25 1.768 0 1.036-0.839 1.875-1.875 1.875s-1.875-0.839-1.875-1.875c0-0.816 0.522-1.51 1.25-1.768v-5.214c-0.728-0.257-1.25-0.952-1.25-1.768 0-0.289 0.066-0.564 0.183-0.808l-1.527-1.527-5.779 5.779c-0.503 0.503-0.503 1.319 0 1.822l8.733 8.732c0.503 0.503 1.318 0.503 1.822 0l8.692-8.692c0.503-0.503 0.503-1.319-0-1.822z"></path>
</svg>
