<!-- Generated by IcoMoon.io -->
<svg version="1.1" xmlns="http://www.w3.org/2000/svg" width="20" height="20" viewBox="0 0 20 20">
<title>glass</title>
<path d="M15.191 0.329c-0.109-0.203-0.32-0.329-0.551-0.329h-9.281c-0.23 0-0.442 0.126-0.551 0.329-0.693 1.289-1.059 2.797-1.059 4.358 0 2.059 0.632 4.001 1.78 5.468 0.887 1.134 2.002 1.886 3.22 2.191v6.404h-1.875c-0.345 0-0.625 0.28-0.625 0.625s0.28 0.625 0.625 0.625h6.25c0.345 0 0.625-0.28 0.625-0.625s-0.28-0.625-0.625-0.625h-1.875v-6.404c1.218-0.305 2.332-1.057 3.22-2.191 1.148-1.467 1.78-3.409 1.78-5.468 0-1.562-0.366-3.069-1.059-4.358zM5.744 1.25h8.512c0.488 1.033 0.744 2.214 0.744 3.438 0 0.105-0.002 0.209-0.006 0.313h-9.988c-0.004-0.104-0.006-0.208-0.006-0.313-0-1.224 0.256-2.404 0.744-3.438z"></path>
</svg>
