<!-- Generated by IcoMoon.io -->
<svg version="1.1" xmlns="http://www.w3.org/2000/svg" width="20" height="20" viewBox="0 0 20 20">
<title>glass2</title>
<path d="M17.366 3.511c0.148-0.188 0.175-0.444 0.071-0.659s-0.323-0.352-0.562-0.352h-13.75c-0.239 0-0.458 0.137-0.562 0.352s-0.077 0.471 0.071 0.659l6.116 7.785v7.454h-1.875c-0.345 0-0.625 0.28-0.625 0.625s0.28 0.625 0.625 0.625h6.25c0.345 0 0.625-0.28 0.625-0.625s-0.28-0.625-0.625-0.625h-1.875v-7.454l6.116-7.785zM15.589 3.75l-1.964 2.5h-7.25l-1.964-2.5h11.178z"></path>
</svg>
