<!-- Generated by IcoMoon.io -->
<svg version="1.1" xmlns="http://www.w3.org/2000/svg" width="20" height="20" viewBox="0 0 20 20">
<title>google2</title>
<path d="M18.125 0h-16.25c-1.031 0-1.875 0.844-1.875 1.875v16.25c0 1.031 0.844 1.875 1.875 1.875h16.25c1.031 0 1.875-0.844 1.875-1.875v-16.25c0-1.031-0.844-1.875-1.875-1.875zM10.148 17.5c-4.145 0-7.5-3.355-7.5-7.5s3.355-7.5 7.5-7.5c2.023 0 3.719 0.738 5.023 1.961l-2.035 1.961c-0.559-0.535-1.531-1.156-2.988-1.156-2.563 0-4.648 2.121-4.648 4.734s2.090 4.734 4.648 4.734c2.969 0 4.082-2.133 4.254-3.234h-4.254v-2.57h7.082c0.063 0.375 0.117 0.75 0.117 1.242 0.004 4.285-2.867 7.328-7.199 7.328z"></path>
</svg>
