<!-- Generated by IcoMoon.io -->
<svg version="1.1" xmlns="http://www.w3.org/2000/svg" width="20" height="20" viewBox="0 0 20 20">
<title>google-plus</title>
<path d="M6.363 8.934v2.184h3.609c-0.145 0.938-1.090 2.746-3.609 2.746-2.172 0-3.945-1.801-3.945-4.020s1.773-4.020 3.945-4.020c1.238 0 2.063 0.527 2.535 0.98l1.727-1.664c-1.109-1.035-2.547-1.664-4.262-1.664-3.52 0.004-6.363 2.848-6.363 6.367s2.844 6.363 6.363 6.363c3.672 0 6.109-2.582 6.109-6.219 0-0.418-0.047-0.738-0.102-1.055h-6.008z"></path>
<path d="M20 8.75h-1.875v-1.875h-1.875v1.875h-1.875v1.875h1.875v1.875h1.875v-1.875h1.875z"></path>
</svg>
