<!-- Generated by IcoMoon.io -->
<svg version="1.1" xmlns="http://www.w3.org/2000/svg" width="20" height="20" viewBox="0 0 20 20">
<title>google-plus3</title>
<path d="M10 0c-5.523 0-10 4.477-10 10s4.477 10 10 10 10-4.477 10-10-4.477-10-10-10zM7.5 15c-2.766 0-5-2.234-5-5s2.234-5 5-5c1.352 0 2.48 0.492 3.352 1.309l-1.359 1.305c-0.371-0.355-1.020-0.77-1.992-0.77-1.707 0-3.102 1.414-3.102 3.156s1.395 3.156 3.102 3.156c1.98 0 2.723-1.422 2.836-2.156h-2.836v-1.715h4.723c0.043 0.25 0.078 0.5 0.078 0.828 0 2.859-1.914 4.887-4.801 4.887zM16.25 10v1.25h-1.25v-1.25h-1.25v-1.25h1.25v-1.25h1.25v1.25h1.25v1.25h-1.25z"></path>
</svg>
