<!-- Generated by IcoMoon.io -->
<svg version="1.1" xmlns="http://www.w3.org/2000/svg" width="20" height="20" viewBox="0 0 20 20">
<title>google-plus2</title>
<path d="M18.125 0h-16.25c-1.031 0-1.875 0.844-1.875 1.875v16.25c0 1.031 0.844 1.875 1.875 1.875h16.25c1.031 0 1.875-0.844 1.875-1.875v-16.25c0-1.031-0.844-1.875-1.875-1.875zM7.5 15c-2.766 0-5-2.234-5-5s2.234-5 5-5c1.352 0 2.48 0.492 3.352 1.309l-1.359 1.305c-0.371-0.355-1.020-0.77-1.992-0.77-1.707 0-3.102 1.414-3.102 3.156s1.395 3.156 3.102 3.156c1.98 0 2.723-1.422 2.836-2.156h-2.836v-1.715h4.723c0.043 0.25 0.078 0.5 0.078 0.828 0 2.859-1.914 4.887-4.801 4.887zM17.5 10h-1.25v1.25h-1.25v-1.25h-1.25v-1.25h1.25v-1.25h1.25v1.25h1.25v1.25z"></path>
</svg>
