<!-- Generated by IcoMoon.io -->
<svg version="1.1" xmlns="http://www.w3.org/2000/svg" width="20" height="20" viewBox="0 0 20 20">
<title>grin</title>
<path d="M10 20c5.523 0 10-4.477 10-10s-4.477-10-10-10-10 4.477-10 10 4.477 10 10 10zM10 1.875c4.487 0 8.125 3.638 8.125 8.125s-3.638 8.125-8.125 8.125-8.125-3.638-8.125-8.125 3.638-8.125 8.125-8.125zM3.75 10v1.25c0 2.75 2.25 5 5 5h2.5c2.75 0 5-2.25 5-5v-1.25h-12.5zM7.5 14.785c-0.518-0.185-0.995-0.485-1.397-0.888-0.711-0.711-1.103-1.651-1.103-2.647h2.5v3.535zM11.25 15h-2.5v-3.75h2.5v3.75zM13.897 13.897c-0.403 0.403-0.879 0.703-1.397 0.888v-3.535h2.5c0 0.996-0.392 1.936-1.103 2.647zM4.401 7.5c0 0 0 0 0 0 0.191 0 0.354-0.138 0.385-0.326 0.12-0.716 0.736-1.237 1.463-1.237s1.343 0.52 1.463 1.237c0.032 0.188 0.194 0.326 0.385 0.326s0.354-0.138 0.385-0.326c0.021-0.126 0.032-0.253 0.032-0.377 0-1.249-1.016-2.266-2.266-2.266s-2.266 1.016-2.266 2.266c0 0.125 0.011 0.251 0.032 0.377 0.032 0.188 0.195 0.326 0.385 0.326zM11.901 7.5c0 0 0 0 0 0 0.191 0 0.354-0.138 0.385-0.326 0.12-0.716 0.736-1.237 1.463-1.237s1.343 0.52 1.463 1.237c0.032 0.188 0.194 0.326 0.385 0.326s0.354-0.138 0.385-0.326c0.021-0.126 0.032-0.253 0.032-0.377 0-1.249-1.016-2.266-2.266-2.266s-2.266 1.016-2.266 2.266c0 0.125 0.011 0.251 0.032 0.377 0.032 0.188 0.195 0.326 0.385 0.326z"></path>
</svg>
