<!-- Generated by IcoMoon.io -->
<svg version="1.1" xmlns="http://www.w3.org/2000/svg" width="20" height="20" viewBox="0 0 20 20">
<title>happy2</title>
<path d="M10 0c-5.523 0-10 4.477-10 10s4.477 10 10 10 10-4.477 10-10-4.477-10-10-10zM13.75 5c0.69 0 1.25 0.839 1.25 1.875s-0.56 1.875-1.25 1.875-1.25-0.839-1.25-1.875 0.56-1.875 1.25-1.875zM6.25 5c0.69 0 1.25 0.839 1.25 1.875s-0.56 1.875-1.25 1.875-1.25-0.839-1.25-1.875 0.56-1.875 1.25-1.875zM10 17.5c-3.259 0-5.965-2.732-6.25-6.217 1.831 1.057 3.985 1.661 6.25 1.661s4.419-0.602 6.25-1.659c-0.285 3.485-2.991 6.214-6.25 6.214z"></path>
</svg>
