<!-- Generated by IcoMoon.io -->
<svg version="1.1" xmlns="http://www.w3.org/2000/svg" width="20" height="20" viewBox="0 0 20 20">
<title>happy</title>
<path d="M10 20c5.523 0 10-4.477 10-10s-4.477-10-10-10-10 4.477-10 10 4.477 10 10 10zM10 1.875c4.487 0 8.125 3.638 8.125 8.125s-3.638 8.125-8.125 8.125-8.125-3.638-8.125-8.125 3.638-8.125 8.125-8.125zM10 11.695c2.265 0 4.419-0.602 6.25-1.659-0.285 3.485-2.991 6.214-6.25 6.214s-5.965-2.732-6.25-6.217c1.831 1.057 3.985 1.661 6.25 1.661zM5 6.875c0-1.036 0.56-1.875 1.25-1.875s1.25 0.839 1.25 1.875c0 1.036-0.56 1.875-1.25 1.875s-1.25-0.839-1.25-1.875zM12.5 6.875c0-1.036 0.56-1.875 1.25-1.875s1.25 0.839 1.25 1.875c0 1.036-0.56 1.875-1.25 1.875s-1.25-0.839-1.25-1.875z"></path>
</svg>
