<!-- Generated by IcoMoon.io -->
<svg version="1.1" xmlns="http://www.w3.org/2000/svg" width="20" height="20" viewBox="0 0 20 20">
<title>headphones</title>
<path d="M5.625 11.25h-1.25v8.75h1.25c0.344 0 0.625-0.281 0.625-0.625v-7.5c0-0.344-0.281-0.625-0.625-0.625z"></path>
<path d="M14.375 11.25c-0.344 0-0.625 0.281-0.625 0.625v7.5c0 0.344 0.281 0.625 0.625 0.625h1.25v-8.75h-1.25z"></path>
<path d="M20 10c0-5.523-4.477-10-10-10s-10 4.477-10 10c0 1.199 0.212 2.349 0.599 3.415-0.38 0.649-0.599 1.404-0.599 2.21 0 2.204 1.63 4.027 3.75 4.33v-8.661c-0.623 0.089-1.204 0.309-1.714 0.632-0.105-0.522-0.161-1.062-0.161-1.615 0-4.487 3.638-8.125 8.125-8.125s8.125 3.638 8.125 8.125c0 0.553-0.055 1.093-0.161 1.615-0.51-0.323-1.091-0.544-1.714-0.633v8.661c2.12-0.303 3.75-2.126 3.75-4.33 0-0.806-0.218-1.561-0.599-2.21 0.387-1.066 0.599-2.216 0.599-3.415z"></path>
</svg>
