<!-- Generated by IcoMoon.io -->
<svg version="1.1" xmlns="http://www.w3.org/2000/svg" width="20" height="20" viewBox="0 0 20 20">
<title>hipster</title>
<path d="M10 20c5.523 0 10-4.477 10-10s-4.477-10-10-10-10 4.477-10 10 4.477 10 10 10zM10 1.875c4.487 0 8.125 3.638 8.125 8.125s-3.638 8.125-8.125 8.125-8.125-3.638-8.125-8.125 3.638-8.125 8.125-8.125zM5 6.25c0-0.69 0.56-1.25 1.25-1.25s1.25 0.56 1.25 1.25-0.56 1.25-1.25 1.25-1.25-0.56-1.25-1.25zM12.5 6.25c0-0.69 0.56-1.25 1.25-1.25s1.25 0.56 1.25 1.25-0.56 1.25-1.25 1.25-1.25-0.56-1.25-1.25z"></path>
<path d="M13.201 10.549c-0.732-0.732-1.919-0.732-2.652 0s-0.732 1.919 0 2.652c0.024 0.024 0.048 0.046 0.072 0.068 1.69 1.533 5.629-0.036 5.629-2.019-1.211 0.781-2.157 0.191-3.049-0.701z"></path>
<path d="M6.799 10.549c0.732-0.732 1.919-0.732 2.652 0s0.732 1.919 0 2.652c-0.024 0.024-0.048 0.046-0.072 0.068-1.69 1.533-5.629-0.036-5.629-2.019 1.211 0.781 2.157 0.191 3.049-0.701z"></path>
</svg>
