<!-- Generated by IcoMoon.io -->
<svg version="1.1" xmlns="http://www.w3.org/2000/svg" width="20" height="20" viewBox="0 0 20 20">
<title>hipster2</title>
<path d="M10 0c-5.523 0-10 4.477-10 10s4.477 10 10 10 10-4.477 10-10-4.477-10-10-10zM13.75 5c0.69 0 1.25 0.56 1.25 1.25s-0.56 1.25-1.25 1.25-1.25-0.56-1.25-1.25 0.56-1.25 1.25-1.25zM6.25 5c0.69 0 1.25 0.56 1.25 1.25s-0.56 1.25-1.25 1.25-1.25-0.56-1.25-1.25 0.56-1.25 1.25-1.25zM10.621 13.269c-0.024-0.022-0.048-0.045-0.072-0.068-0.366-0.366-0.549-0.846-0.549-1.325-0 0.48-0.183 0.959-0.549 1.325-0.024 0.024-0.048 0.046-0.072 0.068-1.69 1.533-5.629-0.036-5.629-2.019 1.211 0.781 2.157 0.191 3.049-0.701 0.732-0.732 1.919-0.732 2.652 0 0.366 0.366 0.549 0.846 0.549 1.325 0-0.48 0.183-0.959 0.549-1.325 0.732-0.732 1.919-0.732 2.652 0 0.892 0.892 1.838 1.482 3.049 0.701 0 1.983-3.939 3.553-5.629 2.019z"></path>
</svg>
