<!-- Generated by IcoMoon.io -->
<svg version="1.1" xmlns="http://www.w3.org/2000/svg" width="21" height="20" viewBox="0 0 21 20">
<title>history</title>
<path d="M12.5 1.25c4.832 0 8.75 3.918 8.75 8.75s-3.918 8.75-8.75 8.75v-1.875c1.836 0 3.563-0.715 4.861-2.014s2.014-3.025 2.014-4.861c0-1.836-0.715-3.563-2.014-4.861s-3.025-2.014-4.861-2.014c-1.836 0-3.563 0.715-4.861 2.014-0.999 0.999-1.652 2.251-1.901 3.611h3.637l-4.375 5-4.375-5h3.214c0.607-4.24 4.253-7.5 8.661-7.5zM16.25 8.75v2.5h-5v-6.25h2.5v3.75z"></path>
</svg>
