<!-- Generated by IcoMoon.io -->
<svg version="1.1" xmlns="http://www.w3.org/2000/svg" width="20" height="20" viewBox="0 0 20 20">
<title>IcoMoon</title>
<path d="M5.069 10c0-1.278 1.036-2.313 2.313-2.313s2.313 1.036 2.313 2.313c0 1.278-1.036 2.313-2.313 2.313s-2.313-1.036-2.313-2.313zM10 0c-5.523 0-10 4.477-10 10s4.477 10 10 10c5.523 0 10-4.477 10-10s-4.477-10-10-10zM7.41 18.736c-3.007-1.749-5.029-5.006-5.029-8.736s2.022-6.986 5.029-8.736c3.008 1.749 5.031 5.006 5.031 8.736s-2.023 6.987-5.031 8.736z"></path>
</svg>
