<!-- Generated by IcoMoon.io -->
<svg version="1.1" xmlns="http://www.w3.org/2000/svg" width="23" height="20" viewBox="0 0 23 20">
<title>images</title>
<path d="M21.25 2.5h-1.25v-1.25c0-0.688-0.563-1.25-1.25-1.25h-17.5c-0.688 0-1.25 0.563-1.25 1.25v15c0 0.688 0.563 1.25 1.25 1.25h1.25v1.25c0 0.688 0.563 1.25 1.25 1.25h17.5c0.688 0 1.25-0.563 1.25-1.25v-15c0-0.688-0.563-1.25-1.25-1.25zM2.5 3.75v12.5h-1.248c-0.001-0.001-0.002-0.001-0.002-0.002v-14.996c0.001-0.001 0.001-0.002 0.002-0.002h17.496c0.001 0.001 0.002 0.001 0.002 0.002v1.248h-15c-0.688 0-1.25 0.563-1.25 1.25v0zM21.25 18.748c-0.001 0.001-0.001 0.002-0.002 0.002h-17.496c-0.001-0.001-0.002-0.001-0.002-0.002v-14.996c0.001-0.001 0.001-0.002 0.002-0.002h17.496c0.001 0.001 0.002 0.001 0.002 0.002v14.995z"></path>
<path d="M18.75 6.875c0 1.036-0.839 1.875-1.875 1.875s-1.875-0.839-1.875-1.875 0.839-1.875 1.875-1.875 1.875 0.839 1.875 1.875z"></path>
<path d="M20 17.5h-15v-2.5l4.375-7.5 5 6.25h1.25l4.375-3.75z"></path>
</svg>
