<!-- Generated by IcoMoon.io -->
<svg version="1.1" xmlns="http://www.w3.org/2000/svg" width="20" height="20" viewBox="0 0 20 20">
<title>image</title>
<path d="M18.748 2.5c0.001 0.001 0.002 0.001 0.002 0.002v14.996c-0.001 0.001-0.001 0.002-0.002 0.002h-17.496c-0.001-0.001-0.002-0.001-0.002-0.002v-14.996c0.001-0.001 0.001-0.002 0.002-0.002h17.496zM18.75 1.25h-17.5c-0.688 0-1.25 0.563-1.25 1.25v15c0 0.688 0.563 1.25 1.25 1.25h17.5c0.688 0 1.25-0.563 1.25-1.25v-15c0-0.688-0.563-1.25-1.25-1.25v0z"></path>
<path d="M16.25 5.625c0 1.036-0.839 1.875-1.875 1.875s-1.875-0.839-1.875-1.875 0.839-1.875 1.875-1.875 1.875 0.839 1.875 1.875z"></path>
<path d="M17.5 16.25h-15v-2.5l4.375-7.5 5 6.25h1.25l4.375-3.75z"></path>
</svg>
