<!-- Generated by IcoMoon.io -->
<svg version="1.1" xmlns="http://www.w3.org/2000/svg" width="20" height="20" viewBox="0 0 20 20">
<title>infinite</title>
<path d="M15.312 14.688c-1.252 0-2.429-0.488-3.314-1.373l-1.998-1.998-1.998 1.997c-0.885 0.885-2.062 1.373-3.315 1.373s-2.429-0.488-3.315-1.373c-0.885-0.885-1.373-2.063-1.373-3.315s0.488-2.429 1.373-3.315c0.885-0.885 2.063-1.373 3.315-1.373s2.429 0.488 3.315 1.373l1.998 1.998 1.998-1.998c0.885-0.885 2.063-1.373 3.315-1.373s2.429 0.488 3.315 1.373c0.886 0.885 1.373 2.063 1.373 3.315s-0.488 2.429-1.373 3.315c-0.885 0.885-2.062 1.373-3.315 1.373zM13.315 11.998c0.534 0.533 1.243 0.827 1.997 0.827s1.464-0.294 1.998-0.827c0.534-0.534 0.827-1.243 0.827-1.998s-0.294-1.464-0.827-1.998c-0.534-0.534-1.243-0.827-1.998-0.827s-1.464 0.294-1.998 0.827l-1.997 1.998 1.998 1.998zM4.688 7.175c-0.755 0-1.464 0.294-1.998 0.827s-0.827 1.243-0.827 1.998c0 0.755 0.294 1.464 0.827 1.998s1.243 0.827 1.998 0.827c0.755 0 1.464-0.294 1.998-0.827l1.998-1.998-1.998-1.998c-0.534-0.534-1.243-0.827-1.998-0.827v0z"></path>
</svg>
