<!-- Generated by IcoMoon.io -->
<svg version="1.1" xmlns="http://www.w3.org/2000/svg" width="20" height="20" viewBox="0 0 20 20">
<title>info</title>
<path d="M8.75 5.938c0-0.516 0.422-0.938 0.938-0.938h0.625c0.516 0 0.938 0.422 0.938 0.938v0.625c0 0.516-0.422 0.938-0.938 0.938h-0.625c-0.516 0-0.938-0.422-0.938-0.938v-0.625z"></path>
<path d="M12.5 15h-5v-1.25h1.25v-3.75h-1.25v-1.25h3.75v5h1.25z"></path>
<path d="M10 0c-5.523 0-10 4.477-10 10s4.477 10 10 10 10-4.477 10-10-4.477-10-10-10zM10 18.125c-4.487 0-8.125-3.638-8.125-8.125s3.638-8.125 8.125-8.125 8.125 3.638 8.125 8.125-3.638 8.125-8.125 8.125z"></path>
</svg>
