<!-- Generated by IcoMoon.io -->
<svg version="1.1" xmlns="http://www.w3.org/2000/svg" width="20" height="20" viewBox="0 0 20 20">
<title>lanyrd</title>
<path d="M18.125 0h-16.25c-1.031 0-1.875 0.844-1.875 1.875v16.25c0 1.031 0.844 1.875 1.875 1.875h16.25c1.031 0 1.875-0.844 1.875-1.875v-16.25c0-1.031-0.844-1.875-1.875-1.875zM16.063 15.016l-6.805 2.227c-1.555 0.508-1.711 0.426-2.414-1.75l-1.719-5.324c-0.41-1.262-1.66-4.66-1.871-5.313-0.391-1.211-0.391-1.277 1.895-2.020 1.789-0.586 1.863-0.566 2.512 1.453 0.523 1.625 0.859 2.938 1.398 4.598l1.465 4.531 4.68-1.531c0.922-0.305 1.23-0.289 1.492 0.848l0.188 0.859c0.219 0.996-0.285 1.25-0.82 1.422z"></path>
</svg>
