<!-- Generated by IcoMoon.io -->
<svg version="1.1" xmlns="http://www.w3.org/2000/svg" width="20" height="20" viewBox="0 0 20 20">
<title>lastfm2</title>
<path d="M18.125 0h-16.25c-1.031 0-1.875 0.844-1.875 1.875v16.25c0 1.031 0.844 1.875 1.875 1.875h16.25c1.031 0 1.875-0.844 1.875-1.875v-16.25c0-1.031-0.844-1.875-1.875-1.875zM14.582 14.859c-3.469 0-4.672-1.563-5.313-3.508l-0.641-2.004c-0.48-1.465-1.043-2.605-2.805-2.605-1.223 0-2.465 0.883-2.465 3.348 0 1.926 0.98 3.129 2.367 3.129 1.563 0 2.605-1.164 2.605-1.164l0.641 1.742c0 0-1.082 1.063-3.348 1.063-2.813 0-4.375-1.641-4.375-4.688 0-3.168 1.563-5.031 4.512-5.031 2.668 0 4.008 0.961 4.852 3.566l0.66 2.004c0.48 1.465 1.324 2.527 3.348 2.527 1.363 0 2.086-0.301 2.086-1.043 0-0.582-0.34-1.004-1.363-1.242l-1.363-0.32c-1.664-0.402-2.324-1.262-2.324-2.625 0-2.184 1.766-2.867 3.566-2.867 2.043 0 3.289 0.742 3.449 2.547l-2.004 0.242c-0.082-0.863-0.602-1.223-1.563-1.223-0.883 0-1.422 0.402-1.422 1.082 0 0.602 0.262 0.961 1.141 1.164l1.281 0.281c1.723 0.402 2.645 1.242 2.645 2.867 0 1.996-1.684 2.758-4.168 2.758z"></path>
</svg>
