<!-- Generated by IcoMoon.io -->
<svg version="1.1" xmlns="http://www.w3.org/2000/svg" width="20" height="20" viewBox="0 0 20 20">
<title>lastfm</title>
<path d="M8.82 14.965l-0.734-1.992c0 0-1.191 1.328-2.977 1.328-1.582 0-2.703-1.375-2.703-3.574 0-2.816 1.422-3.824 2.816-3.824 2.016 0 2.656 1.305 3.207 2.977l0.734 2.289c0.734 2.223 2.109 4.008 6.070 4.008 2.84 0 4.766-0.871 4.766-3.16 0-1.855-1.055-2.816-3.023-3.277l-1.465-0.32c-1.008-0.23-1.305-0.641-1.305-1.328 0-0.777 0.617-1.238 1.625-1.238 1.102 0 1.695 0.414 1.785 1.398l2.289-0.273c-0.184-2.063-1.605-2.91-3.941-2.91-2.063 0-4.078 0.777-4.078 3.277 0 1.559 0.758 2.543 2.656 3l1.559 0.367c1.168 0.273 1.559 0.758 1.559 1.422 0 0.848-0.824 1.191-2.383 1.191-2.312 0-3.277-1.215-3.824-2.887l-0.758-2.289c-0.957-2.98-2.492-4.078-5.539-4.078-3.367 0-5.156 2.129-5.156 5.75 0 3.48 1.785 5.359 4.996 5.359 2.586 0 3.824-1.215 3.824-1.215v0z"></path>
</svg>
