<!-- Generated by IcoMoon.io -->
<svg version="1.1" xmlns="http://www.w3.org/2000/svg" width="20" height="20" viewBox="0 0 20 20">
<title>leaf</title>
<path d="M19.752 2.627c-2.163-1.639-5.492-2.618-8.904-2.618-4.221 0-7.661 1.474-9.437 4.043-0.834 1.207-1.296 2.636-1.371 4.248-0.067 1.435 0.174 3.022 0.716 4.729 1.853-5.554 7.028-9.904 12.993-9.904 0 0-5.583 1.469-9.092 6.019-0.002 0.003-0.049 0.060-0.129 0.17-0.705 0.943-1.319 2.015-1.779 3.229-0.779 1.852-1.5 4.394-1.5 7.457h2.5c0 0-0.379-2.387 0.28-5.133 1.092 0.148 2.068 0.221 2.946 0.221 2.298 0 3.933-0.497 5.144-1.565 1.085-0.957 1.684-2.242 2.317-3.603 0.967-2.078 2.064-4.434 5.247-6.253 0.182-0.104 0.3-0.293 0.314-0.502s-0.079-0.412-0.246-0.539z"></path>
</svg>
