<!-- Generated by IcoMoon.io -->
<svg version="1.1" xmlns="http://www.w3.org/2000/svg" width="20" height="20" viewBox="0 0 20 20">
<title>ligature</title>
<path d="M15 17.028c0-0.001 0-0.001 0-0.002l-0.007-8.527-2.49 0.121h-4.921v-0.42c0-1.593 0.113-3.183 0.337-3.803 0.154-0.429 0.441-0.815 0.853-1.149 0.403-0.326 0.804-0.492 1.194-0.492 0.328 0 0.6 0.056 0.809 0.167 0.293 0.167 0.58 0.449 0.853 0.836 0.722 1.025 1.015 1.298 1.174 1.414 0.27 0.197 0.596 0.297 0.97 0.297 0.365 0 0.683-0.136 0.946-0.405 0.261-0.266 0.394-0.599 0.394-0.99 0-0.419-0.174-0.863-0.518-1.321-0.336-0.447-0.854-0.815-1.54-1.094-0.67-0.273-1.425-0.411-2.242-0.411-1.186 0-2.266 0.285-3.21 0.847-0.946 0.563-1.671 1.347-2.156 2.329-0.449 0.91-0.417 2.631-0.444 4.194h-2.456v1.395h2.453v6.341c0 1.4-0.428 1.777-0.59 1.979-0.223 0.277-0.636 0.568-1.181 0.568h-0.755v1.097h7.526v-1.097h-0.131c-1.78 0-2.286-0.192-2.286-2.36 0-0 0-0.001 0-0.001l-0.001-6.527h2.738c1.453 0 1.787 0.067 1.863 0.096 0.092 0.035 0.211 0.094 0.256 0.179 0.017 0.033 0.101 0.488 0.101 1.621v4.896c0 1.142-0.139 1.521-0.224 1.648-0.181 0.277-0.399 0.431-1.068 0.447v1.099h5.735v-1.091c-1.789 0-1.985-0.192-1.985-1.881z"></path>
</svg>
