<!-- Generated by IcoMoon.io -->
<svg version="1.1" xmlns="http://www.w3.org/2000/svg" width="20" height="20" viewBox="0 0 20 20">
<title>ligature2</title>
<path d="M16.706 17.919c-0.229 0-1.633-0.258-1.719-0.573-0.201-0.774-0.229-1.605-0.229-2.55v-10.566c0-1.576 0.315-2.493 0.315-2.493-0.029-0.143-0.172-0.458-0.344-0.458h-0.086c-0.086 0-1.089 0.63-2.006 0.63-0.745-0-1.209-0.659-2.068-0.659-3.615 0-5.311 2.936-5.311 7.090v0.216c0 0.086-0.057 0.172-0.143 0.172h-1.175c-0.143 0-0.43 0.802-0.43 1.175 0 0.115 0.029 0.172 0.086 0.172h1.519c0.086 0 0.143 0.115 0.143 0.201 0 2.55-0.029 5.064-0.029 5.064 0 0.401-0.029 1.289-0.201 2.006-0.086 0.315-1.404 0.573-1.748 0.573-0.143 0-0.143 0.688 0 0.831 1.175-0.057 1.948-0.143 3.123-0.143 1.089 0 1.92 0.086 3.066 0.143 0.057-0.172 0.057-0.831-0.086-0.831-0.229 0-1.633-0.258-1.719-0.573-0.201-0.774-0.201-1.605-0.229-2.55v-4.549c0-0.086 0.086-0.172 0.172-0.172h2.951c0.201-0.401 0.344-0.888 0.344-1.146 0-0.172 0-0.201-0.143-0.201h-3.18c-0.057 0-0.143-0.086-0.143-0.143v-1.032c0-2.55 1.045-4.796 2.792-4.796 1.238 0 2.318 0.802 2.318 3.866 0 0 0 0 0 0 0.004 0.079 0.006 0.142 0.006 0.185v8.532c0 0.401-0.029 1.289-0.201 2.006-0.086 0.315-1.404 0.573-1.748 0.573-0.143 0-0.143 0.688 0 0.831 1.175-0.057 1.948-0.143 3.123-0.143 1.089 0 1.92 0.086 3.066 0.143 0.057-0.172 0.057-0.831-0.086-0.831z"></path>
</svg>
