<!-- Generated by IcoMoon.io -->
<svg version="1.1" xmlns="http://www.w3.org/2000/svg" width="20" height="20" viewBox="0 0 20 20">
<title>linkedin</title>
<path d="M18.125 0h-16.25c-1.031 0-1.875 0.844-1.875 1.875v16.25c0 1.031 0.844 1.875 1.875 1.875h16.25c1.031 0 1.875-0.844 1.875-1.875v-16.25c0-1.031-0.844-1.875-1.875-1.875zM7.5 16.25h-2.5v-8.75h2.5v8.75zM6.25 6.25c-0.691 0-1.25-0.559-1.25-1.25s0.559-1.25 1.25-1.25c0.691 0 1.25 0.559 1.25 1.25s-0.559 1.25-1.25 1.25zM16.25 16.25h-2.5v-5c0-0.691-0.559-1.25-1.25-1.25s-1.25 0.559-1.25 1.25v5h-2.5v-8.75h2.5v1.551c0.516-0.707 1.305-1.551 2.188-1.551 1.555 0 2.813 1.398 2.813 3.125v5.625z"></path>
</svg>
