<!-- Generated by IcoMoon.io -->
<svg version="1.1" xmlns="http://www.w3.org/2000/svg" width="20" height="20" viewBox="0 0 20 20">
<title>link</title>
<path d="M8.598 12.417c-0.26 0-0.52-0.099-0.718-0.297-1.858-1.858-1.858-4.882 0-6.74l3.75-3.75c0.9-0.9 2.097-1.396 3.37-1.396s2.47 0.496 3.37 1.396c1.858 1.858 1.858 4.882 0 6.74l-1.714 1.714c-0.397 0.397-1.040 0.397-1.436 0s-0.397-1.040 0-1.436l1.714-1.714c1.066-1.066 1.066-2.801 0-3.867-0.516-0.516-1.203-0.801-1.934-0.801s-1.417 0.284-1.934 0.801l-3.75 3.75c-1.066 1.066-1.066 2.801 0 3.867 0.397 0.397 0.397 1.040 0 1.436-0.198 0.198-0.458 0.297-0.718 0.297z"></path>
<path d="M5 19.766c-1.273 0-2.47-0.496-3.37-1.396-1.858-1.858-1.858-4.882 0-6.74l1.714-1.714c0.397-0.397 1.040-0.397 1.436 0s0.397 1.040 0 1.436l-1.714 1.714c-1.066 1.066-1.066 2.801 0 3.867 0.516 0.516 1.203 0.801 1.933 0.801s1.417-0.284 1.934-0.801l3.75-3.75c1.066-1.066 1.066-2.801 0-3.867-0.397-0.397-0.397-1.040 0-1.436s1.040-0.397 1.436 0c1.858 1.858 1.858 4.881 0 6.74l-3.75 3.75c-0.9 0.9-2.097 1.396-3.37 1.396z"></path>
</svg>
