<!-- Generated by IcoMoon.io -->
<svg version="1.1" xmlns="http://www.w3.org/2000/svg" width="20" height="20" viewBox="0 0 20 20">
<title>linkedin2</title>
<path d="M7.5 7.5h3.459v1.773h0.049c0.481-0.863 1.659-1.773 3.415-1.773 3.651 0 4.327 2.273 4.327 5.229v6.021h-3.606v-5.337c0-1.273-0.026-2.911-1.876-2.911-1.878 0-2.164 1.386-2.164 2.818v5.43h-3.604v-11.25z"></path>
<path d="M1.25 7.5h3.75v11.25h-3.75v-11.25z"></path>
<path d="M5 4.375c0 1.036-0.839 1.875-1.875 1.875s-1.875-0.839-1.875-1.875c0-1.036 0.839-1.875 1.875-1.875s1.875 0.839 1.875 1.875z"></path>
</svg>
