<!-- Generated by IcoMoon.io -->
<svg version="1.1" xmlns="http://www.w3.org/2000/svg" width="20" height="20" viewBox="0 0 20 20">
<title>lock</title>
<path d="M11.563 8.75h-0.313v-3.75c0-2.068-1.682-3.75-3.75-3.75h-2.5c-2.068 0-3.75 1.682-3.75 3.75v3.75h-0.313c-0.516 0-0.938 0.422-0.938 0.938v9.375c0 0.516 0.422 0.938 0.938 0.938h10.625c0.516 0 0.938-0.422 0.938-0.938v-9.375c0-0.516-0.422-0.938-0.938-0.938zM3.75 5c0-0.689 0.561-1.25 1.25-1.25h2.5c0.689 0 1.25 0.561 1.25 1.25v3.75h-5v-3.75z"></path>
</svg>
