<!-- Generated by IcoMoon.io -->
<svg version="1.1" xmlns="http://www.w3.org/2000/svg" width="20" height="20" viewBox="0 0 20 20">
<title>loop2</title>
<path d="M17.377 3.248c-1.828-1.996-4.456-3.248-7.377-3.248-5.523 0-10 4.477-10 10h1.875c0-4.487 3.638-8.125 8.125-8.125 2.403 0 4.561 1.043 6.049 2.701l-2.924 2.924h6.875v-6.875l-2.623 2.623z"></path>
<path d="M18.125 10c0 4.487-3.638 8.125-8.125 8.125-2.403 0-4.561-1.043-6.049-2.701l2.924-2.924h-6.875v6.875l2.623-2.623c1.828 1.996 4.456 3.248 7.377 3.248 5.523 0 10-4.477 10-10h-1.875z"></path>
</svg>
