<!-- Generated by IcoMoon.io -->
<svg version="1.1" xmlns="http://www.w3.org/2000/svg" width="20" height="20" viewBox="0 0 20 20">
<title>magnet</title>
<path d="M17.5 0h-5l1.25 11.25c0 2.071-1.679 3.75-3.75 3.75s-3.75-1.679-3.75-3.75l1.25-11.25h-5l-1.25 11.25c0 4.832 3.918 8.75 8.75 8.75s8.75-3.918 8.75-8.75l-1.25-11.25zM15.193 16.443c-1.387 1.387-3.231 2.151-5.193 2.151s-3.806-0.764-5.193-2.151c-1.369-1.369-2.131-3.185-2.151-5.118l0.705-6.344h2.17l-0.688 6.192v0.078c0 1.377 0.536 2.672 1.51 3.646s2.269 1.51 3.646 1.51 2.672-0.536 3.646-1.51c0.974-0.974 1.51-2.269 1.51-3.646v-0.078l-0.009-0.077-0.679-6.114h2.17l0.705 6.344c-0.019 1.934-0.781 3.749-2.151 5.118z"></path>
</svg>
