<!-- Generated by IcoMoon.io -->
<svg version="1.1" xmlns="http://www.w3.org/2000/svg" width="20" height="20" viewBox="0 0 20 20">
<title>move-up</title>
<path d="M13.75 10v7.5h1.25v-7.5h3.125l-3.75-3.75-3.75 3.75z"></path>
<path d="M1.25 3.75h1.875v1.25h-1.875v-1.25z"></path>
<path d="M3.75 3.75h1.875v1.25h-1.875v-1.25z"></path>
<path d="M6.25 3.75h1.25v1.875h-1.25v-1.875z"></path>
<path d="M1.25 8.125h1.25v1.875h-1.25v-1.875z"></path>
<path d="M3.125 8.75h1.875v1.25h-1.875v-1.25z"></path>
<path d="M5.625 8.75h1.875v1.25h-1.875v-1.25z"></path>
<path d="M1.25 5.625h1.25v1.875h-1.25v-1.875z"></path>
<path d="M6.25 6.25h1.25v1.875h-1.25v-1.875z"></path>
<path d="M6.25 13.75v3.75h-3.75v-3.75h3.75zM7.5 12.5h-6.25v6.25h6.25v-6.25z"></path>
</svg>
