<!-- Generated by IcoMoon.io -->
<svg version="1.1" xmlns="http://www.w3.org/2000/svg" width="20" height="20" viewBox="0 0 20 20">
<title>move-down</title>
<path d="M15 13.75v-7.5h-1.25v7.5h-3.125l3.75 3.75 3.75-3.75z"></path>
<path d="M6.25 5v3.75h-3.75v-3.75h3.75zM7.5 3.75h-6.25v6.25h6.25v-6.25z"></path>
<path d="M1.25 12.5h1.875v1.25h-1.875v-1.25z"></path>
<path d="M3.75 12.5h1.875v1.25h-1.875v-1.25z"></path>
<path d="M6.25 12.5h1.25v1.875h-1.25v-1.875z"></path>
<path d="M1.25 16.875h1.25v1.875h-1.25v-1.875z"></path>
<path d="M3.125 17.5h1.875v1.25h-1.875v-1.25z"></path>
<path d="M5.625 17.5h1.875v1.25h-1.875v-1.25z"></path>
<path d="M1.25 14.375h1.25v1.875h-1.25v-1.875z"></path>
<path d="M6.25 15h1.25v1.875h-1.25v-1.875z"></path>
</svg>
