<!-- Generated by IcoMoon.io -->
<svg version="1.1" xmlns="http://www.w3.org/2000/svg" width="20" height="20" viewBox="0 0 20 20">
<title>mug</title>
<path d="M18.75 6.25h-3.75v-1.875c0-1.726-3.358-3.125-7.5-3.125s-7.5 1.399-7.5 3.125v12.5c0 1.726 3.358 3.125 7.5 3.125s7.5-1.399 7.5-3.125v-1.875h3.75c0.69 0 1.25-0.56 1.25-1.25v-6.25c0-0.69-0.56-1.25-1.25-1.25zM3.439 5.047c-0.723-0.238-1.16-0.493-1.395-0.672 0.234-0.179 0.672-0.434 1.395-0.672 1.132-0.373 2.574-0.578 4.061-0.578s2.93 0.205 4.061 0.578c0.723 0.238 1.16 0.493 1.395 0.672-0.234 0.179-0.672 0.434-1.395 0.672-1.132 0.373-2.574 0.578-4.061 0.578s-2.93-0.205-4.061-0.578zM17.5 12.5h-2.5v-3.75h2.5v3.75z"></path>
</svg>
