<!-- Generated by IcoMoon.io -->
<svg version="1.1" xmlns="http://www.w3.org/2000/svg" width="20" height="20" viewBox="0 0 20 20">
<title>notification</title>
<path d="M10 1.875c-2.17 0-4.211 0.845-5.745 2.38s-2.38 3.575-2.38 5.745c0 2.17 0.845 4.211 2.38 5.745s3.575 2.38 5.745 2.38c2.17 0 4.211-0.845 5.745-2.38s2.38-3.575 2.38-5.745c0-2.17-0.845-4.211-2.38-5.745s-3.575-2.38-5.745-2.38zM10 0v0c5.523 0 10 4.477 10 10s-4.477 10-10 10c-5.523 0-10-4.477-10-10s4.477-10 10-10zM8.75 13.75h2.5v2.5h-2.5zM8.75 3.75h2.5v7.5h-2.5z"></path>
</svg>
