<!-- Generated by IcoMoon.io -->
<svg version="1.1" xmlns="http://www.w3.org/2000/svg" width="20" height="20" viewBox="0 0 20 20">
<title>onedrive</title>
<path d="M6.853 16.179c-1.177-0.294-1.833-1.23-1.835-2.618-0.001-0.444 0.031-0.657 0.142-0.942 0.272-0.7 0.991-1.228 1.937-1.422 0.471-0.097 0.616-0.201 0.616-0.441 0-0.075 0.056-0.3 0.125-0.499 0.311-0.904 0.887-1.658 1.503-1.967 0.644-0.323 0.97-0.396 1.749-0.391 1.107 0.006 1.659 0.246 2.432 1.057l0.425 0.446 0.381-0.132c1.842-0.637 3.678 0.448 3.826 2.261l0.040 0.496 0.363 0.13c1.036 0.371 1.523 1.15 1.434 2.296-0.058 0.749-0.408 1.347-0.963 1.644l-0.261 0.14-5.797 0.011c-4.455 0.009-5.871-0.007-6.116-0.068v0zM2.016 15.351c-0.707-0.177-1.455-0.837-1.806-1.591-0.199-0.428-0.21-0.491-0.21-1.248 0-0.72 0.017-0.836 0.176-1.193 0.334-0.754 0.974-1.298 1.778-1.512 0.17-0.045 0.329-0.117 0.354-0.16s0.053-0.277 0.062-0.519c0.056-1.508 0.992-2.836 2.299-3.263 0.706-0.23 1.632-0.252 2.4 0.073 0.244 0.103 0.216 0.125 0.731-0.589 0.305-0.422 0.881-0.869 1.385-1.136 0.544-0.289 1.109-0.422 1.785-0.42 1.89 0.005 3.519 1.254 4.121 3.161 0.192 0.609 0.183 0.78-0.044 0.785-0.099 0.002-0.383 0.060-0.631 0.128l-0.451 0.124-0.411-0.435c-1.159-1.225-3.052-1.49-4.66-0.652-0.643 0.335-1.159 0.815-1.549 1.442-0.278 0.446-0.633 1.279-0.633 1.486 0 0.147-0.112 0.22-0.592 0.386-1.486 0.515-2.354 1.705-2.353 3.227 0 0.554 0.135 1.232 0.323 1.62 0.071 0.146 0.11 0.286 0.088 0.309-0.058 0.061-1.906 0.040-2.162-0.024v0z"></path>
</svg>
