<!-- Generated by IcoMoon.io -->
<svg version="1.1" xmlns="http://www.w3.org/2000/svg" width="20" height="20" viewBox="0 0 20 20">
<title>opera</title>
<path d="M20 10v0 0c0 2.961-1.289 5.625-3.336 7.453-2.566 1.25-4.957 0.375-5.746-0.172 2.52-0.551 4.422-3.598 4.422-7.281s-1.902-6.73-4.422-7.285c0.793-0.547 3.184-1.422 5.746-0.172 2.047 1.832 3.336 4.496 3.336 7.457v0 0z"></path>
<path d="M6.707 4.363c-1.105 1.305-1.82 3.234-1.867 5.402 0 0.004 0 0.465 0 0.473 0.047 2.164 0.766 4.094 1.871 5.398 1.434 1.863 3.566 3.043 5.949 3.043 1.465 0 2.836-0.445 4.008-1.223-1.773 1.582-4.109 2.543-6.668 2.543-0.16 0-0.32-0.004-0.477-0.012-5.301-0.25-9.523-4.625-9.523-9.988 0-5.523 4.477-10 10-10 0.012 0 0.023 0 0.039 0 2.547 0.008 4.867 0.969 6.629 2.547-1.172-0.777-2.543-1.227-4.008-1.227-2.383 0-4.516 1.18-5.953 3.043z"></path>
</svg>
