<!-- Generated by IcoMoon.io -->
<svg version="1.1" xmlns="http://www.w3.org/2000/svg" width="20" height="20" viewBox="0 0 20 20">
<title>opt</title>
<path d="M18.125 16.25h-5c-0.247 0-0.471-0.145-0.571-0.371l-4.835-10.879h-5.844c-0.345 0-0.625-0.28-0.625-0.625s0.28-0.625 0.625-0.625h6.25c0.247 0 0.471 0.145 0.571 0.371l4.835 10.879h4.594c0.345 0 0.625 0.28 0.625 0.625s-0.28 0.625-0.625 0.625z"></path>
<path d="M18.125 5h-6.25c-0.345 0-0.625-0.28-0.625-0.625s0.28-0.625 0.625-0.625h6.25c0.345 0 0.625 0.28 0.625 0.625s-0.28 0.625-0.625 0.625z"></path>
</svg>
