<!-- Generated by IcoMoon.io -->
<svg version="1.1" xmlns="http://www.w3.org/2000/svg" width="20" height="20" viewBox="0 0 20 20">
<title>paypal</title>
<path d="M18.164 6.027c-0.934 4.145-3.816 6.332-8.359 6.332h-1.512l-1.051 6.672h-1.266l-0.066 0.43c-0.043 0.285 0.176 0.539 0.461 0.539h3.234c0.383 0 0.707-0.277 0.77-0.656l0.031-0.164 0.609-3.863 0.039-0.211c0.059-0.379 0.387-0.656 0.77-0.656h0.48c3.133 0 5.586-1.273 6.305-4.953 0.27-1.398 0.168-2.586-0.445-3.469z"></path>
<path d="M16.23 1.508c-0.926-1.055-2.602-1.508-4.742-1.508h-6.215c-0.438 0-0.813 0.316-0.879 0.75l-2.59 16.414c-0.051 0.324 0.199 0.617 0.527 0.617h3.84l0.965-6.113-0.031 0.191c0.066-0.434 0.438-0.75 0.875-0.75h1.824c3.582 0 6.387-1.453 7.207-5.664 0.023-0.125 0.047-0.246 0.063-0.363 0.242-1.555 0-2.617-0.844-3.574z"></path>
</svg>
