<!-- Generated by IcoMoon.io -->
<svg version="1.1" xmlns="http://www.w3.org/2000/svg" width="20" height="20" viewBox="0 0 20 20">
<title>pen</title>
<path d="M19.886 5.701l-5.587-5.587c-0.182-0.182-0.423-0.141-0.534 0.091l-0.749 1.561 5.219 5.219 1.561-0.749c0.232-0.112 0.273-0.352 0.091-0.534z"></path>
<path d="M12.019 2.644l-5.144 0.429c-0.342 0.042-0.627 0.115-0.724 0.562-0 0-0 0.001-0 0.001-1.395 6.701-6.15 13.239-6.15 13.239l1.121 1.121 5.312-5.312c-0.117-0.245-0.183-0.519-0.183-0.808 0-1.036 0.839-1.875 1.875-1.875s1.875 0.839 1.875 1.875-0.839 1.875-1.875 1.875c-0.289 0-0.564-0.066-0.808-0.183l-5.312 5.312 1.121 1.121c0 0 6.539-4.755 13.239-6.15 0-0 0.001-0 0.001-0 0.446-0.098 0.519-0.383 0.562-0.724l0.429-5.144-5.337-5.337z"></path>
</svg>
