<!-- Generated by IcoMoon.io -->
<svg version="1.1" xmlns="http://www.w3.org/2000/svg" width="20" height="20" viewBox="0 0 20 20">
<title>pinterest2</title>
<path d="M10 0c-5.516 0-10 4.484-10 10s4.484 10 10 10 10-4.484 10-10-4.484-10-10-10zM10 18.664c-0.895 0-1.754-0.137-2.566-0.387 0.352-0.574 0.883-1.52 1.078-2.27 0.105-0.406 0.539-2.059 0.539-2.059 0.281 0.539 1.109 0.996 1.984 0.996 2.613 0 4.496-2.402 4.496-5.391 0-2.863-2.336-5.004-5.34-5.004-3.738 0-5.723 2.512-5.723 5.242 0 1.27 0.676 2.852 1.758 3.355 0.164 0.078 0.25 0.043 0.289-0.117 0.027-0.121 0.176-0.707 0.242-0.984 0.020-0.086 0.012-0.164-0.059-0.25-0.359-0.434-0.645-1.234-0.645-1.977 0-1.91 1.445-3.762 3.91-3.762 2.129 0 3.617 1.449 3.617 3.523 0 2.344-1.184 3.969-2.723 3.969-0.852 0-1.488-0.703-1.281-1.566 0.246-1.031 0.719-2.141 0.719-2.883 0-0.664-0.355-1.219-1.098-1.219-0.871 0-1.566 0.898-1.566 2.105 0 0.766 0.258 1.285 0.258 1.285s-0.859 3.629-1.016 4.305c-0.176 0.75-0.105 1.801-0.031 2.484-3.223-1.258-5.508-4.391-5.508-8.063 0-4.785 3.879-8.664 8.664-8.664s8.664 3.879 8.664 8.664c0 4.785-3.879 8.664-8.664 8.664z"></path>
</svg>
