<!-- Generated by IcoMoon.io -->
<svg version="1.1" xmlns="http://www.w3.org/2000/svg" width="20" height="20" viewBox="0 0 20 20">
<title>pinterest</title>
<path d="M10 1.336c-4.785 0-8.664 3.879-8.664 8.664 0 3.672 2.285 6.805 5.508 8.066-0.074-0.684-0.145-1.738 0.031-2.484 0.156-0.676 1.016-4.305 1.016-4.305s-0.258-0.52-0.258-1.285c0-1.203 0.699-2.105 1.566-2.105 0.738 0 1.098 0.555 1.098 1.219 0 0.742-0.473 1.855-0.719 2.883-0.207 0.863 0.43 1.566 1.281 1.566 1.539 0 2.723-1.625 2.723-3.969 0-2.074-1.492-3.523-3.617-3.523-2.465 0-3.91 1.848-3.91 3.762 0 0.746 0.285 1.543 0.645 1.977 0.070 0.086 0.082 0.16 0.059 0.25-0.066 0.273-0.211 0.863-0.242 0.984-0.039 0.16-0.125 0.191-0.289 0.117-1.082-0.504-1.758-2.086-1.758-3.355 0-2.734 1.984-5.242 5.723-5.242 3.004 0 5.34 2.141 5.34 5.004 0 2.984-1.883 5.391-4.496 5.391-0.879 0-1.703-0.457-1.984-0.996 0 0-0.434 1.652-0.539 2.059-0.195 0.754-0.723 1.695-1.078 2.27 0.813 0.25 1.672 0.387 2.566 0.387 4.785 0 8.664-3.879 8.664-8.664 0-4.789-3.879-8.668-8.664-8.668z"></path>
</svg>
