<!-- Generated by IcoMoon.io -->
<svg version="1.1" xmlns="http://www.w3.org/2000/svg" width="20" height="20" viewBox="0 0 20 20">
<title>point-down</title>
<path d="M18.75 8.125v3.125c0 1.034-0.841 1.875-1.875 1.875-0.334 0-0.648-0.088-0.92-0.242-0.334 0.521-0.917 0.867-1.58 0.867-0.48 0-0.918-0.181-1.25-0.479-0.332 0.297-0.77 0.479-1.25 0.479-0.219 0-0.429-0.038-0.625-0.107v4.482c0 1.034-0.841 1.875-1.875 1.875s-1.875-0.841-1.875-1.875v-7.709l-3.438 1.833c-0.284 0.164-0.608 0.251-0.937 0.251-1.034 0-1.875-0.841-1.875-1.875 0-0.515 0.205-0.995 0.576-1.352 0.005-0.005 0.010-0.009 0.015-0.014l4.671-4.259h-0.887c-0.345 0-0.625-0.28-0.625-0.625v-3.75c0-0.345 0.28-0.625 0.625-0.625h12.5c0.345 0 0.625 0.28 0.625 0.625v3.75c0 0.345-0.28 0.625-0.625 0.625h-0.864l1.423 2.846c0.043 0.087 0.066 0.182 0.066 0.279zM17.5 3.125c0-0.345-0.28-0.625-0.625-0.625s-0.625 0.28-0.625 0.625 0.28 0.625 0.625 0.625 0.625-0.28 0.625-0.625zM17.5 8.273l-1.636-3.273h-7.497l-5.68 5.179c-0.121 0.118-0.187 0.277-0.187 0.446 0 0.345 0.28 0.625 0.625 0.625 0.107 0 0.207-0.026 0.299-0.076 0.010-0.006 0.021-0.012 0.032-0.018l4.375-2.332c0.194-0.103 0.427-0.097 0.616 0.016s0.303 0.316 0.303 0.536v8.75c0 0.345 0.28 0.625 0.625 0.625s0.625-0.28 0.625-0.625v-6.25c0-0.345 0.28-0.625 0.625-0.625s0.625 0.28 0.625 0.625c0 0.345 0.28 0.625 0.625 0.625s0.625-0.28 0.625-0.625c0-0.345 0.28-0.625 0.625-0.625s0.625 0.28 0.625 0.625c0 0.345 0.28 0.625 0.625 0.625s0.625-0.28 0.625-0.625v-0.625c0-0.345 0.28-0.625 0.625-0.625s0.625 0.28 0.625 0.625c0 0.345 0.28 0.625 0.625 0.625s0.625-0.28 0.625-0.625v-2.977z"></path>
</svg>
