<!-- Generated by IcoMoon.io -->
<svg version="1.1" xmlns="http://www.w3.org/2000/svg" width="20" height="20" viewBox="0 0 20 20">
<title>point-left</title>
<path d="M11.875 18.75h-3.125c-1.034 0-1.875-0.841-1.875-1.875 0-0.334 0.088-0.648 0.242-0.92-0.521-0.334-0.867-0.917-0.867-1.58 0-0.48 0.181-0.918 0.479-1.25-0.297-0.332-0.479-0.77-0.479-1.25 0-0.219 0.038-0.429 0.107-0.625h-4.482c-1.034 0-1.875-0.841-1.875-1.875s0.841-1.875 1.875-1.875h7.709l-1.833-3.438c-0.164-0.284-0.251-0.608-0.251-0.937 0-1.034 0.841-1.875 1.875-1.875 0.515 0 0.995 0.205 1.352 0.576 0.005 0.005 0.009 0.010 0.014 0.015l4.259 4.671v-0.887c0-0.345 0.28-0.625 0.625-0.625h3.75c0.345 0 0.625 0.28 0.625 0.625v12.5c0 0.345-0.28 0.625-0.625 0.625h-3.75c-0.345 0-0.625-0.28-0.625-0.625v-0.864l-2.846 1.423c-0.087 0.043-0.182 0.066-0.279 0.066zM16.875 17.5c0.345 0 0.625-0.28 0.625-0.625s-0.28-0.625-0.625-0.625-0.625 0.28-0.625 0.625 0.28 0.625 0.625 0.625zM11.727 17.5l3.273-1.636v-7.497l-5.179-5.68c-0.118-0.121-0.277-0.187-0.446-0.187-0.345 0-0.625 0.28-0.625 0.625 0 0.107 0.026 0.207 0.076 0.299 0.006 0.010 0.012 0.021 0.018 0.032l2.332 4.375c0.103 0.194 0.097 0.427-0.016 0.616s-0.316 0.303-0.536 0.303h-8.75c-0.345 0-0.625 0.28-0.625 0.625s0.28 0.625 0.625 0.625h6.25c0.345 0 0.625 0.28 0.625 0.625s-0.28 0.625-0.625 0.625c-0.345 0-0.625 0.28-0.625 0.625s0.28 0.625 0.625 0.625c0.345 0 0.625 0.28 0.625 0.625s-0.28 0.625-0.625 0.625c-0.345 0-0.625 0.28-0.625 0.625s0.28 0.625 0.625 0.625h0.625c0.345 0 0.625 0.28 0.625 0.625s-0.28 0.625-0.625 0.625c-0.345 0-0.625 0.28-0.625 0.625s0.28 0.625 0.625 0.625h2.977z"></path>
</svg>
