<!-- Generated by IcoMoon.io -->
<svg version="1.1" xmlns="http://www.w3.org/2000/svg" width="20" height="20" viewBox="0 0 20 20">
<title>power-cord</title>
<path d="M20 5.518l-1.768-1.768-3.491 3.491-1.982-1.982 3.491-3.491-1.768-1.768-3.491 3.491-2.241-2.241-1.692 1.692 10 10 1.692-1.692-2.241-2.241 3.491-3.491z"></path>
<path d="M15.509 13.16l-8.668-8.668c-1.871 2.244-3.995 5.712-2.527 8.696l-2.583 2.583c-0.608 0.608-0.608 1.602 0 2.21l0.29 0.29c0.608 0.608 1.602 0.608 2.21 0l2.583-2.583c2.984 1.467 6.452-0.656 8.696-2.527z"></path>
</svg>
