<!-- Generated by IcoMoon.io -->
<svg version="1.1" xmlns="http://www.w3.org/2000/svg" width="20" height="20" viewBox="0 0 20 20">
<title>price-tag</title>
<path d="M19.063 0h-7.5c-0.516 0-1.236 0.298-1.6 0.663l-9.299 9.299c-0.365 0.365-0.365 0.961 0 1.326l8.049 8.049c0.365 0.365 0.961 0.365 1.326 0l9.299-9.299c0.365-0.365 0.663-1.085 0.663-1.6v-7.5c0-0.516-0.422-0.938-0.938-0.938zM14.375 7.5c-1.036 0-1.875-0.839-1.875-1.875s0.839-1.875 1.875-1.875 1.875 0.839 1.875 1.875-0.839 1.875-1.875 1.875z"></path>
</svg>
