<!-- Generated by IcoMoon.io -->
<svg version="1.1" xmlns="http://www.w3.org/2000/svg" width="20" height="20" viewBox="0 0 20 20">
<title>printer</title>
<path d="M5 1.25h10v2.5h-10v-2.5z"></path>
<path d="M18.75 5h-17.5c-0.688 0-1.25 0.563-1.25 1.25v6.25c0 0.688 0.562 1.25 1.25 1.25h3.75v5h10v-5h3.75c0.688 0 1.25-0.563 1.25-1.25v-6.25c0-0.688-0.563-1.25-1.25-1.25zM2.5 8.75c-0.69 0-1.25-0.56-1.25-1.25s0.56-1.25 1.25-1.25 1.25 0.56 1.25 1.25-0.56 1.25-1.25 1.25zM13.75 17.5h-7.5v-6.25h7.5v6.25z"></path>
</svg>
