<!-- Generated by IcoMoon.io -->
<svg version="1.1" xmlns="http://www.w3.org/2000/svg" width="20" height="20" viewBox="0 0 20 20">
<title>profile</title>
<path d="M16.875 0h-15c-1.031 0-1.875 0.844-1.875 1.875v16.25c0 1.031 0.844 1.875 1.875 1.875h15c1.031 0 1.875-0.844 1.875-1.875v-16.25c0-1.031-0.844-1.875-1.875-1.875zM16.25 17.5h-13.75v-15h13.75v15zM5 11.25h8.75v1.25h-8.75zM5 13.75h8.75v1.25h-8.75zM6.25 5.625c0-1.036 0.839-1.875 1.875-1.875s1.875 0.839 1.875 1.875c0 1.036-0.839 1.875-1.875 1.875s-1.875-0.839-1.875-1.875zM9.375 7.5h-2.5c-1.031 0-1.875 0.563-1.875 1.25v1.25h6.25v-1.25c0-0.688-0.844-1.25-1.875-1.25z"></path>
</svg>
