<!-- Generated by IcoMoon.io -->
<svg version="1.1" xmlns="http://www.w3.org/2000/svg" width="20" height="20" viewBox="0 0 20 20">
<title>quotes-right</title>
<path d="M15.625 12.5c-2.416 0-4.375-1.959-4.375-4.375s1.959-4.375 4.375-4.375 4.375 1.959 4.375 4.375l0.020 0.625c0 4.832-3.918 8.75-8.75 8.75v-2.5c1.669 0 3.239-0.65 4.419-1.831 0.227-0.227 0.435-0.469 0.622-0.723-0.223 0.035-0.452 0.054-0.686 0.054zM4.375 12.5c-2.416 0-4.375-1.959-4.375-4.375s1.959-4.375 4.375-4.375 4.375 1.959 4.375 4.375l0.020 0.625c0 4.832-3.917 8.75-8.75 8.75v-2.5c1.669 0 3.239-0.65 4.419-1.831 0.227-0.227 0.435-0.469 0.622-0.723-0.223 0.035-0.452 0.054-0.686 0.054z"></path>
</svg>
