<!-- Generated by IcoMoon.io -->
<svg version="1.1" xmlns="http://www.w3.org/2000/svg" width="20" height="20" viewBox="0 0 20 20">
<title>quotes-left</title>
<path d="M4.395 8.75c2.416 0 4.375 1.959 4.375 4.375s-1.959 4.375-4.375 4.375-4.375-1.959-4.375-4.375l-0.020-0.625c0-4.832 3.917-8.75 8.75-8.75v2.5c-1.669 0-3.239 0.65-4.419 1.831-0.227 0.227-0.435 0.469-0.622 0.723 0.223-0.035 0.452-0.054 0.686-0.054zM15.645 8.75c2.416 0 4.375 1.959 4.375 4.375s-1.959 4.375-4.375 4.375-4.375-1.959-4.375-4.375l-0.020-0.625c0-4.832 3.918-8.75 8.75-8.75v2.5c-1.669 0-3.239 0.65-4.419 1.831-0.227 0.227-0.435 0.469-0.622 0.723 0.223-0.035 0.452-0.054 0.686-0.054z"></path>
</svg>
