<!-- Generated by IcoMoon.io -->
<svg version="1.1" xmlns="http://www.w3.org/2000/svg" width="20" height="20" viewBox="0 0 20 20">
<title>renren</title>
<path d="M8.305 0.207c-4.711 0.793-8.305 4.891-8.305 9.828 0 2.453 0.891 4.699 2.359 6.438 3.488-1.688 5.93-5.508 5.945-9.957v-6.309z"></path>
<path d="M11.695 0.207c4.711 0.793 8.305 4.891 8.305 9.828 0 2.453-0.891 4.699-2.359 6.438-3.488-1.688-5.93-5.508-5.945-9.957v-6.309z"></path>
<path d="M9.965 12.551c-0.621 2.57-2.477 4.766-4.785 6.227 1.422 0.777 3.051 1.223 4.785 1.223s3.363-0.445 4.785-1.223c-2.309-1.461-4.164-3.656-4.785-6.227z"></path>
</svg>
