<!-- Generated by IcoMoon.io -->
<svg version="1.1" xmlns="http://www.w3.org/2000/svg" width="20" height="20" viewBox="0 0 20 20">
<title>rss2</title>
<path d="M18.125 0h-16.25c-1.031 0-1.875 0.844-1.875 1.875v16.25c0 1.031 0.844 1.875 1.875 1.875h16.25c1.031 0 1.875-0.844 1.875-1.875v-16.25c0-1.031-0.844-1.875-1.875-1.875zM5.449 16.234c-0.938 0-1.699-0.754-1.699-1.691 0-0.93 0.762-1.695 1.699-1.695 0.941 0 1.699 0.766 1.699 1.695 0 0.938-0.762 1.691-1.699 1.691zM9.715 16.25c0-1.598-0.621-3.102-1.746-4.227-1.129-1.129-2.625-1.75-4.219-1.75v-2.445c4.641 0 8.422 3.777 8.422 8.422h-2.457zM14.055 16.25c0-5.684-4.621-10.313-10.301-10.313v-2.445c7.031 0 12.754 5.727 12.754 12.758h-2.453z"></path>
</svg>
