<!-- Generated by IcoMoon.io -->
<svg version="1.1" xmlns="http://www.w3.org/2000/svg" width="20" height="20" viewBox="0 0 20 20">
<title>sad2</title>
<path d="M10 0c-5.523 0-10 4.477-10 10s4.477 10 10 10 10-4.477 10-10-4.477-10-10-10zM13.75 5c0.69 0 1.25 0.56 1.25 1.25s-0.56 1.25-1.25 1.25-1.25-0.56-1.25-1.25 0.56-1.25 1.25-1.25zM6.25 5c0.69 0 1.25 0.56 1.25 1.25s-0.56 1.25-1.25 1.25-1.25-0.56-1.25-1.25 0.56-1.25 1.25-1.25zM13.752 15.249c-0.765-1.272-2.159-2.124-3.752-2.124s-2.987 0.851-3.752 2.124l-1.608-0.965c1.093-1.818 3.084-3.034 5.36-3.034s4.267 1.216 5.36 3.034l-1.608 0.965z"></path>
</svg>
