<!-- Generated by IcoMoon.io -->
<svg version="1.1" xmlns="http://www.w3.org/2000/svg" width="20" height="20" viewBox="0 0 20 20">
<title>safari</title>
<path d="M10 0c-5.523 0-10 4.477-10 10s4.477 10 10 10 10-4.477 10-10-4.477-10-10-10zM18.719 9.234l-0.020-0.207c0.004 0.070 0.012 0.137 0.020 0.207zM17.352 5.25l-0.141-0.211c0.047 0.070 0.094 0.141 0.141 0.211zM16.809 4.504l-0.086-0.105c0.031 0.035 0.059 0.070 0.086 0.105zM15.598 3.273l-0.105-0.086c0.039 0.031 0.070 0.059 0.105 0.086zM14.961 2.789l-0.211-0.141c0.070 0.047 0.141 0.094 0.211 0.141zM10.973 1.305l-0.211-0.020c0.070 0.004 0.141 0.012 0.211 0.020zM9.234 1.281l-0.211 0.020c0.070-0.004 0.141-0.012 0.211-0.020zM5.25 2.648l-0.211 0.141c0.070-0.047 0.141-0.094 0.211-0.141zM4.504 3.191l-0.102 0.082c0.035-0.027 0.066-0.055 0.102-0.082zM3.273 4.402l-0.086 0.105c0.031-0.035 0.059-0.070 0.086-0.105zM2.789 5.039l-0.141 0.211c0.047-0.070 0.094-0.141 0.141-0.211zM1.305 9.027l-0.020 0.211c0.004-0.070 0.012-0.141 0.020-0.211zM1.281 10.766l0.020 0.211c-0.004-0.070-0.012-0.141-0.020-0.211zM2.648 14.746l0.141 0.211c-0.047-0.066-0.094-0.137-0.141-0.211zM2.813 14.992l1.559-1.043-0.172-0.262-1.559 1.043c-0.707-1.098-1.172-2.359-1.328-3.719l0.934-0.094-0.031-0.313-0.934 0.094c-0.016-0.18-0.023-0.363-0.027-0.547h1.875v-0.313h-1.875c0.004-0.184 0.012-0.363 0.027-0.547l0.934 0.090 0.031-0.313-0.934-0.090c0.156-1.359 0.625-2.621 1.332-3.719l1.559 1.043 0.172-0.262-1.563-1.035c0.105-0.148 0.211-0.297 0.324-0.438l0.723 0.594 0.199-0.242-0.723-0.594c0.117-0.141 0.242-0.273 0.367-0.406l1.324 1.324 0.223-0.223-1.324-1.324c0.133-0.125 0.266-0.25 0.402-0.367l0.594 0.727 0.242-0.199-0.594-0.723c0.145-0.113 0.289-0.223 0.438-0.328l1.043 1.559 0.262-0.172-1.043-1.559c1.098-0.707 2.359-1.172 3.719-1.328l0.094 0.934 0.313-0.031-0.094-0.934c0.18-0.016 0.363-0.023 0.547-0.027v1.875h0.313v-1.875c0.184 0.004 0.363 0.012 0.547 0.027l-0.090 0.934 0.313 0.031 0.090-0.934c1.359 0.156 2.621 0.625 3.719 1.332l-1.043 1.559 0.262 0.172 1.043-1.559c0.148 0.105 0.297 0.211 0.437 0.324l-0.594 0.723 0.242 0.199 0.594-0.723c0.141 0.117 0.273 0.242 0.406 0.367l-0.5 0.488-6.836 4.559-4.559 6.836-0.488 0.488c-0.125-0.133-0.25-0.266-0.367-0.402l0.723-0.594-0.199-0.242-0.723 0.594c-0.113-0.141-0.219-0.289-0.324-0.438zM3.273 15.598c-0.027-0.035-0.055-0.066-0.082-0.102l0.082 0.102zM4.402 16.727l0.102 0.082c-0.035-0.027-0.066-0.055-0.102-0.082zM5.039 17.207l0.211 0.141c-0.070-0.043-0.141-0.090-0.211-0.141zM9.027 18.695l0.211 0.020c-0.070-0.004-0.141-0.012-0.211-0.020zM10.766 18.719l0.207-0.020c-0.070 0.004-0.137 0.012-0.207 0.020zM14.75 17.352l0.211-0.141c-0.070 0.047-0.141 0.094-0.211 0.141zM15.496 16.809l0.105-0.086c-0.035 0.031-0.070 0.059-0.105 0.086zM16.18 16.195l0.016-0.016c-0.004 0.004-0.012 0.012-0.016 0.016zM16.727 15.598l0.086-0.105c-0.031 0.035-0.059 0.070-0.086 0.105zM16.863 15.43l-0.723-0.594-0.199 0.242 0.723 0.594c-0.117 0.141-0.242 0.273-0.367 0.406l-1.324-1.324-0.223 0.223 1.324 1.324c-0.133 0.125-0.266 0.25-0.402 0.367l-0.594-0.727-0.242 0.199 0.594 0.723c-0.145 0.113-0.289 0.223-0.438 0.328l-1.043-1.559-0.262 0.172 1.043 1.559c-1.098 0.707-2.359 1.172-3.719 1.328l-0.094-0.934-0.313 0.031 0.094 0.934c-0.18 0.016-0.363 0.023-0.547 0.027v-1.875h-0.313v1.875c-0.184-0.004-0.363-0.012-0.547-0.027l0.090-0.934-0.313-0.031-0.090 0.934c-1.359-0.156-2.621-0.625-3.719-1.332l1.043-1.559-0.262-0.172-1.035 1.559c-0.148-0.105-0.297-0.211-0.438-0.324l0.594-0.723-0.242-0.199-0.594 0.723c-0.141-0.117-0.273-0.242-0.406-0.367l0.492-0.488 6.836-4.559 4.559-6.836 0.488-0.488c0.125 0.133 0.25 0.266 0.367 0.402l-0.723 0.594 0.199 0.242 0.723-0.594c0.113 0.145 0.223 0.289 0.328 0.438l-1.559 1.043 0.172 0.262 1.559-1.043c0.707 1.098 1.172 2.359 1.328 3.719l-0.934 0.094 0.031 0.313 0.934-0.094c0.016 0.18 0.023 0.363 0.027 0.547h-1.875v0.313h1.875c-0.004 0.184-0.012 0.363-0.027 0.547l-0.934-0.090-0.031 0.313 0.934 0.090c-0.156 1.359-0.625 2.621-1.332 3.719l-1.559-1.043-0.172 0.262 1.559 1.043c-0.102 0.141-0.211 0.285-0.324 0.43zM18.719 10.762c-0.008 0.070-0.012 0.141-0.020 0.211l0.020-0.211zM17.352 14.75c-0.047 0.070-0.094 0.141-0.141 0.211l0.141-0.211z"></path>
<path d="M8.448 1.388l0.366 1.839-0.307 0.061-0.366-1.839 0.307-0.061z"></path>
<path d="M11.556 18.612l-0.366-1.839 0.307-0.061 0.366 1.839-0.307 0.061z"></path>
<path d="M7.61 1.58l0.272 0.897-0.299 0.091-0.272-0.897 0.299-0.091z"></path>
<path d="M12.391 18.416l-0.272-0.897 0.299-0.091 0.272 0.897-0.299 0.091z"></path>
<path d="M6.797 1.857l0.718 1.732-0.289 0.12-0.718-1.732 0.289-0.12z"></path>
<path d="M13.206 18.144l-0.718-1.732 0.289-0.12 0.718 1.732-0.289 0.12z"></path>
<path d="M5.735 2.357l0.276-0.147 0.442 0.827-0.276 0.147-0.442-0.827z"></path>
<path d="M14.26 17.642l-0.276 0.147-0.442-0.827 0.276-0.147 0.442 0.827z"></path>
<path d="M2.355 5.739l0.827 0.442-0.147 0.276-0.827-0.442 0.147-0.276z"></path>
<path d="M17.641 14.262l-0.827-0.442 0.147-0.276 0.827 0.442-0.147 0.276z"></path>
<path d="M3.59 7.512l-1.732-0.718 0.12-0.289 1.732 0.718-0.12 0.289z"></path>
<path d="M16.413 12.486l1.732 0.718-0.12 0.289-1.732-0.718 0.12-0.289z"></path>
<path d="M1.671 7.312l0.897 0.272-0.091 0.299-0.897-0.272 0.091-0.299z"></path>
<path d="M18.326 12.689l-0.897-0.272 0.091-0.299 0.897 0.272-0.091 0.299z"></path>
<path d="M1.447 8.14l1.839 0.366-0.061 0.307-1.839-0.366 0.061-0.307z"></path>
<path d="M18.55 11.86l-1.839-0.366 0.061-0.307 1.839 0.366-0.061 0.307z"></path>
<path d="M1.386 11.554l1.839-0.366 0.061 0.307-1.839 0.366-0.061-0.307z"></path>
<path d="M18.61 8.446l-1.839 0.366-0.061-0.307 1.839-0.366 0.061 0.307z"></path>
<path d="M1.582 12.393l0.897-0.272 0.091 0.299-0.897 0.272-0.091-0.299z"></path>
<path d="M18.417 7.611l-0.897 0.272-0.091-0.299 0.897-0.272 0.091 0.299z"></path>
<path d="M1.975 13.494l-0.12-0.289 1.732-0.718 0.12 0.289-1.732 0.718z"></path>
<path d="M18.023 6.508l0.12 0.289-1.732 0.717-0.12-0.289 1.732-0.717z"></path>
<path d="M2.36 14.263l-0.147-0.276 0.827-0.442 0.147 0.276-0.827 0.442z"></path>
<path d="M17.646 5.738l0.147 0.276-0.827 0.442-0.147-0.276 0.827-0.442z"></path>
<path d="M6.013 17.79l-0.276-0.147 0.442-0.827 0.276 0.147-0.442 0.827z"></path>
<path d="M13.986 2.208l0.276 0.147-0.442 0.827-0.276-0.147 0.442-0.827z"></path>
<path d="M6.509 18.023l0.718-1.732 0.289 0.12-0.718 1.732-0.289-0.12z"></path>
<path d="M13.494 1.975l-0.718 1.732-0.289-0.12 0.718-1.732 0.289 0.12z"></path>
<path d="M7.61 18.419l-0.299-0.091 0.272-0.897 0.299 0.091-0.272 0.897z"></path>
<path d="M12.39 1.58l0.299 0.091-0.272 0.897-0.299-0.091 0.272-0.897z"></path>
<path d="M8.447 18.61l-0.307-0.061 0.366-1.839 0.307 0.061-0.366 1.839z"></path>
<path d="M11.553 1.386l0.307 0.061-0.366 1.839-0.307-0.061 0.366-1.839z"></path>
</svg>
