<!-- Generated by IcoMoon.io -->
<svg version="1.1" xmlns="http://www.w3.org/2000/svg" width="20" height="20" viewBox="0 0 20 20">
<title>section</title>
<path d="M9.687 20c-0.964 0-1.78-0.281-2.424-0.836-0.649-0.559-0.978-1.212-0.978-1.94 0-0.354 0.129-0.659 0.383-0.907 0.258-0.252 0.582-0.386 0.935-0.386 0.352 0 0.668 0.125 0.915 0.362 0.244 0.234 0.367 0.543 0.367 0.92 0 0.221-0.036 0.465-0.107 0.726-0.071 0.257-0.085 0.389-0.085 0.455 0 0.072 0.018 0.158 0.152 0.249 0.249 0.172 0.548 0.256 0.916 0.256 0.441 0 0.834-0.153 1.203-0.469 0.363-0.311 0.539-0.631 0.539-0.978 0-0.385-0.103-0.719-0.315-1.020-0.358-0.503-1.033-1.093-2.004-1.751-1.56-1.044-2.599-1.949-3.175-2.764-0.447-0.638-0.673-1.326-0.673-2.045 0-0.724 0.237-1.444 0.705-2.141 0.401-0.597 0.992-1.135 1.762-1.604-0.412-0.443-0.721-0.861-0.92-1.244-0.251-0.484-0.379-0.984-0.379-1.487 0-0.934 0.369-1.741 1.098-2.4s1.638-0.994 2.702-0.994c0.978 0 1.801 0.275 2.445 0.817 0.651 0.548 0.981 1.189 0.981 1.905 0 0.364-0.136 0.691-0.406 0.97l-0.005 0.006c-0.156 0.155-0.442 0.339-0.919 0.339-0.374 0-0.702-0.123-0.948-0.354-0.245-0.23-0.37-0.506-0.37-0.82 0-0.135 0.033-0.34 0.105-0.644 0.035-0.144 0.052-0.276 0.052-0.396 0-0.202-0.073-0.357-0.229-0.488-0.162-0.135-0.393-0.201-0.706-0.201-0.486 0-0.884 0.148-1.219 0.452-0.336 0.305-0.499 0.666-0.499 1.104 0 0.394 0.089 0.718 0.265 0.964 0.334 0.468 0.914 0.972 1.723 1.501 1.644 1.066 2.791 2.044 3.409 2.907 0.456 0.647 0.687 1.335 0.687 2.047 0 0.715-0.232 1.435-0.69 2.142-0.395 0.609-0.991 1.158-1.775 1.635 0.433 0.458 0.739 0.86 0.929 1.221 0.236 0.449 0.356 0.938 0.356 1.456 0 0.97-0.37 1.794-1.099 2.45s-1.638 0.988-2.701 0.988zM8.719 6.96c-0.942 0.565-1.401 1.215-1.401 1.979 0 0.444 0.127 0.842 0.388 1.216 0.389 0.545 1.158 1.212 2.281 1.978 0.476 0.324 0.905 0.639 1.281 0.939 0.958-0.576 1.425-1.218 1.425-1.957 0-0.402-0.159-0.835-0.473-1.287-0.328-0.473-1.032-1.090-2.092-1.834-0.553-0.382-1.027-0.729-1.41-1.034z"></path>
</svg>
