<!-- Generated by IcoMoon.io -->
<svg version="1.1" xmlns="http://www.w3.org/2000/svg" width="20" height="20" viewBox="0 0 20 20">
<title>shift</title>
<path d="M13.125 17.5h-6.25c-0.345 0-0.625-0.28-0.625-0.625v-6.875h-2.5c-0.253 0-0.481-0.152-0.577-0.386s-0.043-0.502 0.135-0.681l6.25-6.25c0.244-0.244 0.64-0.244 0.884 0l6.25 6.25c0.179 0.179 0.232 0.448 0.136 0.681s-0.325 0.386-0.577 0.386h-2.5v6.875c0 0.345-0.28 0.625-0.625 0.625zM7.5 16.25h5v-6.875c0-0.345 0.28-0.625 0.625-0.625h1.616l-4.741-4.741-4.741 4.741h1.616c0.345 0 0.625 0.28 0.625 0.625v6.875z"></path>
</svg>
