<!-- Generated by IcoMoon.io -->
<svg version="1.1" xmlns="http://www.w3.org/2000/svg" width="20" height="20" viewBox="0 0 20 20">
<title>shocked2</title>
<path d="M10 0c-5.523 0-10 4.477-10 10s4.477 10 10 10 10-4.477 10-10-4.477-10-10-10zM6.25 8.75c-0.69 0-1.25-0.839-1.25-1.875s0.56-1.875 1.25-1.875 1.25 0.839 1.25 1.875-0.56 1.875-1.25 1.875zM10 16.25c-1.381 0-2.5-1.119-2.5-2.5s1.119-2.5 2.5-2.5c1.381 0 2.5 1.119 2.5 2.5s-1.119 2.5-2.5 2.5zM13.75 8.75c-0.69 0-1.25-0.839-1.25-1.875s0.56-1.875 1.25-1.875 1.25 0.839 1.25 1.875-0.56 1.875-1.25 1.875z"></path>
</svg>
