<!-- Generated by IcoMoon.io -->
<svg version="1.1" xmlns="http://www.w3.org/2000/svg" width="20" height="20" viewBox="0 0 20 20">
<title>shuffle</title>
<path d="M15 13.75h-1.982l-3.125-3.125 3.125-3.125h1.982v3.125l4.375-4.375-4.375-4.375v3.125h-2.5c-0.332 0-0.649 0.132-0.884 0.366l-3.491 3.491-3.491-3.491c-0.234-0.234-0.552-0.366-0.884-0.366h-3.75v2.5h3.232l3.125 3.125-3.125 3.125h-3.232v2.5h3.75c0.332 0 0.649-0.132 0.884-0.366l3.491-3.491 3.491 3.491c0.234 0.234 0.552 0.366 0.884 0.366h2.5v3.125l4.375-4.375-4.375-4.375v3.125z"></path>
</svg>
