<!-- Generated by IcoMoon.io -->
<svg version="1.1" xmlns="http://www.w3.org/2000/svg" width="20" height="20" viewBox="0 0 20 20">
<title>sina-weibo</title>
<path d="M8.402 17.539c-3.313 0.328-6.172-1.172-6.387-3.344-0.215-2.176 2.297-4.199 5.605-4.527 3.313-0.328 6.172 1.172 6.383 3.344 0.219 2.176-2.293 4.203-5.602 4.527zM15.023 10.324c-0.281-0.086-0.477-0.141-0.328-0.512 0.32-0.805 0.352-1.496 0.004-1.992-0.648-0.926-2.426-0.879-4.461-0.023 0 0-0.641 0.277-0.477-0.227 0.313-1.008 0.266-1.848-0.223-2.336-1.105-1.105-4.043 0.043-6.563 2.563-1.883 1.879-2.977 3.883-2.977 5.613 0 3.305 4.242 5.316 8.391 5.316 5.437 0 9.059-3.16 9.059-5.668 0-1.52-1.277-2.379-2.426-2.734z"></path>
<path d="M18.637 4.27c-1.313-1.457-3.25-2.012-5.039-1.633v0c-0.414 0.090-0.676 0.496-0.586 0.906 0.090 0.414 0.492 0.676 0.906 0.586 1.273-0.27 2.648 0.125 3.582 1.16s1.188 2.445 0.785 3.68v0c-0.129 0.402 0.090 0.832 0.492 0.965 0.402 0.129 0.832-0.090 0.965-0.492v-0.004c0.563-1.727 0.207-3.711-1.105-5.168z"></path>
<path d="M16.617 6.094c-0.641-0.711-1.586-0.98-2.453-0.793-0.355 0.074-0.582 0.43-0.508 0.785 0.078 0.355 0.43 0.582 0.781 0.504v0c0.426-0.090 0.887 0.043 1.199 0.387 0.313 0.348 0.398 0.82 0.262 1.234v0c-0.109 0.344 0.078 0.719 0.426 0.832 0.348 0.109 0.719-0.078 0.832-0.426 0.273-0.848 0.102-1.816-0.539-2.523z"></path>
<path d="M8.586 13.605c-0.117 0.199-0.371 0.293-0.57 0.211-0.199-0.078-0.258-0.305-0.145-0.496 0.117-0.191 0.363-0.285 0.559-0.211 0.195 0.070 0.266 0.293 0.156 0.496zM7.527 14.957c-0.32 0.512-1.008 0.734-1.523 0.5-0.508-0.23-0.66-0.824-0.34-1.324 0.316-0.496 0.98-0.719 1.492-0.504 0.52 0.223 0.687 0.813 0.371 1.328zM8.73 11.34c-1.574-0.41-3.355 0.375-4.039 1.762-0.699 1.414-0.023 2.988 1.566 3.504 1.648 0.531 3.594-0.285 4.27-1.809 0.668-1.496-0.164-3.031-1.797-3.457z"></path>
</svg>
