<!-- Generated by IcoMoon.io -->
<svg version="1.1" xmlns="http://www.w3.org/2000/svg" width="20" height="20" viewBox="0 0 20 20">
<title>skype</title>
<path d="M8.313 0.73c-0.031-0.020-0.066-0.035-0.098-0.051-0.035 0.008-0.066 0.012-0.102 0.020l0.199 0.031z"></path>
<path d="M0.719 8.223c-0.008 0.035-0.012 0.070-0.016 0.102 0.020 0.031 0.031 0.063 0.051 0.094l-0.035-0.195z"></path>
<path d="M19.273 11.77c0.008-0.035 0.012-0.070 0.020-0.105-0.020-0.031-0.031-0.063-0.051-0.094l0.031 0.199z"></path>
<path d="M11.563 19.199c0.031 0.020 0.066 0.035 0.098 0.051 0.035-0.008 0.070-0.012 0.105-0.016l-0.203-0.035z"></path>
<path d="M19.293 11.664c-0.008 0.035-0.012 0.070-0.020 0.105l-0.035-0.203c0.020 0.035 0.035 0.066 0.055 0.098 0.102-0.562 0.156-1.137 0.156-1.711 0-1.273-0.25-2.512-0.742-3.676-0.477-1.125-1.156-2.137-2.023-3.004s-1.879-1.547-3-2.023c-1.164-0.492-2.402-0.742-3.676-0.742-0.602 0-1.203 0.055-1.789 0.168 0 0-0.004 0-0.004 0 0.031 0.016 0.066 0.031 0.098 0.051l-0.199-0.031c0.035-0.008 0.066-0.012 0.102-0.020-0.805-0.426-1.707-0.656-2.621-0.656-1.492 0-2.898 0.582-3.953 1.637s-1.637 2.461-1.637 3.953c0 0.949 0.246 1.887 0.703 2.711 0.008-0.035 0.012-0.070 0.016-0.102l0.035 0.199c-0.020-0.031-0.035-0.063-0.051-0.094-0.094 0.535-0.141 1.082-0.141 1.629 0 1.273 0.25 2.512 0.742 3.676 0.477 1.125 1.156 2.133 2.023 3s1.879 1.547 3.004 2.023c1.164 0.492 2.402 0.742 3.676 0.742 0.555 0 1.109-0.051 1.652-0.148-0.031-0.020-0.063-0.035-0.098-0.051l0.203 0.035c-0.035 0.008-0.070 0.012-0.105 0.016 0.836 0.473 1.785 0.727 2.75 0.727 1.492 0 2.898-0.582 3.953-1.637s1.637-2.461 1.637-3.953c-0.004-0.949-0.25-1.887-0.711-2.719zM10.043 15.738c-3.355 0-4.855-1.648-4.855-2.887 0-0.633 0.469-1.078 1.113-1.078 1.438 0 1.063 2.063 3.742 2.063 1.371 0 2.129-0.746 2.129-1.508 0-0.457-0.227-0.965-1.129-1.187l-2.984-0.746c-2.402-0.602-2.84-1.902-2.84-3.125 0-2.535 2.387-3.488 4.629-3.488 2.066 0 4.5 1.141 4.5 2.664 0 0.652-0.566 1.031-1.211 1.031-1.227 0-1-1.695-3.469-1.695-1.227 0-1.902 0.555-1.902 1.348s0.969 1.047 1.809 1.238l2.211 0.492c2.418 0.539 3.031 1.953 3.031 3.281 0 2.059-1.582 3.598-4.773 3.598z"></path>
</svg>
