<!-- Generated by IcoMoon.io -->
<svg version="1.1" xmlns="http://www.w3.org/2000/svg" width="20" height="20" viewBox="0 0 20 20">
<title>sleepy</title>
<path d="M10 20c5.523 0 10-4.477 10-10s-4.477-10-10-10-10 4.477-10 10 4.477 10 10 10zM10 1.875c4.487 0 8.125 3.638 8.125 8.125s-3.638 8.125-8.125 8.125-8.125-3.638-8.125-8.125 3.638-8.125 8.125-8.125z"></path>
<path d="M12.5 13.125c0 1.726-1.119 3.125-2.5 3.125s-2.5-1.399-2.5-3.125c0-1.726 1.119-3.125 2.5-3.125s2.5 1.399 2.5 3.125z"></path>
<path d="M8.125 6.641c-0.16 0-0.32-0.061-0.442-0.183-0.378-0.378-1.239-0.378-1.616 0-0.244 0.244-0.64 0.244-0.884 0s-0.244-0.64 0-0.884c0.87-0.87 2.514-0.87 3.384 0 0.244 0.244 0.244 0.64 0 0.884-0.122 0.122-0.282 0.183-0.442 0.183z"></path>
<path d="M14.375 6.641c-0.16 0-0.32-0.061-0.442-0.183-0.378-0.378-1.239-0.378-1.616 0-0.244 0.244-0.64 0.244-0.884 0s-0.244-0.64 0-0.884c0.87-0.87 2.514-0.87 3.384 0 0.244 0.244 0.244 0.64 0 0.884-0.122 0.122-0.282 0.183-0.442 0.183z"></path>
</svg>
