<!-- Generated by IcoMoon.io -->
<svg version="1.1" xmlns="http://www.w3.org/2000/svg" width="20" height="20" viewBox="0 0 20 20">
<title>sleepy2</title>
<path d="M10 0c-5.523 0-10 4.477-10 10s4.477 10 10 10 10-4.477 10-10-4.477-10-10-10zM6.067 6.458c-0.244 0.244-0.64 0.244-0.884 0s-0.244-0.64 0-0.884c0.87-0.87 2.514-0.87 3.384 0 0.244 0.244 0.244 0.64 0 0.884-0.122 0.122-0.282 0.183-0.442 0.183s-0.32-0.061-0.442-0.183c-0.378-0.378-1.239-0.378-1.616 0zM10 16.25c-1.381 0-2.5-1.399-2.5-3.125s1.119-3.125 2.5-3.125 2.5 1.399 2.5 3.125-1.119 3.125-2.5 3.125zM14.817 6.458c-0.122 0.122-0.282 0.183-0.442 0.183s-0.32-0.061-0.442-0.183c-0.378-0.378-1.239-0.378-1.616 0-0.244 0.244-0.64 0.244-0.884 0s-0.244-0.64 0-0.884c0.87-0.87 2.514-0.87 3.384 0 0.244 0.244 0.244 0.64 0 0.884z"></path>
</svg>
