<!-- Generated by IcoMoon.io -->
<svg version="1.1" xmlns="http://www.w3.org/2000/svg" width="20" height="20" viewBox="0 0 20 20">
<title>smile</title>
<path d="M10 20c5.523 0 10-4.477 10-10s-4.477-10-10-10-10 4.477-10 10 4.477 10 10 10zM10 1.875c4.487 0 8.125 3.638 8.125 8.125s-3.638 8.125-8.125 8.125-8.125-3.638-8.125-8.125 3.638-8.125 8.125-8.125zM5 6.25c0-0.69 0.56-1.25 1.25-1.25s1.25 0.56 1.25 1.25c0 0.69-0.56 1.25-1.25 1.25s-1.25-0.56-1.25-1.25zM12.5 6.25c0-0.69 0.56-1.25 1.25-1.25s1.25 0.56 1.25 1.25c0 0.69-0.56 1.25-1.25 1.25s-1.25-0.56-1.25-1.25zM13.752 12.251l1.608 0.965c-1.093 1.818-3.084 3.034-5.36 3.034s-4.267-1.216-5.36-3.034l1.608-0.965c0.765 1.272 2.159 2.124 3.752 2.124s2.987-0.851 3.752-2.124z"></path>
</svg>
