<!-- Generated by IcoMoon.io -->
<svg version="1.1" xmlns="http://www.w3.org/2000/svg" width="20" height="20" viewBox="0 0 20 20">
<title>sort-alpha-desc</title>
<path d="M6.25 15v-15h-2.5v15h-3.125l4.375 4.375 4.375-4.375h-3.125z"></path>
<path d="M18.125 8.75h-5c-0.23 0-0.442-0.127-0.551-0.33s-0.097-0.45 0.031-0.642l4.352-6.528h-3.832c-0.345 0-0.625-0.28-0.625-0.625s0.28-0.625 0.625-0.625h5c0.23 0 0.442 0.127 0.551 0.33s0.097 0.45-0.031 0.642l-4.352 6.528h3.832c0.345 0 0.625 0.28 0.625 0.625s-0.28 0.625-0.625 0.625z"></path>
<path d="M19.934 19.096l-3.75-7.5c-0.106-0.212-0.322-0.346-0.559-0.346s-0.453 0.134-0.559 0.346l-3.75 7.5c-0.154 0.309-0.029 0.684 0.279 0.839 0.090 0.045 0.185 0.066 0.279 0.066 0.229 0 0.45-0.127 0.559-0.346l1.077-2.154h4.227l1.077 2.154c0.154 0.309 0.53 0.434 0.839 0.279s0.434-0.53 0.279-0.838zM14.136 16.25l1.489-2.977 1.489 2.977h-2.977z"></path>
</svg>
