<!-- Generated by IcoMoon.io -->
<svg version="1.1" xmlns="http://www.w3.org/2000/svg" width="20" height="20" viewBox="0 0 20 20">
<title>sort-numeric-asc</title>
<path d="M6.25 15v-15h-2.5v15h-3.125l4.375 4.375 4.375-4.375h-3.125z"></path>
<path d="M16.875 8.75c-0.345 0-0.625-0.28-0.625-0.625v-6.875h-0.625c-0.345 0-0.625-0.28-0.625-0.625s0.28-0.625 0.625-0.625h1.25c0.345 0 0.625 0.28 0.625 0.625v7.5c0 0.345-0.28 0.625-0.625 0.625z"></path>
<path d="M18.125 11.25h-3.75c-0.345 0-0.625 0.28-0.625 0.625v3.75c0 0.345 0.28 0.625 0.625 0.625h3.125v2.5h-3.125c-0.345 0-0.625 0.28-0.625 0.625s0.28 0.625 0.625 0.625h3.75c0.345 0 0.625-0.28 0.625-0.625v-7.5c0-0.345-0.28-0.625-0.625-0.625zM15 12.5h2.5v2.5h-2.5v-2.5z"></path>
</svg>
