<!-- Generated by IcoMoon.io -->
<svg version="1.1" xmlns="http://www.w3.org/2000/svg" width="20" height="20" viewBox="0 0 20 20">
<title>soundcloud2</title>
<path d="M18.125 0h-16.25c-1.031 0-1.875 0.844-1.875 1.875v16.25c0 1.031 0.844 1.875 1.875 1.875h16.25c1.031 0 1.875-0.844 1.875-1.875v-16.25c0-1.031-0.844-1.875-1.875-1.875zM3.438 13.75h-0.625l-0.313-1.875 0.313-1.875h0.625l0.313 1.875-0.313 1.875zM5.938 13.75h-0.625l-0.313-2.5 0.313-2.5h0.625l0.313 2.5-0.313 2.5zM8.438 13.75h-0.625l-0.313-3.75 0.313-3.75h0.625l0.313 3.75-0.313 3.75zM16.117 13.75c-0.039 0-5.883-0.004-5.887-0.004-0.125-0.012-0.227-0.121-0.23-0.25v-6.742c0-0.125 0.043-0.188 0.203-0.25 0.414-0.16 0.879-0.254 1.359-0.254 1.957 0 3.563 1.5 3.734 3.418 0.254-0.105 0.531-0.164 0.82-0.164 1.172 0 2.125 0.953 2.125 2.125s-0.953 2.121-2.125 2.121z"></path>
</svg>
