<!-- Generated by IcoMoon.io -->
<svg version="1.1" xmlns="http://www.w3.org/2000/svg" width="20" height="20" viewBox="0 0 20 20">
<title>spinner10</title>
<path d="M0.001 10.032l-0 0c0 0 0 0.002 0.001 0.004 0.002 0.076 0.011 0.15 0.026 0.222 0.004 0.034 0.008 0.071 0.013 0.113 0.004 0.037 0.009 0.076 0.014 0.119 0.007 0.050 0.015 0.103 0.023 0.16 0.017 0.112 0.035 0.237 0.057 0.37 0.026 0.126 0.055 0.262 0.085 0.408 0.014 0.073 0.035 0.147 0.054 0.223s0.041 0.154 0.062 0.234c0.011 0.040 0.020 0.081 0.033 0.121s0.026 0.082 0.039 0.123 0.053 0.167 0.081 0.254c0.007 0.022 0.014 0.043 0.021 0.065 0.008 0.022 0.016 0.043 0.024 0.065 0.016 0.043 0.032 0.087 0.049 0.131 0.033 0.088 0.067 0.177 0.101 0.268 0.038 0.089 0.078 0.18 0.117 0.272 0.020 0.046 0.040 0.092 0.060 0.139s0.044 0.092 0.067 0.138c0.045 0.092 0.091 0.185 0.138 0.28 0.048 0.093 0.102 0.186 0.153 0.28 0.026 0.047 0.052 0.094 0.079 0.141s0.057 0.093 0.085 0.139c0.058 0.093 0.116 0.186 0.174 0.28 0.247 0.369 0.521 0.734 0.824 1.080 0.307 0.343 0.639 0.669 0.99 0.969 0.355 0.296 0.728 0.564 1.108 0.803 0.383 0.235 0.774 0.436 1.16 0.608 0.098 0.040 0.195 0.079 0.291 0.118 0.048 0.019 0.095 0.040 0.143 0.057s0.096 0.034 0.144 0.051 0.189 0.068 0.283 0.098c0.094 0.028 0.188 0.056 0.28 0.083 0.046 0.013 0.091 0.028 0.137 0.039s0.091 0.022 0.136 0.033 0.179 0.043 0.266 0.064c0.088 0.017 0.174 0.034 0.259 0.050 0.042 0.008 0.084 0.016 0.126 0.024 0.021 0.004 0.041 0.008 0.062 0.012 0.021 0.003 0.041 0.006 0.062 0.009 0.082 0.011 0.162 0.023 0.24 0.033 0.039 0.005 0.078 0.011 0.116 0.016s0.076 0.007 0.114 0.011 0.147 0.013 0.218 0.019c0.071 0.006 0.139 0.013 0.206 0.014 0.004 0 0.009 0 0.013 0.001 0.012 0.68 0.567 1.227 1.249 1.227 0.011 0 0.021-0.001 0.032-0.001v0c0 0 0.002-0 0.004-0.001 0.076-0.002 0.15-0.011 0.222-0.026 0.034-0.004 0.072-0.008 0.113-0.013 0.037-0.004 0.076-0.009 0.119-0.014 0.050-0.007 0.103-0.015 0.16-0.023 0.112-0.017 0.237-0.035 0.37-0.057 0.126-0.026 0.262-0.055 0.408-0.085 0.073-0.014 0.147-0.035 0.223-0.054s0.154-0.041 0.234-0.062c0.040-0.011 0.081-0.020 0.121-0.033s0.082-0.026 0.123-0.039 0.167-0.053 0.254-0.081c0.022-0.007 0.043-0.014 0.065-0.021s0.043-0.016 0.065-0.024 0.087-0.032 0.131-0.049c0.088-0.033 0.177-0.067 0.268-0.101 0.089-0.038 0.18-0.078 0.272-0.117 0.046-0.020 0.092-0.040 0.139-0.060s0.092-0.044 0.138-0.067c0.092-0.045 0.185-0.091 0.28-0.138 0.093-0.048 0.186-0.102 0.28-0.153 0.047-0.026 0.094-0.052 0.141-0.079s0.093-0.057 0.139-0.085c0.093-0.058 0.186-0.116 0.28-0.175 0.369-0.247 0.734-0.521 1.080-0.824 0.343-0.307 0.669-0.639 0.969-0.99 0.296-0.355 0.564-0.728 0.803-1.108 0.235-0.383 0.436-0.774 0.608-1.16 0.040-0.098 0.079-0.195 0.119-0.291 0.019-0.048 0.040-0.095 0.057-0.143s0.034-0.096 0.051-0.144 0.068-0.189 0.098-0.283c0.028-0.094 0.056-0.188 0.083-0.279 0.013-0.046 0.028-0.091 0.039-0.137s0.022-0.091 0.033-0.136 0.043-0.179 0.064-0.266c0.017-0.088 0.034-0.174 0.050-0.259 0.008-0.042 0.016-0.084 0.024-0.126 0.004-0.021 0.008-0.041 0.012-0.062s0.006-0.041 0.009-0.062c0.011-0.082 0.023-0.162 0.033-0.24 0.005-0.039 0.011-0.078 0.016-0.116s0.007-0.076 0.011-0.114 0.013-0.147 0.019-0.218c0.006-0.071 0.013-0.139 0.014-0.206 0-0.010 0.001-0.020 0.001-0.031 0.688-0.003 1.245-0.561 1.245-1.25 0-0.011-0.001-0.021-0.001-0.032h0c0 0-0-0.002-0.001-0.004-0.002-0.076-0.011-0.15-0.026-0.222-0.004-0.034-0.008-0.072-0.013-0.113-0.004-0.037-0.009-0.076-0.014-0.119-0.007-0.050-0.015-0.103-0.023-0.16-0.017-0.112-0.035-0.237-0.057-0.37-0.026-0.126-0.055-0.262-0.085-0.407-0.014-0.073-0.035-0.147-0.054-0.223s-0.041-0.154-0.062-0.234c-0.011-0.040-0.020-0.081-0.033-0.121s-0.026-0.082-0.039-0.123-0.053-0.167-0.081-0.254c-0.007-0.022-0.014-0.043-0.021-0.065-0.008-0.021-0.016-0.043-0.024-0.065-0.016-0.043-0.032-0.087-0.049-0.131-0.033-0.088-0.067-0.177-0.101-0.268-0.038-0.089-0.078-0.18-0.117-0.272-0.020-0.046-0.040-0.092-0.060-0.139s-0.044-0.092-0.067-0.138c-0.045-0.092-0.091-0.185-0.138-0.28-0.048-0.093-0.102-0.186-0.153-0.28-0.026-0.047-0.052-0.094-0.079-0.141s-0.057-0.093-0.085-0.139c-0.058-0.093-0.116-0.186-0.174-0.28-0.247-0.369-0.521-0.734-0.824-1.080-0.307-0.343-0.639-0.669-0.99-0.969-0.355-0.296-0.728-0.564-1.108-0.803-0.383-0.235-0.774-0.436-1.16-0.608-0.098-0.040-0.195-0.079-0.291-0.119-0.048-0.019-0.095-0.040-0.143-0.057s-0.096-0.034-0.144-0.051-0.189-0.068-0.283-0.098c-0.094-0.028-0.188-0.056-0.28-0.083-0.046-0.013-0.091-0.028-0.137-0.039s-0.091-0.022-0.136-0.033-0.179-0.043-0.266-0.064c-0.088-0.017-0.174-0.034-0.259-0.050-0.042-0.008-0.084-0.016-0.126-0.024-0.021-0.004-0.041-0.008-0.062-0.012s-0.041-0.006-0.062-0.009c-0.082-0.011-0.162-0.023-0.24-0.033-0.039-0.005-0.078-0.011-0.116-0.016s-0.076-0.007-0.114-0.011-0.147-0.013-0.218-0.019c-0.071-0.006-0.139-0.013-0.206-0.014-0.017-0.001-0.033-0.001-0.049-0.002-0.013-0.679-0.567-1.226-1.249-1.226-0.011 0-0.021 0.001-0.032 0.001l-0-0c0 0-0.002 0-0.004 0.001-0.076 0.002-0.15 0.011-0.222 0.026-0.034 0.004-0.072 0.008-0.113 0.013-0.037 0.004-0.076 0.009-0.119 0.014-0.050 0.007-0.103 0.015-0.16 0.023-0.112 0.017-0.237 0.035-0.37 0.057-0.126 0.026-0.262 0.055-0.408 0.085-0.073 0.014-0.147 0.035-0.223 0.054s-0.154 0.041-0.234 0.062c-0.040 0.011-0.081 0.020-0.121 0.033s-0.082 0.026-0.123 0.039-0.167 0.053-0.254 0.081c-0.022 0.007-0.043 0.014-0.065 0.021s-0.043 0.016-0.065 0.024-0.087 0.032-0.131 0.049c-0.088 0.033-0.177 0.067-0.268 0.101-0.089 0.038-0.18 0.078-0.272 0.117-0.046 0.020-0.092 0.040-0.139 0.060s-0.092 0.044-0.138 0.067c-0.092 0.045-0.185 0.091-0.28 0.138-0.093 0.048-0.186 0.102-0.28 0.153-0.047 0.026-0.094 0.052-0.141 0.079s-0.093 0.057-0.139 0.085c-0.093 0.058-0.186 0.116-0.28 0.175-0.369 0.247-0.734 0.521-1.080 0.824-0.343 0.307-0.669 0.639-0.969 0.99-0.296 0.355-0.564 0.728-0.803 1.108-0.235 0.383-0.436 0.774-0.608 1.16-0.040 0.098-0.079 0.195-0.119 0.291-0.019 0.048-0.040 0.095-0.057 0.143s-0.034 0.096-0.051 0.144-0.068 0.189-0.098 0.283c-0.028 0.094-0.056 0.188-0.083 0.279-0.013 0.046-0.028 0.091-0.039 0.137s-0.022 0.091-0.033 0.136-0.043 0.179-0.064 0.266c-0.017 0.088-0.034 0.174-0.050 0.259-0.008 0.042-0.016 0.084-0.024 0.126-0.004 0.021-0.008 0.041-0.012 0.062s-0.006 0.041-0.009 0.062c-0.011 0.082-0.023 0.162-0.033 0.24-0.005 0.039-0.011 0.078-0.016 0.116s-0.007 0.076-0.011 0.114-0.013 0.147-0.019 0.218c-0.006 0.071-0.013 0.139-0.014 0.206-0 0.011-0.001 0.021-0.001 0.032-0.671 0.022-1.209 0.572-1.209 1.249 0 0.011 0.001 0.021 0.001 0.032zM1.436 8.764c0.001-0.004 0.002-0.008 0.002-0.011 0.013-0.063 0.032-0.128 0.050-0.194s0.037-0.134 0.056-0.204c0.010-0.035 0.018-0.070 0.030-0.106s0.023-0.071 0.035-0.107 0.048-0.146 0.073-0.221c0.006-0.019 0.012-0.038 0.019-0.056s0.014-0.037 0.022-0.056 0.029-0.076 0.044-0.114c0.030-0.076 0.060-0.154 0.091-0.233 0.035-0.077 0.070-0.156 0.105-0.236 0.018-0.040 0.036-0.080 0.054-0.12s0.040-0.080 0.060-0.12c0.040-0.080 0.081-0.161 0.123-0.242 0.043-0.081 0.091-0.161 0.137-0.242 0.023-0.041 0.046-0.081 0.070-0.122s0.051-0.080 0.076-0.12c0.051-0.080 0.103-0.161 0.155-0.242 0.219-0.318 0.462-0.633 0.729-0.93 0.271-0.295 0.563-0.574 0.871-0.831 0.312-0.252 0.638-0.481 0.97-0.684 0.335-0.199 0.676-0.368 1.010-0.513 0.085-0.033 0.169-0.066 0.253-0.099 0.042-0.016 0.082-0.033 0.124-0.048s0.084-0.028 0.125-0.042 0.164-0.056 0.245-0.081c0.082-0.023 0.162-0.046 0.242-0.068 0.040-0.011 0.079-0.023 0.118-0.032s0.079-0.018 0.118-0.027 0.154-0.035 0.229-0.052c0.076-0.013 0.151-0.027 0.224-0.039 0.036-0.006 0.073-0.013 0.108-0.019 0.018-0.003 0.036-0.006 0.053-0.009s0.036-0.004 0.053-0.006c0.071-0.009 0.14-0.017 0.207-0.026 0.034-0.004 0.067-0.008 0.1-0.013s0.066-0.005 0.098-0.008 0.127-0.009 0.188-0.014c0.061-0.004 0.119-0.010 0.177-0.010 0.114-0.003 0.221-0.005 0.32-0.007 0.091 0.003 0.175 0.006 0.25 0.009 0.037 0.001 0.073 0.002 0.106 0.003 0.041 0.003 0.080 0.005 0.116 0.007 0.042 0.003 0.079 0.005 0.114 0.007 0.064 0.010 0.129 0.015 0.195 0.015 0.009 0 0.018-0.001 0.027-0.001 0.003 0 0.004 0 0.004 0v-0c0.608-0.015 1.108-0.465 1.202-1.050 0.011 0.002 0.021 0.005 0.031 0.007 0.063 0.013 0.128 0.032 0.194 0.050s0.134 0.037 0.204 0.056c0.035 0.010 0.070 0.018 0.106 0.030s0.071 0.023 0.107 0.035 0.145 0.048 0.221 0.073c0.019 0.006 0.038 0.012 0.056 0.019s0.037 0.014 0.056 0.022 0.076 0.029 0.114 0.044 0.154 0.060 0.233 0.091c0.077 0.035 0.156 0.070 0.236 0.105 0.040 0.018 0.080 0.036 0.12 0.054s0.080 0.040 0.12 0.060c0.080 0.040 0.161 0.081 0.242 0.123 0.081 0.043 0.161 0.091 0.242 0.137 0.041 0.023 0.081 0.046 0.122 0.070s0.080 0.051 0.12 0.076c0.080 0.051 0.161 0.103 0.242 0.155 0.318 0.219 0.633 0.462 0.93 0.729 0.295 0.271 0.574 0.563 0.831 0.871 0.252 0.312 0.481 0.638 0.684 0.97 0.199 0.335 0.368 0.676 0.513 1.010 0.033 0.085 0.066 0.169 0.099 0.253 0.016 0.042 0.033 0.082 0.048 0.124s0.028 0.084 0.042 0.125 0.056 0.164 0.081 0.245c0.023 0.082 0.046 0.162 0.068 0.242 0.011 0.040 0.023 0.079 0.032 0.118s0.018 0.079 0.027 0.118 0.035 0.154 0.052 0.229c0.013 0.076 0.027 0.151 0.040 0.224 0.006 0.036 0.013 0.073 0.019 0.108 0.003 0.018 0.006 0.036 0.009 0.053s0.004 0.036 0.006 0.053c0.009 0.071 0.017 0.14 0.026 0.207 0.004 0.034 0.008 0.067 0.013 0.1s0.005 0.066 0.008 0.098 0.009 0.127 0.014 0.188c0.004 0.061 0.010 0.119 0.010 0.177 0.003 0.114 0.005 0.221 0.007 0.32-0.003 0.091-0.006 0.175-0.009 0.25-0.001 0.037-0.002 0.073-0.003 0.106-0.003 0.041-0.005 0.080-0.007 0.116-0.003 0.042-0.005 0.079-0.007 0.114-0.010 0.064-0.015 0.129-0.015 0.195 0 0.009 0.001 0.018 0.001 0.027-0 0.003-0 0.004-0 0.004h0c0.015 0.601 0.454 1.096 1.029 1.199-0.001 0.006-0.003 0.011-0.004 0.017-0.013 0.063-0.032 0.128-0.050 0.194s-0.037 0.134-0.056 0.204c-0.010 0.035-0.018 0.070-0.030 0.106s-0.023 0.071-0.035 0.107-0.048 0.146-0.073 0.221c-0.006 0.019-0.012 0.038-0.019 0.056s-0.014 0.037-0.022 0.056-0.029 0.076-0.044 0.114c-0.030 0.076-0.060 0.154-0.091 0.233-0.035 0.077-0.070 0.156-0.105 0.236-0.018 0.040-0.036 0.080-0.054 0.12s-0.040 0.080-0.060 0.12c-0.040 0.080-0.081 0.161-0.123 0.242-0.043 0.081-0.091 0.161-0.137 0.242-0.023 0.041-0.046 0.081-0.070 0.122s-0.051 0.080-0.076 0.12c-0.051 0.080-0.103 0.161-0.155 0.242-0.219 0.318-0.462 0.633-0.729 0.93-0.271 0.295-0.563 0.574-0.871 0.831-0.312 0.252-0.638 0.481-0.97 0.684-0.335 0.199-0.676 0.368-1.010 0.513-0.085 0.033-0.169 0.066-0.253 0.099-0.042 0.016-0.082 0.033-0.124 0.048s-0.084 0.028-0.125 0.042-0.164 0.056-0.245 0.081c-0.082 0.023-0.162 0.046-0.242 0.068-0.040 0.011-0.079 0.023-0.118 0.032s-0.079 0.018-0.118 0.027-0.154 0.035-0.229 0.052c-0.076 0.013-0.151 0.027-0.224 0.039-0.036 0.006-0.073 0.013-0.108 0.019-0.018 0.003-0.036 0.006-0.053 0.009s-0.036 0.004-0.053 0.006c-0.071 0.009-0.14 0.017-0.207 0.026-0.034 0.004-0.067 0.008-0.1 0.013s-0.066 0.005-0.098 0.008-0.127 0.009-0.188 0.014c-0.061 0.004-0.119 0.010-0.177 0.010-0.114 0.003-0.221 0.005-0.32 0.007-0.091-0.003-0.175-0.006-0.25-0.009-0.037-0.001-0.073-0.002-0.106-0.003-0.041-0.003-0.080-0.005-0.116-0.007-0.042-0.003-0.079-0.005-0.114-0.007-0.064-0.010-0.129-0.015-0.195-0.015-0.009 0-0.018 0.001-0.027 0.001-0.003-0-0.004-0-0.004-0v0c-0.606 0.015-1.104 0.461-1.201 1.042-0.063-0.012-0.126-0.031-0.191-0.049s-0.134-0.037-0.204-0.056c-0.035-0.010-0.070-0.018-0.106-0.030s-0.071-0.024-0.107-0.035-0.145-0.048-0.221-0.073c-0.019-0.006-0.038-0.012-0.056-0.019s-0.037-0.014-0.056-0.022-0.076-0.029-0.114-0.044c-0.076-0.030-0.154-0.060-0.233-0.091-0.077-0.035-0.156-0.070-0.236-0.105-0.040-0.018-0.080-0.036-0.12-0.054s-0.080-0.040-0.12-0.060c-0.080-0.040-0.161-0.081-0.242-0.123-0.081-0.043-0.161-0.091-0.242-0.137-0.041-0.023-0.081-0.046-0.122-0.070s-0.080-0.051-0.12-0.076c-0.080-0.051-0.161-0.103-0.242-0.155-0.318-0.219-0.633-0.462-0.93-0.729-0.295-0.271-0.574-0.563-0.831-0.871-0.252-0.312-0.481-0.638-0.684-0.97-0.199-0.335-0.368-0.676-0.513-1.010-0.033-0.085-0.066-0.169-0.099-0.253-0.016-0.042-0.033-0.082-0.048-0.124s-0.028-0.084-0.042-0.125-0.056-0.164-0.081-0.245c-0.023-0.082-0.046-0.162-0.068-0.242-0.011-0.040-0.023-0.079-0.032-0.118s-0.018-0.079-0.027-0.118-0.035-0.154-0.052-0.229c-0.013-0.076-0.027-0.151-0.040-0.224-0.006-0.036-0.013-0.073-0.019-0.108-0.003-0.018-0.006-0.036-0.009-0.053s-0.004-0.036-0.006-0.053c-0.009-0.071-0.017-0.14-0.026-0.207-0.004-0.034-0.008-0.067-0.013-0.1s-0.005-0.066-0.008-0.098-0.009-0.127-0.014-0.188c-0.004-0.061-0.010-0.119-0.010-0.177-0.003-0.114-0.005-0.221-0.007-0.32 0.003-0.091 0.006-0.175 0.009-0.25 0.001-0.037 0.002-0.073 0.003-0.106 0.003-0.041 0.005-0.080 0.007-0.116 0.003-0.042 0.005-0.079 0.007-0.114 0.010-0.064 0.015-0.129 0.015-0.195 0-0.009-0.001-0.018-0.001-0.027 0-0.003 0-0.004 0-0.004h-0c-0.015-0.613-0.471-1.116-1.063-1.205z"></path>
</svg>
