<!-- Generated by IcoMoon.io -->
<svg version="1.1" xmlns="http://www.w3.org/2000/svg" width="20" height="20" viewBox="0 0 20 20">
<title>spinner11</title>
<path d="M20 7.5h-7.5l2.803-2.803c-1.417-1.417-3.3-2.197-5.303-2.197s-3.887 0.78-5.303 2.197c-1.417 1.417-2.197 3.3-2.197 5.303s0.78 3.887 2.197 5.303c1.417 1.417 3.3 2.197 5.303 2.197s3.887-0.78 5.303-2.197c0.118-0.118 0.232-0.24 0.341-0.365l1.881 1.646c-1.833 2.093-4.525 3.415-7.525 3.415-5.523 0-10-4.477-10-10s4.477-10 10-10c2.761 0 5.261 1.12 7.071 2.929l2.929-2.929v7.5z"></path>
</svg>
