<!-- Generated by IcoMoon.io -->
<svg version="1.1" xmlns="http://www.w3.org/2000/svg" width="20" height="20" viewBox="0 0 20 20">
<title>spinner5</title>
<path d="M10 0c-5.523 0-10 4.477-10 10s4.477 10 10 10 10-4.477 10-10-4.477-10-10-10zM10 5c2.761 0 5 2.239 5 5s-2.239 5-5 5-5-2.239-5-5 2.239-5 5-5zM15.966 15.966c-1.594 1.594-3.713 2.471-5.966 2.471s-4.373-0.878-5.966-2.471-2.471-3.712-2.471-5.966c0-2.254 0.878-4.373 2.471-5.966l1.326 1.326c0 0 0 0 0 0-2.559 2.559-2.559 6.722 0 9.281 1.239 1.239 2.887 1.922 4.64 1.922s3.401-0.683 4.64-1.922c2.559-2.559 2.559-6.722 0-9.281l1.326-1.326c1.594 1.594 2.471 3.713 2.471 5.966s-0.878 4.373-2.471 5.966z"></path>
</svg>
