<!-- Generated by IcoMoon.io -->
<svg version="1.1" xmlns="http://www.w3.org/2000/svg" width="20" height="20" viewBox="0 0 20 20">
<title>spinner9</title>
<path d="M10 0c-5.444 0-9.872 4.351-9.997 9.765 0.116-4.724 3.708-8.515 8.122-8.515 4.487 0 8.125 3.918 8.125 8.75 0 1.036 0.839 1.875 1.875 1.875s1.875-0.839 1.875-1.875c0-5.523-4.477-10-10-10zM10 20c5.444 0 9.872-4.351 9.997-9.765-0.116 4.724-3.708 8.515-8.122 8.515-4.487 0-8.125-3.918-8.125-8.75 0-1.036-0.839-1.875-1.875-1.875s-1.875 0.839-1.875 1.875c0 5.523 4.477 10 10 10z"></path>
</svg>
