<!-- Generated by IcoMoon.io -->
<svg version="1.1" xmlns="http://www.w3.org/2000/svg" width="20" height="20" viewBox="0 0 20 20">
<title>spinner8</title>
<path d="M10 20c-2.671 0-5.182-1.040-7.071-2.929s-2.929-4.4-2.929-7.071c0-1.891 0.531-3.733 1.535-5.326 0.977-1.549 2.357-2.8 3.991-3.619l0.84 1.676c-1.329 0.666-2.451 1.683-3.245 2.943-0.815 1.293-1.246 2.789-1.246 4.326 0 4.48 3.645 8.125 8.125 8.125s8.125-3.645 8.125-8.125c0-1.537-0.431-3.033-1.246-4.326-0.794-1.259-1.916-2.277-3.245-2.943l0.84-1.676c1.635 0.819 3.015 2.070 3.991 3.619 1.004 1.593 1.535 3.435 1.535 5.326 0 2.671-1.040 5.182-2.929 7.071s-4.4 2.929-7.071 2.929z"></path>
</svg>
