<!-- Generated by IcoMoon.io -->
<svg version="1.1" xmlns="http://www.w3.org/2000/svg" width="20" height="20" viewBox="0 0 20 20">
<title>spinner6</title>
<path d="M7.5 2.5c0-1.381 1.119-2.5 2.5-2.5s2.5 1.119 2.5 2.5c0 1.381-1.119 2.5-2.5 2.5s-2.5-1.119-2.5-2.5zM15.449 10c0 0 0 0 0 0 0-1.133 0.918-2.051 2.051-2.051s2.051 0.918 2.051 2.051c0 0 0 0 0 0 0 1.133-0.918 2.051-2.051 2.051s-2.051-0.918-2.051-2.051zM13.446 15.303c0-1.026 0.832-1.858 1.858-1.858s1.858 0.832 1.858 1.858c0 1.026-0.832 1.858-1.858 1.858s-1.858-0.832-1.858-1.858zM8.318 17.5c0-0.929 0.753-1.682 1.682-1.682s1.682 0.753 1.682 1.682c0 0.929-0.753 1.682-1.682 1.682s-1.682-0.753-1.682-1.682zM3.173 15.303c0-0.842 0.682-1.524 1.524-1.524s1.524 0.682 1.524 1.524c0 0.842-0.682 1.524-1.524 1.524s-1.524-0.682-1.524-1.524zM1.12 10c0-0.762 0.618-1.38 1.38-1.38s1.38 0.618 1.38 1.38c0 0.762-0.618 1.38-1.38 1.38s-1.38-0.618-1.38-1.38zM3.447 4.697c0 0 0 0 0 0 0-0.69 0.56-1.25 1.25-1.25s1.25 0.56 1.25 1.25c0 0 0 0 0 0 0 0.69-0.56 1.25-1.25 1.25s-1.25-0.56-1.25-1.25zM17.568 4.697c0 1.25-1.014 2.264-2.264 2.264s-2.264-1.014-2.264-2.264c0-1.251 1.014-2.264 2.264-2.264s2.264 1.014 2.264 2.264z"></path>
</svg>
