<!-- Generated by IcoMoon.io -->
<svg version="1.1" xmlns="http://www.w3.org/2000/svg" width="20" height="20" viewBox="0 0 20 20">
<title>spinner3</title>
<path d="M10 5.92c-0.644 0-1.166-0.522-1.166-1.166v-3.497c0-0.644 0.522-1.166 1.166-1.166s1.166 0.522 1.166 1.166v3.497c0 0.644-0.522 1.166-1.166 1.166z"></path>
<path d="M10 19.472c-0.402 0-0.729-0.326-0.729-0.729v-3.497c0-0.402 0.326-0.729 0.729-0.729s0.729 0.326 0.729 0.729v3.497c0 0.402-0.326 0.729-0.729 0.729z"></path>
<path d="M7.378 6.55c-0.378 0-0.745-0.196-0.947-0.547l-1.749-3.029c-0.302-0.523-0.123-1.191 0.4-1.493s1.191-0.123 1.493 0.4l1.749 3.029c0.302 0.523 0.123 1.191-0.4 1.493-0.172 0.099-0.36 0.147-0.545 0.147z"></path>
<path d="M14.372 18.228c-0.227 0-0.447-0.118-0.569-0.328l-1.749-3.029c-0.181-0.314-0.074-0.715 0.24-0.896s0.715-0.074 0.896 0.24l1.749 3.029c0.181 0.314 0.074 0.715-0.24 0.896-0.103 0.060-0.216 0.088-0.327 0.088z"></path>
<path d="M5.456 8.397c-0.173 0-0.348-0.044-0.509-0.137l-3.029-1.749c-0.488-0.282-0.655-0.906-0.373-1.393s0.906-0.655 1.393-0.373l3.029 1.749c0.488 0.282 0.655 0.906 0.373 1.393-0.189 0.327-0.532 0.51-0.884 0.51z"></path>
<path d="M17.571 14.955c-0.099 0-0.199-0.025-0.291-0.078l-3.029-1.749c-0.279-0.161-0.374-0.517-0.213-0.796s0.517-0.374 0.796-0.213l3.029 1.749c0.279 0.161 0.374 0.517 0.213 0.796-0.108 0.187-0.304 0.292-0.505 0.292z"></path>
<path d="M4.754 10.947h-3.497c-0.523 0-0.947-0.424-0.947-0.947s0.424-0.947 0.947-0.947h3.497c0.523 0 0.947 0.424 0.947 0.947s-0.424 0.947-0.947 0.947z"></path>
<path d="M18.743 10.583c-0 0 0 0 0 0h-3.497c-0.322-0-0.583-0.261-0.583-0.583s0.261-0.583 0.583-0.583c0 0 0 0 0 0h3.497c0.322 0 0.583 0.261 0.583 0.583s-0.261 0.583-0.583 0.583z"></path>
<path d="M2.429 15.246c-0.302 0-0.596-0.157-0.758-0.437-0.241-0.418-0.098-0.953 0.32-1.194l3.029-1.749c0.418-0.242 0.953-0.098 1.194 0.32s0.098 0.953-0.32 1.194l-3.029 1.749c-0.138 0.079-0.288 0.117-0.436 0.117z"></path>
<path d="M14.544 7.96c-0.201 0-0.397-0.105-0.505-0.292-0.161-0.279-0.065-0.635 0.213-0.796l3.029-1.749c0.279-0.161 0.635-0.065 0.796 0.213s0.065 0.635-0.213 0.796l-3.029 1.749c-0.092 0.053-0.192 0.078-0.291 0.078z"></path>
<path d="M5.628 18.373c-0.136 0-0.274-0.035-0.4-0.108-0.383-0.221-0.515-0.711-0.293-1.095l1.749-3.029c0.221-0.383 0.711-0.515 1.095-0.293s0.515 0.712 0.293 1.095l-1.749 3.029c-0.148 0.257-0.418 0.401-0.695 0.401z"></path>
<path d="M12.622 6.040c-0.099 0-0.199-0.025-0.291-0.078-0.279-0.161-0.374-0.517-0.213-0.796l1.749-3.029c0.161-0.279 0.517-0.374 0.796-0.213s0.374 0.517 0.213 0.796l-1.749 3.029c-0.108 0.187-0.304 0.291-0.505 0.291z"></path>
</svg>
