<!-- Generated by IcoMoon.io -->
<svg version="1.1" xmlns="http://www.w3.org/2000/svg" width="20" height="20" viewBox="0 0 20 20">
<title>spoon-knife</title>
<path d="M4.375 0c-2.071 0-3.75 1.959-3.75 4.375 0 2.069 1.231 3.802 2.885 4.258l-0.621 10.12c-0.042 0.686 0.486 1.248 1.173 1.248h0.625c0.688 0 1.216-0.561 1.173-1.248l-0.621-10.12c1.654-0.456 2.885-2.189 2.885-4.258 0-2.416-1.679-4.375-3.75-4.375zM16.979 0l-1.042 6.25h-0.781l-0.521-6.25h-0.521l-0.521 6.25h-0.781l-1.042-6.25h-0.521v8.125c0 0.345 0.28 0.625 0.625 0.625h1.628l-0.614 10.002c-0.042 0.686 0.486 1.248 1.173 1.248h0.625c0.688 0 1.216-0.561 1.173-1.248l-0.614-10.002h1.628c0.345 0 0.625-0.28 0.625-0.625v-8.125h-0.521z"></path>
</svg>
