<!-- Generated by IcoMoon.io -->
<svg version="1.1" xmlns="http://www.w3.org/2000/svg" width="20" height="20" viewBox="0 0 20 20">
<title>spotify</title>
<path d="M10 0c-5.5 0-10 4.5-10 10s4.5 10 10 10 10-4.5 10-10-4.449-10-10-10zM14.602 14.449c-0.199 0.301-0.551 0.398-0.852 0.199-2.352-1.449-5.301-1.75-8.801-0.949-0.352 0.102-0.648-0.148-0.75-0.449-0.102-0.352 0.148-0.648 0.449-0.75 3.801-0.852 7.102-0.5 9.699 1.102 0.352 0.148 0.402 0.547 0.254 0.848zM15.801 11.699c-0.25 0.352-0.699 0.5-1.051 0.25-2.699-1.648-6.801-2.148-9.949-1.148-0.398 0.102-0.852-0.102-0.949-0.5-0.102-0.398 0.102-0.852 0.5-0.949 3.648-1.102 8.148-0.551 11.25 1.352 0.297 0.148 0.449 0.648 0.199 0.996zM15.898 8.898c-3.199-1.898-8.551-2.102-11.602-1.148-0.5 0.148-1-0.148-1.148-0.602-0.148-0.5 0.148-1 0.602-1.148 3.551-1.051 9.398-0.852 13.102 1.352 0.449 0.25 0.602 0.852 0.352 1.301-0.254 0.348-0.852 0.496-1.305 0.246z"></path>
</svg>
