<!-- Generated by IcoMoon.io -->
<svg version="1.1" xmlns="http://www.w3.org/2000/svg" width="20" height="20" viewBox="0 0 20 20">
<title>stats-bars2</title>
<path d="M5.625 7.5h-3.75c-0.344 0-0.625 0.281-0.625 0.625v11.25c0 0.344 0.281 0.625 0.625 0.625h3.75c0.344 0 0.625-0.281 0.625-0.625v-11.25c0-0.344-0.281-0.625-0.625-0.625zM5.625 18.75h-3.75v-5h3.75v5zM11.875 5h-3.75c-0.344 0-0.625 0.281-0.625 0.625v13.75c0 0.344 0.281 0.625 0.625 0.625h3.75c0.344 0 0.625-0.281 0.625-0.625v-13.75c0-0.344-0.281-0.625-0.625-0.625zM11.875 18.75h-3.75v-6.25h3.75v6.25zM18.125 2.5h-3.75c-0.344 0-0.625 0.281-0.625 0.625v16.25c0 0.344 0.281 0.625 0.625 0.625h3.75c0.344 0 0.625-0.281 0.625-0.625v-16.25c0-0.344-0.281-0.625-0.625-0.625zM18.125 18.75h-3.75v-7.5h3.75v7.5z"></path>
</svg>
