<!-- Generated by IcoMoon.io -->
<svg version="1.1" xmlns="http://www.w3.org/2000/svg" width="20" height="20" viewBox="0 0 20 20">
<title>stumbleupon</title>
<path d="M10 6.25c-0.688 0-1.25 0.563-1.25 1.25v5c0 2.066-1.684 3.75-3.75 3.75s-3.75-1.684-3.75-3.75v-2.5h2.5v2.5c0 0.688 0.563 1.25 1.25 1.25s1.25-0.563 1.25-1.25v-5c0-2.066 1.684-3.75 3.75-3.75s3.75 1.684 3.75 3.477v1.211l-1.602 0.469-0.898-0.469v-1.211c0-0.414-0.563-0.977-1.25-0.977z"></path>
<path d="M18.75 12.5c0 2.066-1.684 3.75-3.75 3.75s-3.75-1.684-3.75-4.023v-2.422l0.898 0.469 1.602-0.469v2.422c0 0.961 0.563 1.523 1.25 1.523s1.25-0.563 1.25-1.25v-2.5h2.5v2.5z"></path>
</svg>
