<!-- Generated by IcoMoon.io -->
<svg version="1.1" xmlns="http://www.w3.org/2000/svg" width="20" height="20" viewBox="0 0 20 20">
<title>sun</title>
<path d="M10 16.25c0.69 0 1.25 0.56 1.25 1.25v1.25c0 0.69-0.56 1.25-1.25 1.25s-1.25-0.56-1.25-1.25v-1.25c0-0.69 0.56-1.25 1.25-1.25zM10 3.75c-0.69 0-1.25-0.56-1.25-1.25v-1.25c0-0.69 0.56-1.25 1.25-1.25s1.25 0.56 1.25 1.25v1.25c0 0.69-0.56 1.25-1.25 1.25zM18.75 8.75c0.69 0 1.25 0.56 1.25 1.25s-0.56 1.25-1.25 1.25h-1.25c-0.69 0-1.25-0.56-1.25-1.25s0.56-1.25 1.25-1.25h1.25zM3.75 10c0 0.69-0.56 1.25-1.25 1.25h-1.25c-0.69 0-1.25-0.56-1.25-1.25s0.56-1.25 1.25-1.25h1.25c0.69 0 1.25 0.56 1.25 1.25zM16.187 14.419l0.884 0.884c0.488 0.488 0.488 1.28 0 1.768s-1.28 0.488-1.768 0l-0.884-0.884c-0.488-0.488-0.488-1.28 0-1.768s1.28-0.488 1.768 0zM3.813 5.581l-0.884-0.884c-0.488-0.488-0.488-1.28 0-1.768s1.28-0.488 1.768 0l0.884 0.884c0.488 0.488 0.488 1.28 0 1.768s-1.28 0.488-1.768 0zM16.187 5.581c-0.488 0.488-1.28 0.488-1.768 0s-0.488-1.28 0-1.768l0.884-0.884c0.488-0.488 1.28-0.488 1.768 0s0.488 1.28 0 1.768l-0.884 0.884zM3.813 14.419c0.488-0.488 1.28-0.488 1.768 0s0.488 1.28 0 1.768l-0.884 0.884c-0.488 0.488-1.28 0.488-1.768 0s-0.488-1.28 0-1.768l0.884-0.884z"></path>
<path d="M10 5c-2.761 0-5 2.239-5 5s2.239 5 5 5c2.761 0 5-2.239 5-5s-2.239-5-5-5zM10 13.125c-1.726 0-3.125-1.399-3.125-3.125s1.399-3.125 3.125-3.125 3.125 1.399 3.125 3.125-1.399 3.125-3.125 3.125z"></path>
</svg>
