<!-- Generated by IcoMoon.io -->
<svg version="1.1" xmlns="http://www.w3.org/2000/svg" width="20" height="20" viewBox="0 0 20 20">
<title>superscript2</title>
<path d="M3.789 16.25l1.125-3.75h5.171l1.125 3.75h2.219l-3.75-12.5h-4.36l-3.75 12.5h2.219zM6.789 6.25h1.421l1.125 3.75h-3.671l1.125-3.75zM13.75 16.25l3.125-5 3.125 5h-6.25z"></path>
<path d="M16.875 2.5h-1.25c-0.345 0-0.625-0.28-0.625-0.625s0.28-0.625 0.625-0.625h2.5c0.345 0 0.625-0.28 0.625-0.625s-0.28-0.625-0.625-0.625h-2.5c-1.034 0-1.875 0.841-1.875 1.875 0 0.48 0.181 0.918 0.479 1.25 0.344 0.383 0.842 0.625 1.396 0.625h1.25c0.345 0 0.625 0.28 0.625 0.625s-0.28 0.625-0.625 0.625h-2.5c-0.345 0-0.625 0.28-0.625 0.625s0.28 0.625 0.625 0.625h2.5c1.034 0 1.875-0.841 1.875-1.875 0-0.48-0.181-0.918-0.479-1.25-0.344-0.383-0.842-0.625-1.396-0.625z"></path>
</svg>
