<!-- Generated by IcoMoon.io -->
<svg version="1.1" xmlns="http://www.w3.org/2000/svg" width="20" height="20" viewBox="0 0 20 20">
<title>svg</title>
<path d="M18.125 8.125c-0.555 0-1.054 0.242-1.397 0.625h-3.71l2.623-2.623c0.514 0.028 1.037-0.153 1.43-0.546 0.732-0.732 0.732-1.919 0-2.652s-1.919-0.732-2.652 0c-0.393 0.393-0.574 0.916-0.546 1.43l-2.623 2.623v-3.71c0.383-0.343 0.625-0.842 0.625-1.397 0-1.036-0.839-1.875-1.875-1.875s-1.875 0.839-1.875 1.875c0 0.555 0.242 1.054 0.625 1.397v3.71l-2.623-2.623c0.028-0.514-0.153-1.037-0.546-1.43-0.732-0.732-1.919-0.732-2.652 0s-0.732 1.919 0 2.652c0.393 0.393 0.916 0.574 1.43 0.546l2.623 2.623h-3.71c-0.343-0.383-0.842-0.625-1.397-0.625-1.036 0-1.875 0.839-1.875 1.875s0.839 1.875 1.875 1.875c0.555 0 1.054-0.242 1.397-0.625h3.71l-2.623 2.623c-0.514-0.028-1.037 0.153-1.43 0.546-0.732 0.732-0.732 1.919 0 2.652s1.919 0.732 2.652 0c0.393-0.393 0.574-0.916 0.546-1.43l2.623-2.623v3.71c-0.383 0.343-0.625 0.842-0.625 1.397 0 1.036 0.839 1.875 1.875 1.875s1.875-0.839 1.875-1.875c0-0.555-0.242-1.054-0.625-1.397v-3.71l2.623 2.623c-0.028 0.514 0.153 1.037 0.546 1.43 0.732 0.732 1.919 0.732 2.652 0s0.732-1.919 0-2.652c-0.393-0.393-0.916-0.574-1.43-0.546l-2.623-2.623h3.71c0.343 0.383 0.842 0.625 1.397 0.625 1.036 0 1.875-0.839 1.875-1.875s-0.839-1.875-1.875-1.875z"></path>
</svg>
