<!-- Generated by IcoMoon.io -->
<svg version="1.1" xmlns="http://www.w3.org/2000/svg" width="20" height="20" viewBox="0 0 20 20">
<title>target</title>
<path d="M20 8.75h-1.971c-0.54-3.481-3.298-6.239-6.779-6.779v-1.971h-2.5v1.971c-3.481 0.54-6.239 3.298-6.779 6.779h-1.971v2.5h1.971c0.54 3.481 3.298 6.239 6.779 6.779v1.971h2.5v-1.971c3.481-0.54 6.239-3.298 6.779-6.779h1.971v-2.5zM15.485 8.75h-1.948c-0.377-1.065-1.221-1.91-2.286-2.286v-1.948c2.1 0.478 3.756 2.135 4.235 4.235zM10 11.25c-0.69 0-1.25-0.56-1.25-1.25s0.56-1.25 1.25-1.25c0.69 0 1.25 0.56 1.25 1.25s-0.56 1.25-1.25 1.25zM8.75 4.515v1.948c-1.065 0.377-1.91 1.221-2.286 2.286h-1.948c0.478-2.1 2.135-3.756 4.235-4.235zM4.515 11.25h1.948c0.377 1.065 1.221 1.91 2.286 2.286v1.948c-2.1-0.478-3.756-2.135-4.235-4.235zM11.25 15.485v-1.948c1.065-0.377 1.91-1.221 2.286-2.286h1.948c-0.478 2.1-2.135 3.756-4.235 4.235z"></path>
</svg>
