<!-- Generated by IcoMoon.io -->
<svg version="1.1" xmlns="http://www.w3.org/2000/svg" width="20" height="20" viewBox="0 0 20 20">
<title>telegram</title>
<path d="M10 0c-5.523 0-10 4.477-10 10s4.477 10 10 10 10-4.477 10-10-4.477-10-10-10zM14.914 6.855l-1.641 7.73c-0.113 0.551-0.445 0.68-0.906 0.426l-2.5-1.848-1.199 1.168c-0.141 0.137-0.25 0.25-0.5 0.25-0.324 0-0.27-0.121-0.379-0.43l-0.852-2.797-2.473-0.77c-0.535-0.164-0.539-0.531 0.121-0.793l9.633-3.719c0.438-0.199 0.863 0.105 0.695 0.781z"></path>
</svg>
