<!-- Generated by IcoMoon.io -->
<svg version="1.1" xmlns="http://www.w3.org/2000/svg" width="20" height="20" viewBox="0 0 20 20">
<title>tree</title>
<path d="M19.063 15h-0.313v-4.063c0-1.206-0.981-2.188-2.188-2.188h-5.313v-2.5h0.313c0.516 0 0.938-0.422 0.938-0.938v-3.125c0-0.516-0.422-0.938-0.938-0.938h-3.125c-0.516 0-0.938 0.422-0.938 0.938v3.125c0 0.516 0.422 0.938 0.938 0.938h0.313v2.5h-5.313c-1.206 0-2.188 0.981-2.188 2.188v4.063h-0.313c-0.516 0-0.938 0.422-0.938 0.938v3.125c0 0.516 0.422 0.938 0.938 0.938h3.125c0.516 0 0.938-0.422 0.938-0.938v-3.125c0-0.516-0.422-0.938-0.938-0.938h-0.313v-3.75h5v3.75h-0.313c-0.516 0-0.938 0.422-0.938 0.938v3.125c0 0.516 0.422 0.938 0.938 0.938h3.125c0.516 0 0.938-0.422 0.938-0.938v-3.125c0-0.516-0.422-0.938-0.938-0.938h-0.313v-3.75h5v3.75h-0.313c-0.516 0-0.938 0.422-0.938 0.938v3.125c0 0.516 0.422 0.938 0.938 0.938h3.125c0.516 0 0.938-0.422 0.938-0.938v-3.125c0-0.516-0.422-0.938-0.938-0.938zM3.75 18.75h-2.5v-2.5h2.5v2.5zM11.25 18.75h-2.5v-2.5h2.5v2.5zM8.75 5v-2.5h2.5v2.5h-2.5zM18.75 18.75h-2.5v-2.5h2.5v2.5z"></path>
</svg>
