<!-- Generated by IcoMoon.io -->
<svg version="1.1" xmlns="http://www.w3.org/2000/svg" width="20" height="20" viewBox="0 0 20 20">
<title>tumblr2</title>
<path d="M18.125 0h-16.25c-1.031 0-1.875 0.844-1.875 1.875v16.25c0 1.031 0.844 1.875 1.875 1.875h16.25c1.031 0 1.875-0.844 1.875-1.875v-16.25c0-1.031-0.844-1.875-1.875-1.875zM14.293 16.105c-0.59 0.277-1.125 0.473-1.602 0.586-0.477 0.109-0.996 0.168-1.551 0.168-0.633 0-1.004-0.078-1.488-0.238s-0.898-0.387-1.242-0.68c-0.344-0.297-0.578-0.609-0.711-0.941s-0.199-0.813-0.199-1.445v-4.84h-1.875v-1.953c0.543-0.176 1.172-0.43 1.555-0.758 0.387-0.328 0.699-0.723 0.93-1.184 0.234-0.461 0.395-1.047 0.484-1.758h1.961v3.188h3.195v2.465h-3.191v3.539c0 0.801-0.012 1.262 0.074 1.488s0.297 0.461 0.527 0.594c0.305 0.184 0.656 0.273 1.047 0.273 0.699 0 1.395-0.227 2.086-0.68v2.176z"></path>
</svg>
