<!-- Generated by IcoMoon.io -->
<svg version="1.1" xmlns="http://www.w3.org/2000/svg" width="20" height="20" viewBox="0 0 20 20">
<title>unlocked</title>
<path d="M15 1.25c2.068 0 3.75 1.682 3.75 3.75v3.75h-2.5v-3.75c0-0.689-0.561-1.25-1.25-1.25h-2.5c-0.689 0-1.25 0.561-1.25 1.25v3.75h0.313c0.516 0 0.938 0.422 0.938 0.938v9.375c0 0.516-0.422 0.938-0.938 0.938h-10.625c-0.516 0-0.938-0.422-0.938-0.938v-9.375c0-0.516 0.422-0.938 0.938-0.938h7.813v-3.75c0-2.068 1.682-3.75 3.75-3.75h2.5z"></path>
</svg>
