<!-- Generated by IcoMoon.io -->
<svg version="1.1" xmlns="http://www.w3.org/2000/svg" width="20" height="20" viewBox="0 0 20 20">
<title>user-minus</title>
<path d="M7.5 14.375c0-2.954 1.873-5.478 4.493-6.449 0.318-0.714 0.507-1.507 0.507-2.301 0-3.107 0-5.625-3.75-5.625s-3.75 2.518-3.75 5.625c0 1.935 1.123 3.869 2.5 4.645v1.031c-4.24 0.347-7.5 2.43-7.5 4.949h7.76c-0.169-0.596-0.26-1.225-0.26-1.875z"></path>
<path d="M14.375 8.75c-3.107 0-5.625 2.518-5.625 5.625s2.518 5.625 5.625 5.625c3.107 0 5.625-2.518 5.625-5.625s-2.518-5.625-5.625-5.625zM17.5 15h-6.25v-1.25h6.25v1.25z"></path>
</svg>
