<!-- Generated by IcoMoon.io -->
<svg version="1.1" xmlns="http://www.w3.org/2000/svg" width="23" height="20" viewBox="0 0 23 20">
<title>users</title>
<path d="M15 15.051v-1.031c1.377-0.776 2.5-2.71 2.5-4.645 0-3.107 0-5.625-3.75-5.625s-3.75 2.518-3.75 5.625c0 1.935 1.123 3.869 2.5 4.645v1.031c-4.24 0.347-7.5 2.43-7.5 4.949h17.5c0-2.519-3.26-4.602-7.5-4.949z"></path>
<path d="M6.391 15.534c1.080-0.706 2.423-1.243 3.902-1.571-0.294-0.347-0.561-0.735-0.791-1.153-0.594-1.079-0.908-2.267-0.908-3.435 0-1.681 0-3.268 0.598-4.566 0.58-1.26 1.624-2.041 3.11-2.334-0.33-1.494-1.21-2.476-3.551-2.476-3.75 0-3.75 2.518-3.75 5.625 0 1.935 1.123 3.869 2.5 4.645v1.031c-4.24 0.347-7.5 2.43-7.5 4.949h5.449c0.284-0.252 0.598-0.492 0.941-0.716z"></path>
</svg>
