<!-- Generated by IcoMoon.io -->
<svg version="1.1" xmlns="http://www.w3.org/2000/svg" width="20" height="20" viewBox="0 0 20 20">
<title>vimeo</title>
<path d="M19.992 5.352c-0.090 1.945-1.449 4.613-4.078 7.996-2.719 3.531-5.020 5.301-6.902 5.301-1.164 0-2.152-1.074-2.957-3.227-0.539-1.973-1.074-3.945-1.613-5.918-0.598-2.152-1.238-3.227-1.926-3.227-0.148 0-0.672 0.316-1.57 0.941l-0.941-1.211c0.988-0.867 1.961-1.734 2.918-2.602 1.316-1.137 2.305-1.734 2.965-1.797 1.555-0.148 2.516 0.914 2.875 3.191 0.387 2.457 0.656 3.984 0.809 4.582 0.449 2.039 0.941 3.059 1.48 3.059 0.418 0 1.047-0.66 1.887-1.984 0.836-1.32 1.285-2.328 1.348-3.020 0.121-1.141-0.328-1.715-1.348-1.715-0.48 0-0.973 0.109-1.48 0.328 0.984-3.219 2.859-4.781 5.633-4.691 2.051 0.055 3.020 1.387 2.902 3.992z"></path>
</svg>
