<!-- Generated by IcoMoon.io -->
<svg version="1.1" xmlns="http://www.w3.org/2000/svg" width="20" height="20" viewBox="0 0 20 20">
<title>vimeo2</title>
<path d="M18.125 0h-16.25c-1.031 0-1.875 0.844-1.875 1.875v16.25c0 1.031 0.844 1.875 1.875 1.875h16.25c1.031 0 1.875-0.844 1.875-1.875v-16.25c0-1.031-0.844-1.875-1.875-1.875zM16.828 6.641c-0.063 1.406-1.047 3.332-2.949 5.777-1.965 2.555-3.629 3.832-4.988 3.832-0.844 0-1.555-0.777-2.137-2.332-0.391-1.426-0.777-2.852-1.168-4.277-0.43-1.555-0.895-2.332-1.391-2.332-0.109 0-0.488 0.227-1.133 0.68l-0.68-0.875c0.715-0.625 1.418-1.254 2.109-1.879 0.953-0.82 1.664-1.254 2.141-1.297 1.125-0.109 1.816 0.66 2.078 2.305 0.281 1.777 0.477 2.879 0.586 3.313 0.324 1.473 0.68 2.207 1.070 2.207 0.301 0 0.758-0.477 1.363-1.434s0.93-1.684 0.973-2.184c0.086-0.824-0.238-1.238-0.973-1.238-0.348 0-0.703 0.078-1.070 0.238 0.711-2.324 2.066-3.457 4.070-3.391 1.484 0.043 2.184 1.004 2.098 2.887z"></path>
</svg>
