<!-- Generated by IcoMoon.io -->
<svg version="1.1" xmlns="http://www.w3.org/2000/svg" width="20" height="20" viewBox="0 0 20 20">
<title>vine</title>
<path d="M18.766 9.941c-0.516 0.117-1.012 0.172-1.461 0.172-2.523 0-4.465-1.762-4.465-4.828 0-1.504 0.582-2.281 1.402-2.281 0.781 0 1.301 0.699 1.301 2.121 0 0.809-0.215 1.695-0.375 2.219 0 0 0.777 1.355 2.902 0.941 0.453-1.004 0.695-2.301 0.695-3.438 0-3.063-1.563-4.848-4.426-4.848-2.945 0-4.668 2.262-4.668 5.246 0 2.957 1.383 5.492 3.66 6.648-0.957 1.918-2.176 3.605-3.449 4.879-2.305-2.789-4.391-6.508-5.246-13.77h-3.402c1.574 12.094 6.258 15.945 7.5 16.684 0.699 0.422 1.305 0.402 1.945 0.039 1.008-0.57 4.027-3.594 5.703-7.129 0.703 0 1.547-0.082 2.387-0.273v-2.383z"></path>
</svg>
