<!-- Generated by IcoMoon.io -->
<svg version="1.1" xmlns="http://www.w3.org/2000/svg" width="20" height="20" viewBox="0 0 20 20">
<title>vk</title>
<path d="M18.125 0h-16.25c-1.031 0-1.875 0.844-1.875 1.875v16.25c0 1.031 0.844 1.875 1.875 1.875h16.25c1.031 0 1.875-0.844 1.875-1.875v-16.25c0-1.031-0.844-1.875-1.875-1.875zM16.199 14l-1.828 0.027c0 0-0.395 0.078-0.91-0.277-0.684-0.469-1.328-1.691-1.832-1.531-0.508 0.16-0.492 1.258-0.492 1.258s0.004 0.234-0.113 0.359c-0.125 0.137-0.375 0.164-0.375 0.164h-0.816c0 0-1.805 0.109-3.395-1.547-1.734-1.805-3.266-5.387-3.266-5.387s-0.090-0.234 0.008-0.348c0.109-0.129 0.402-0.137 0.402-0.137l1.957-0.012c0 0 0.184 0.031 0.316 0.129 0.109 0.078 0.168 0.23 0.168 0.23s0.316 0.801 0.734 1.523c0.816 1.41 1.199 1.719 1.477 1.57 0.402-0.219 0.281-1.996 0.281-1.996s0.008-0.645-0.203-0.93c-0.164-0.223-0.473-0.289-0.605-0.305-0.109-0.016 0.070-0.27 0.305-0.387 0.352-0.172 0.973-0.184 1.707-0.176 0.57 0.004 0.738 0.043 0.961 0.094 0.676 0.164 0.445 0.793 0.445 2.301 0 0.484-0.086 1.164 0.262 1.387 0.148 0.098 0.516 0.016 1.434-1.543 0.434-0.738 0.762-1.605 0.762-1.605s0.070-0.156 0.18-0.223c0.113-0.066 0.266-0.047 0.266-0.047l2.059-0.012c0 0 0.617-0.074 0.719 0.207 0.105 0.293-0.23 0.977-1.070 2.098-1.379 1.84-1.535 1.668-0.387 2.73 1.094 1.016 1.32 1.512 1.359 1.574 0.445 0.75-0.508 0.809-0.508 0.809z"></path>
</svg>
