<!-- Generated by IcoMoon.io -->
<svg version="1.1" xmlns="http://www.w3.org/2000/svg" width="20" height="20" viewBox="0 0 20 20">
<title>volume-low</title>
<path d="M10.723 14.473c-0.24 0-0.48-0.092-0.663-0.275-0.366-0.366-0.366-0.96 0-1.326 1.584-1.584 1.584-4.161 0-5.745-0.366-0.366-0.366-0.96 0-1.326s0.96-0.366 1.326 0c2.315 2.315 2.315 6.082 0 8.397-0.183 0.183-0.423 0.274-0.663 0.274z"></path>
<path d="M8.125 18.75c-0.163 0-0.322-0.063-0.442-0.183l-4.817-4.817h-2.241c-0.345 0-0.625-0.28-0.625-0.625v-6.25c0-0.345 0.28-0.625 0.625-0.625h2.241l4.817-4.817c0.179-0.179 0.448-0.232 0.681-0.135s0.386 0.325 0.386 0.577v16.25c0 0.253-0.152 0.481-0.386 0.577-0.077 0.032-0.159 0.048-0.239 0.048z"></path>
</svg>
