<!-- Generated by IcoMoon.io -->
<svg version="1.1" xmlns="http://www.w3.org/2000/svg" width="20" height="20" viewBox="0 0 20 20">
<title>warning</title>
<path d="M10 1.812l8.381 16.704h-16.762l8.381-16.704zM10 0c-0.431 0-0.862 0.291-1.189 0.872l-8.537 17.014c-0.654 1.163-0.098 2.114 1.236 2.114h16.979c1.334 0 1.89-0.951 1.236-2.114h0l-8.537-17.014c-0.327-0.581-0.758-0.872-1.189-0.872v0z"></path>
<path d="M11.25 16.25c0 0.69-0.56 1.25-1.25 1.25s-1.25-0.56-1.25-1.25c0-0.69 0.56-1.25 1.25-1.25s1.25 0.56 1.25 1.25z"></path>
<path d="M10 13.75c-0.69 0-1.25-0.56-1.25-1.25v-3.75c0-0.69 0.56-1.25 1.25-1.25s1.25 0.56 1.25 1.25v3.75c0 0.69-0.56 1.25-1.25 1.25z"></path>
</svg>
