<!-- Generated by IcoMoon.io -->
<svg version="1.1" xmlns="http://www.w3.org/2000/svg" width="20" height="20" viewBox="0 0 20 20">
<title>whatsapp</title>
<path d="M17.051 2.906c-1.871-1.875-4.359-2.906-7.012-2.906-5.461 0-9.906 4.445-9.906 9.91 0 1.746 0.457 3.453 1.324 4.953l-1.406 5.137 5.254-1.379c1.449 0.789 3.078 1.207 4.734 1.207h0.004c0 0 0 0 0 0 5.461 0 9.91-4.445 9.91-9.91 0-2.648-1.031-5.137-2.902-7.012zM10.043 18.156v0c-1.48 0-2.93-0.398-4.195-1.148l-0.301-0.18-3.117 0.816 0.832-3.039-0.195-0.313c-0.828-1.309-1.262-2.824-1.262-4.383 0-4.543 3.695-8.238 8.242-8.238 2.199 0 4.27 0.859 5.824 2.414 1.555 1.559 2.41 3.625 2.41 5.828-0.004 4.547-3.699 8.242-8.238 8.242zM14.559 11.984c-0.246-0.125-1.465-0.723-1.691-0.805s-0.391-0.125-0.559 0.125c-0.164 0.246-0.641 0.805-0.785 0.973-0.145 0.164-0.289 0.188-0.535 0.063s-1.047-0.387-1.992-1.23c-0.734-0.656-1.234-1.469-1.379-1.715s-0.016-0.383 0.109-0.504c0.113-0.109 0.246-0.289 0.371-0.434s0.164-0.246 0.246-0.414c0.082-0.164 0.043-0.309-0.020-0.434s-0.559-1.344-0.762-1.84c-0.199-0.484-0.406-0.418-0.559-0.426-0.145-0.008-0.309-0.008-0.473-0.008s-0.434 0.063-0.66 0.309c-0.227 0.246-0.867 0.848-0.867 2.066s0.887 2.395 1.012 2.563c0.125 0.164 1.746 2.668 4.23 3.738 0.59 0.254 1.051 0.406 1.41 0.523 0.594 0.188 1.133 0.16 1.559 0.098 0.477-0.070 1.465-0.598 1.672-1.176s0.207-1.074 0.145-1.176c-0.059-0.109-0.223-0.172-0.473-0.297z"></path>
</svg>
