<!-- Generated by IcoMoon.io -->
<svg version="1.1" xmlns="http://www.w3.org/2000/svg" width="20" height="20" viewBox="0 0 20 20">
<title>wikipedia</title>
<path d="M18.883 4.563c0 0.063-0.020 0.121-0.059 0.176-0.039 0.051-0.082 0.078-0.133 0.078-0.391 0.039-0.711 0.164-0.957 0.375-0.25 0.211-0.504 0.621-0.766 1.219l-4.031 9.090c-0.027 0.086-0.102 0.125-0.223 0.125-0.094 0-0.168-0.043-0.223-0.125l-2.262-4.727-2.602 4.727c-0.055 0.086-0.125 0.125-0.223 0.125-0.117 0-0.191-0.043-0.23-0.125l-3.957-9.086c-0.246-0.563-0.508-0.957-0.781-1.18s-0.656-0.363-1.145-0.414c-0.043 0-0.082-0.023-0.117-0.066-0.039-0.043-0.055-0.094-0.055-0.152 0-0.148 0.043-0.223 0.125-0.223 0.352 0 0.723 0.016 1.109 0.047 0.359 0.031 0.695 0.047 1.012 0.047 0.32 0 0.703-0.016 1.141-0.047 0.457-0.031 0.863-0.047 1.219-0.047 0.086 0 0.125 0.074 0.125 0.223s-0.027 0.219-0.078 0.219c-0.352 0.027-0.633 0.117-0.836 0.27s-0.305 0.352-0.305 0.602c0 0.125 0.043 0.285 0.125 0.473l3.27 7.391 1.859-3.508-1.73-3.629c-0.313-0.648-0.566-1.066-0.766-1.254s-0.504-0.301-0.91-0.344c-0.039 0-0.070-0.023-0.105-0.066s-0.051-0.094-0.051-0.152c0-0.148 0.035-0.223 0.109-0.223 0.352 0 0.676 0.016 0.973 0.047 0.285 0.031 0.586 0.047 0.91 0.047 0.316 0 0.648-0.016 1.004-0.047 0.363-0.031 0.723-0.047 1.074-0.047 0.086 0 0.125 0.074 0.125 0.223s-0.023 0.219-0.078 0.219c-0.707 0.047-1.059 0.25-1.059 0.602 0 0.156 0.082 0.402 0.246 0.734l1.145 2.324 1.141-2.125c0.156-0.301 0.238-0.555 0.238-0.758 0-0.484-0.352-0.742-1.059-0.773-0.063 0-0.094-0.074-0.094-0.219 0-0.055 0.016-0.102 0.047-0.148s0.063-0.070 0.094-0.070c0.254 0 0.562 0.016 0.934 0.047 0.352 0.031 0.645 0.047 0.871 0.047 0.164 0 0.402-0.016 0.719-0.039 0.398-0.035 0.734-0.055 1.004-0.055 0.063 0 0.094 0.063 0.094 0.188 0 0.168-0.059 0.254-0.172 0.254-0.41 0.043-0.742 0.156-0.992 0.34s-0.562 0.602-0.938 1.258l-1.527 2.797 2.055 4.188 3.035-7.059c0.105-0.258 0.156-0.496 0.156-0.711 0-0.516-0.352-0.789-1.059-0.824-0.063 0-0.094-0.074-0.094-0.219 0-0.148 0.047-0.223 0.141-0.223 0.258 0 0.562 0.016 0.918 0.047 0.328 0.031 0.602 0.047 0.82 0.047 0.234 0 0.5-0.016 0.805-0.047 0.316-0.031 0.602-0.047 0.855-0.047 0.078 0 0.117 0.063 0.117 0.188z"></path>
</svg>
