<!-- Generated by IcoMoon.io -->
<svg version="1.1" xmlns="http://www.w3.org/2000/svg" width="20" height="20" viewBox="0 0 20 20">
<title>woman</title>
<path d="M11.25 1.875c0 1.036-0.839 1.875-1.875 1.875s-1.875-0.839-1.875-1.875c0-1.036 0.839-1.875 1.875-1.875s1.875 0.839 1.875 1.875z"></path>
<path d="M14.043 10l0.957-0.693-2.603-4.026c-0.116-0.175-0.312-0.281-0.522-0.281h-5c-0.21 0-0.406 0.106-0.522 0.281l-2.603 4.026 0.957 0.693 2.161-2.805 0.751 1.753-2.619 4.802h2.396l0.417 6.25h1.25v-6.25h0.625v6.25h1.25l0.417-6.25h2.396l-2.619-4.802 0.751-1.753 2.161 2.805z"></path>
</svg>
