<!-- Generated by IcoMoon.io -->
<svg version="1.1" xmlns="http://www.w3.org/2000/svg" width="20" height="20" viewBox="0 0 20 20">
<title>xing</title>
<path d="M18.125 0h-16.25c-1.031 0-1.875 0.844-1.875 1.875v16.25c0 1.031 0.844 1.875 1.875 1.875h16.25c1.031 0 1.875-0.844 1.875-1.875v-16.25c0-1.031-0.844-1.875-1.875-1.875zM6.105 13.008h-2.16c-0.129 0-0.227-0.059-0.281-0.148-0.059-0.094-0.059-0.211 0-0.332l2.297-4.055c0.004-0.004 0.004-0.008 0-0.012l-1.461-2.531c-0.059-0.121-0.070-0.238-0.012-0.332 0.055-0.090 0.164-0.137 0.297-0.137h2.164c0.332 0 0.496 0.215 0.602 0.406 0 0 1.477 2.578 1.488 2.594-0.086 0.156-2.336 4.129-2.336 4.129-0.117 0.203-0.273 0.418-0.598 0.418zM16.336 2.973l-4.789 8.469c-0.004 0.004-0.004 0.012 0 0.016l3.051 5.57c0.059 0.121 0.063 0.242 0.004 0.336-0.055 0.090-0.156 0.137-0.289 0.137h-2.16c-0.332 0-0.496-0.219-0.605-0.41 0 0-3.066-5.625-3.074-5.641 0.152-0.27 4.813-8.535 4.813-8.535 0.117-0.207 0.258-0.41 0.578-0.41h2.191c0.129 0 0.234 0.051 0.289 0.137 0.055 0.090 0.055 0.211-0.008 0.332z"></path>
</svg>
