<!-- Generated by IcoMoon.io -->
<svg version="1.1" xmlns="http://www.w3.org/2000/svg" width="20" height="20" viewBox="0 0 20 20">
<title>xing2</title>
<path d="M3.039 3.949c-0.172 0-0.32 0.063-0.395 0.18-0.074 0.125-0.062 0.281 0.016 0.441l1.949 3.375c0.004 0.008 0.004 0.012 0 0.016l-3.063 5.414c-0.078 0.16-0.074 0.32 0 0.441 0.074 0.117 0.203 0.195 0.375 0.195h2.883c0.43 0 0.641-0.293 0.785-0.559 0 0 2.996-5.301 3.113-5.508-0.012-0.020-1.984-3.457-1.984-3.457-0.145-0.254-0.359-0.539-0.805-0.539h-2.875z"></path>
<path d="M15.156 0c-0.43 0-0.617 0.27-0.773 0.551 0 0-6.215 11.020-6.418 11.383 0.012 0.020 4.098 7.52 4.098 7.52 0.145 0.254 0.363 0.551 0.805 0.551h2.883c0.172 0 0.309-0.066 0.383-0.184 0.078-0.125 0.074-0.285-0.008-0.445l-4.063-7.434c-0.004-0.008-0.004-0.012 0-0.020l6.387-11.293c0.078-0.16 0.082-0.32 0.008-0.445-0.074-0.117-0.211-0.184-0.383-0.184h-2.918z"></path>
</svg>
