<!-- Generated by IcoMoon.io -->
<svg version="1.1" xmlns="http://www.w3.org/2000/svg" width="20" height="20" viewBox="0 0 20 20">
<title>yahoo2</title>
<path d="M10.023 1.359c-3.535 0-6.875-0.465-10.023-1.359 0 7.066 0 18.227 0 20 3.152-0.895 6.492-1.359 10.023-1.359 3.492 0 6.824 0.453 9.977 1.359 0-6.805 0-12.691 0-20-3.152 0.906-6.48 1.359-9.977 1.359zM15.563 3.066l-0.121 0.191c-0.113 0.18-0.215 0.332-0.355 0.547-0.188 0.281-0.539 0.84-0.961 1.559-0.117 0.199-0.262 0.438-0.41 0.695-0.285 0.48-0.605 1.023-0.859 1.453-0.105 0.184-0.211 0.371-0.32 0.559-0.281 0.488-0.57 0.992-0.848 1.477-0.285 0.504-0.566 1-0.848 1.492v0.496c0 0.688 0.016 1.438 0.039 2.105 0.012 0.305 0.023 0.848 0.039 1.422 0.016 0.684 0.031 1.391 0.051 1.75l0.004 0.109v0.012l-0.117-0.031c-0.047-0.012-0.090-0.023-0.137-0.035-0.141-0.031-0.293-0.055-0.441-0.070-0.090-0.008-0.184-0.012-0.277-0.012 0 0 0 0 0 0s0 0 0 0c-0.094 0-0.188 0.004-0.277 0.012-0.148 0.016-0.301 0.039-0.441 0.070-0.047 0.012-0.094 0.023-0.137 0.035l-0.117 0.031v-0.012l0.004-0.109c0.016-0.355 0.035-1.066 0.051-1.75 0.012-0.574 0.027-1.117 0.039-1.422 0.027-0.672 0.039-1.418 0.039-2.105v-0.496c-0.281-0.496-0.563-0.988-0.848-1.492-0.277-0.488-0.566-0.988-0.844-1.477-0.109-0.188-0.215-0.375-0.32-0.559-0.25-0.434-0.574-0.977-0.859-1.453-0.152-0.254-0.297-0.496-0.41-0.695-0.422-0.719-0.773-1.273-0.961-1.559-0.141-0.215-0.242-0.367-0.355-0.547l-0.121-0.191 0.219 0.063c0.277 0.078 0.563 0.117 0.867 0.117s0.598-0.039 0.871-0.117l0.066-0.020 0.035 0.059c0.539 0.973 1.988 3.355 2.855 4.781 0.297 0.492 0.535 0.879 0.652 1.078 0 0 0 0 0-0.004 0 0 0 0 0 0.004 0.117-0.195 0.355-0.586 0.652-1.078 0.867-1.422 2.316-3.805 2.855-4.781l0.035-0.059 0.066 0.020c0.273 0.078 0.566 0.117 0.871 0.117s0.59-0.039 0.867-0.117l0.207-0.063z"></path>
</svg>
