<!-- Generated by IcoMoon.io -->
<svg version="1.1" xmlns="http://www.w3.org/2000/svg" width="50" height="20" viewBox="0 0 50 20">
<title>youtube2</title>
<path d="M6.719 3.309c0.004-0.017 0.007-0.029 0.008-0.035l0.020-0.148-0.925-0.005c-0.836-0.005-1.091 0-1.114 0.021-0.011 0.010-0.299 1.106-0.814 3.091-0.245 0.947-0.452 1.703-0.459 1.681s-0.301-1.103-0.652-2.402c-0.352-1.298-0.647-2.368-0.655-2.377-0.012-0.012-1.132-0.018-2.039-0.010-0.132 0.001-0.205-0.256 1.172 4.124 0.191 0.606 0.476 1.465 0.634 1.908 0.182 0.511 0.312 0.905 0.401 1.234 0.157 0.626 0.162 1.019 0.128 1.477-0.040 0.529-0.045 4.266-0.007 4.329 0.030 0.048 1.782 0.070 1.948 0.025 0.027-0.007 0.044-0.033 0.056-0.174 0.041-0.121 0.045-0.605 0.045-2.612v-2.564l0.112-0.354c0.073-0.231 0.258-0.84 0.41-1.352s0.336-1.125 0.409-1.363c0.661-2.155 1.292-4.274 1.308-4.395l0.014-0.099z"></path>
<path d="M16.526 6.419l-0 0.134-0.021 0-0.012 3.691-0.011 3.579-0.286 0.292c-0.321 0.327-0.578 0.451-0.81 0.393-0.253-0.064-0.247 0.035-0.268-4.195l-0.019-3.893h-1.842v0.134h-0.021v4.224c0 4.526-0 4.523 0.23 4.978 0.183 0.362 0.449 0.538 0.906 0.599h0c0.601 0.080 1.25-0.192 1.851-0.778l0.261-0.254v0.438c0 0.379 0.011 0.441 0.079 0.461 0.112 0.031 1.507 0.033 1.658 0.002l0.125-0.026v-0.129l0.021-0.004v-9.67l-1.84 0.025z"></path>
<path d="M11.853 8.327c-0.175-0.749-0.502-1.252-1.040-1.6-0.845-0.547-1.811-0.605-2.707-0.162-0.653 0.323-1.073 0.858-1.29 1.642-0.026 0.093-0.045 0.172-0.059 0.289-0.055 0.277-0.062 0.69-0.076 2.616-0.022 2.967 0.012 3.32 0.384 3.994 0.365 0.661 1.121 1.146 1.945 1.246 0.248 0.030 0.751-0.017 1.040-0.097 0.657-0.182 1.286-0.701 1.565-1.291 0.12-0.255 0.193-0.432 0.237-0.755 0.082-0.442 0.087-1.156 0.087-2.976-0-2.322-0.007-2.575-0.085-2.907zM9.753 14.375c-0.154 0.118-0.424 0.169-0.644 0.122-0.169-0.036-0.397-0.301-0.467-0.543-0.087-0.301-0.094-4.492-0.019-5.314 0.125-0.411 0.472-0.626 0.852-0.524 0.296 0.080 0.448 0.265 0.534 0.653 0.064 0.288 0.072 0.647 0.058 2.759-0.009 1.4-0.014 2.085-0.060 2.452-0.047 0.232-0.123 0.294-0.254 0.394z"></path>
<path d="M44.929 10.432h0.89l-0.014-0.806c-0.014-0.74-0.025-0.824-0.124-1.025-0.156-0.317-0.386-0.457-0.751-0.457-0.438 0-0.716 0.212-0.847 0.647-0.056 0.185-0.115 1.459-0.072 1.569 0.024 0.061 0.151 0.072 0.918 0.072z"></path>
<path d="M38.98 8.598c-0.119-0.239-0.34-0.357-0.596-0.348-0.2 0.007-0.421 0.091-0.635 0.254l-0.159 0.121v5.793l0.159 0.121c0.36 0.274 0.755 0.333 1.028 0.15 0.108-0.072 0.178-0.171 0.233-0.329 0.071-0.206 0.077-0.469 0.068-2.906-0.010-2.54-0.015-2.689-0.098-2.856z"></path>
<path d="M50.017 5.989c-0.177-2.126-0.318-2.816-0.757-3.702-0.581-1.174-1.42-1.793-2.615-1.929-0.924-0.105-4.401-0.253-7.618-0.325-5.57-0.124-14.728 0.114-15.897 0.414-0.54 0.138-0.946 0.373-1.368 0.793-0.739 0.736-1.18 1.791-1.356 3.25-0.404 3.332-0.413 7.358-0.023 10.811 0.168 1.485 0.513 2.45 1.16 3.245 0.404 0.496 1.101 0.918 1.724 1.044 0.437 0.088 2.625 0.211 5.813 0.326 0.475 0.017 1.732 0.046 2.794 0.065 2.213 0.039 6.282 0.016 8.608-0.049 1.565-0.044 4.418-0.16 4.951-0.201 0.15-0.012 0.497-0.034 0.772-0.049 0.923-0.052 1.511-0.245 2.062-0.679 0.714-0.561 1.267-1.598 1.5-2.813 0.221-1.15 0.369-3.199 0.399-5.524 0.025-1.943-0.008-2.992-0.149-4.676zM27.837 5.219l-1.035 0.013-0.045 11.038-0.897 0.011c-0.694 0.010-0.904-0.001-0.921-0.045-0.012-0.032-0.026-2.52-0.033-5.53l-0.011-5.474-2.021-0.026v-1.725l5.973 0.024 0.026 1.701-1.035 0.013zM34.184 11.545v4.747h-1.635v-0.5c0-0.376-0.014-0.5-0.058-0.5-0.032 0-0.18 0.124-0.329 0.275-0.323 0.328-0.706 0.593-1.033 0.715-0.677 0.253-1.32 0.105-1.594-0.366-0.251-0.432-0.256-0.528-0.256-5.007v-4.112h1.634l0.013 3.872c0.012 3.805 0.014 3.875 0.105 4.030 0.121 0.205 0.305 0.261 0.598 0.18 0.172-0.047 0.29-0.131 0.569-0.409l0.352-0.351v-7.323h1.635v4.747zM40.562 15.613c-0.144 0.321-0.465 0.635-0.728 0.713-0.687 0.203-1.238 0.038-1.874-0.561-0.197-0.186-0.381-0.336-0.409-0.336-0.033 0-0.051 0.145-0.051 0.432v0.432h-1.635v-12.809h1.635v2.089c0 1.149 0.015 2.089 0.034 2.089s0.191-0.152 0.383-0.338c0.442-0.427 0.811-0.613 1.28-0.649 0.836-0.063 1.335 0.367 1.563 1.35 0.071 0.307 0.078 0.657 0.078 3.498-0 3.461-0 3.475-0.277 4.091zM47.48 13.714c-0.015 0.356-0.058 0.764-0.097 0.908-0.227 0.843-0.833 1.44-1.708 1.685-1.178 0.33-2.475-0.21-2.992-1.246-0.291-0.581-0.301-0.697-0.301-3.539 0-2.317 0.008-2.601 0.082-2.917 0.21-0.894 0.73-1.473 1.611-1.794 0.255-0.093 0.522-0.141 0.788-0.146 0.951-0.019 1.894 0.492 2.29 1.324 0.267 0.562 0.3 0.802 0.327 2.385l0.024 1.419-3.486 0.024-0.013 0.954c-0.018 1.346 0.073 1.76 0.436 2.004 0.306 0.206 0.775 0.19 1.031-0.034 0.24-0.21 0.307-0.436 0.331-1.096l0.021-0.579h1.683l-0.027 0.647z"></path>
</svg>
